<?xml version="1.0" encoding="UTF-8"?>
<svg id="Layer_2" data-name="Layer 2" xmlns="http://www.w3.org/2000/svg" viewBox="0 0 242.22 221.1">
  <defs>
    <style>
      .cls-1 {
        fill: #c9c9ca;
      }

      .cls-2 {
        fill: #d9d9de;
      }

      .cls-3 {
        fill: #2e3447;
      }

      .cls-4 {
        fill: #d2cdd6;
      }

      .cls-5 {
        fill: #3e465d;
      }

      .cls-6 {
        fill: #7d8598;
      }

      .cls-7 {
        fill: #697388;
      }

      .cls-8 {
        fill: #636981;
      }

      .cls-9 {
        fill: #f0f0f2;
      }

      .cls-10 {
        fill: #dfe0e2;
      }

      .cls-11 {
        fill: #4f5872;
      }
    </style>
  </defs>
  <g id="Layer_1-2" data-name="Layer 1">
    <g>
      <polygon class="cls-1" points="201.38 3.15 203.16 8.44 200.08 9.42 198.61 5.08 201.38 3.15"/>
      <polygon class="cls-8" points="108.56 151.42 103.86 160.91 99.68 151.33 108.56 151.42"/>
      <path class="cls-8" d="M186.76,43.72l2.38-.26-.29.66-.84,1.67,1.89,1.04,5.79.46,6.4-.74,1.03-1.87,6.1-1.29,9.43-.33,1.98,7.24-2.81,2.21-1.94,5.27,4.09,6.45-4.78.54-16.88,40.45-7.58,17.9,13.64-.19,14.91-2.11,13.88-2.27,4.18,1.21-.13,18.35,2.11,20.8-2.7,10.47-1.94,5.73-2.54,1.49-6.97,13.84-2.9,4.05-2.71.58,1.35,3.77,3.81,5.91-3.38.04-1.74-4.7-11.31,9.48-1.39,3.48-9.97,1.6-15.99.92-6.26.42v-5.08s2.52-11.64,2.52-11.64l-1.99-1.77-8,5.9-5.19-8.44-4.29-2.56-5.32,2.86-7.49-.3,9.06-6.64-1.28-5.13-8.65-12.12-7.61-1.95-5.99-2.34-13.4.85-5.92,4.02-9.63,9.07-5.29.02-7.21.04-2.58-4.23-2.94-3.2-11.07,2.74-6.23-.15-4.33-4.16-.53-5.19,5.99.72c4.09,3.06,10.24,2.98,13.59,1l2.82-4.31,4.93-1.27,4.01,1.82,1.19,4.1,8.14-1.17,6.66-4.89c4.63.53,6.52.13,9.25-.83l10.87,3.96,1.56-5.34-.34-1.93,2.74.23,1.09-7.73-7.32-6.33-4.14,2.67-1.24,2.28-2.15-.26-7.26.03-.24,1.85-1.85.02-1.04.19-4.56-3.07-4.32,2.98-1.21-.21-1.65-1.43c1.36,1.98-.89-1.3-2.02-2.94l2.09-4.79-6.34,1.84,4.89-5.06,4.76,6.08,5.56,1.47,4.99-.28.18-3.17-2.1-4.57-8.39-4.23-9.61-5.23-5.97-.53-1.44-5.68,2.42.91,2.27-.37,1.43-4.27,2.82.5,2.22,2.97,8.28.87,2.67-6.06,2.08-1.56,2.15.63.09,1.62,9.7-.77h4.34s.46,3.35.46,3.35l2.93,3.47,3.48-3.39,2.16-11.44,3.23,12.55,2.28,2.07,2.22-.68,3.46-.99,1.45-9.17,3.4,6.82,1.98,3.39,5.69.43,2.6-12.21,3.62,7.8.19,4.03,4.9-.71,4.1-21.77c.59.05-3.19-.27-4.25-.36l-4.3.48-5.89-1.63.18-2.99,3-1.89-3.84-9.2-1.13-4.44,16.93-13.85,13.87-10.38,2.14-3.23-2.5-3.07-17,.47-.07-4.33,2.02-2.1,15.52-.36ZM213.27,55.98l-.93.93.93.93,1.65-.93-1.65-.93ZM167.73,95.19c0-1.15-.93-2.09-2.09-2.09s-2.09.93-2.09,2.09.93,2.09,2.09,2.09,2.09-.93,2.09-2.09ZM175.48,98.78l-.03,24.5h4.17s.03-24.49.03-24.49h-4.17ZM176.72,143.41l-3.6,4.97,1.11,1.2,3.63.51-2.14,4.61-3.13-.57.87-3.65-1.54-1.35-2.61,7.41,7.1.58,1.85,3.97-.42,2.09,5.39,4.63,1.4-3.18,3.47-2.79-.21-15.51-1.85-3.68-3.94-.83-4.4-1.3-.98,2.88ZM147.08,145.1l-3.94-1.75-5.36,2.6,3.16,4.08-2.61.27.73,9.51,3.79,3.3,4.18-.83,5.57,1.88,5.77-3.55-1.7-2.33,3.03-7.79c-1.24-3.68-4.38-7.39-7.57-8.76l-5.05,3.37ZM167.13,157.39l-.79-14.88-6.29,2.79,3.96,3.59.07,9.19c.29,4.41,3.55,1.82,3.05-.69Z"/>
      <path class="cls-5" d="M4.44,45.87l4.22.99.64,4.77.38.62,1.05.87.88.87.89,1.04,1.08,1.42c.27-.8-.24.7-.56,1.65l-1.54-1.98-1.07-.97-.83-.83-1.27-.92-1.09-1.63-2.25,1.97.06,49.07.62,2.48-.63,4.86-.03,72.78-1.1,20.54-.21,6.58,24.15-17.73-4.31,5.54-7,10.7,3.66,5.51,14-.21,2.22,2.87,51.12-.58,3.45-3.01,37.3.66,8.03.77,21.21.75,10.07,1.11,7.08-.41,6.26-.42,15.99-.92,9.97-1.6,9.82,1.23,6.87,2.38,8.84-.6-7.7-11.31-3.81-5.91-1.35-3.77,2.71-.58,5.8,6.44,9.06,5.55,1.04-19.2-1.02-8.54-2.48-3.63,1.94-5.73,2.7-10.47-2.11-20.8.13-18.35c.92-3.57,1.5-8.61,1.75-13.08l-3.19-18.53.27-17.66,1.57-19.17-3.59-1.33,2.97-4.27-.33-2.82,4.61,1.12.05,54.93.45,42.95-.14,56,.45,14.37-8.29,8.03-129.78-.07-30.05-.34-35.41.67-28.05.56-10.63-8.5,1.16-22.32.27-126.54.95-15.92,2.07-1.95ZM15.28,210.97l-.93.93v1.87l.93.93.93-.93v-1.87l-.93-.93Z"/>
      <path class="cls-5" d="M202.63.38l2.65,3.4.84,8.92,4.12,7.97,10.09,16.21,2.82,6.4-.3,6.05,3.78,4.65,5.63-2.31-.96,3.75-2.92,2.55-2.77,2.39-1.16-3.01-3.67,2.1-4.9-1.69,1.94-5.27,2.81-2.21-1.98-7.24v-2.25s-12.55-20.61-12.55-20.61l-4.23,4.35-6.38-3.16-4.31,21.25-2.04.83-2.38.26.57-5.12,6.68-21.94,2.71-5.45-.25-6.8,2.74-4.4,3.42.38ZM201.38,3.15l-2.76,1.93,1.47,4.34,3.08-.98-1.79-5.29ZM203.69,16.31c0-1.64-1.33-2.97-2.97-2.97s-2.97,1.33-2.97,2.97,1.33,2.97,2.97,2.97,2.97-1.33,2.97-2.97Z"/>
      <path class="cls-5" d="M232.26,51.66l1.89-1.69-1.89,1.69Z"/>
      <path class="cls-8" d="M21.39,40.87l-.1,9.47.26,5.22-2.4,3.83,1.81,2.92,5.09,2.28-4.59,1.37,9.04,13.12,1.17,2.49-.03,4.01-8.48-.53-8.78,17.59-5.16,8.4-1.73.44-1.87-6.18-.62-2.48-.06-49.07,2.25-1.97,2.08-.15-.64-4.77-4.22-.99,2.68-4.49,14.27-.51ZM9.68,52.24l-1.37,1.15,1.27.92,1.15-1.2-1.05-.87ZM11.61,53.99l-1.2,1.15,1.07.97,1.02-1.09-.89-1.04ZM13.02,58.1l.56-1.65c.27-.8-.24.7-.56,1.65Z"/>
      <path class="cls-5" d="M49.37.22l2.24,10.13,1.63,6.47c5.44,7.19,8.04,14.75,8.4,24.55l12.83.94.68,2.54,21.16-.12.23-1.79,41.1.14,33.61,1-2.02,2.1-10.63,1.28c-2.59,1.13-7.52,1.04-10.5-.69l-70.23-.07-6.43-1.03-6.57.78-13.14-.05-26.89.39,1.66,4.65,1.5,4.43-3.6,2.22-2.84-2.52-.26-5.22.1-9.47,5.29-9.46,12.48-14.95,1.83-4.91,1.85-7.78L45.03,0l4.34.21ZM46.83,7.05c.4-4.39.36-3.96-.09.97-.2,2.12-.11,1.2.09-.97ZM44.43,11.29l-1.21,6.76,5.48.98,1.21-6.76-5.48-.98ZM24.86,40.63l.99,4.13,12.63.02.17-3.59,18.7,1.66-.02-12.63-5.01-10.61-6.07,4.19-5.21-5.33-9.86,11.53-6.32,10.64Z"/>
      <path class="cls-7" d="M237.34,119.74l-4.18-1.21-13.88,2.27-14.91,2.11-13.64.19,7.58-17.9,16.88-40.45,4.78-.54,5.64-3.86,2.77-2.39,2.92-2.55.96-3.75,1.89-1.69,3.59,1.33-1.57,19.17-.27,17.66,3.19,18.53c-.25,4.47-.84,9.51-1.75,13.08Z"/>
      <polygon class="cls-7" points="236.79 42.89 237.12 45.71 234.15 49.97 232.26 51.66 226.63 53.97 222.86 49.33 223.16 43.27 236.79 42.89"/>
      <polygon class="cls-7" points="96.53 42.94 96.3 44.73 75.14 44.85 74.47 42.31 96.53 42.94"/>
      <path class="cls-7" d="M169.21,46.18l.07,4.33,17-.47,2.5,3.07-2.14,3.23-13.87,10.38-16.93,13.85,1.13,4.44,3.84,9.2-3,1.89-.18,2.99-1.85,13.17-2.2-3.27-2.11-11.19-4.48,2.6-1.46.08-3.16-1.79-1.85,3.24-1,11.29-2.87-1.84.03-8.7-2.07-3.49-3.25.48-.79,3.68-3.32,9.74-1.82-12.47-3.59-1.81-1.46,3.16-2.03,5.82-3.2.04-5.53,1.43v2.54s-1.67-.04-1.67-.04l-2.11-1.73-3.56-3.64-.11-1.86-4.98-2.73,1,2.8-.04,1.61-4.95,1.36-2.29.53-.14-1.55-.34-3.75-5.44,3.14-1.92-.05.56-2.65-4.35-.78c-3.57-2.68-8.65-3.92-14.19-3.96l-.48,24.42,4.36.39,2.81-.39.05-3.88,1.47-3.66,5.95,1,.05,6.12,2.96.77,1.2-.67,1.44,5.68,5.97.53,9.61,5.23,8.39,4.23,2.1,4.57-.18,3.17-4.99.28-5.56-1.47-4.76-6.08-4.89,5.06-9.1,2.28-7.1,2.94-1.25-6.45-9.85.88-3.21.37,1.39-4.34-4.64-1.71-3.05,2.95.64,4.48-1.62,5.11,1.2,9.97,1.7,4.85-2.87,2.58-4.14,9.16-1.7,2.6-4.55-1.07-7.7,7.47,2.79,3.21,5.86,2.69-4.8,16.8-12.37-.83-.19,2.2,14.27.31-6.08,3.59-14,.21-3.66-5.51,7-10.7,4.31-5.54-24.15,17.73.21-6.58,1.1-20.54.03-72.78.63-4.86,1.87,6.18,1.73-.44,5.16-8.4,8.78-17.59,8.48.53.03-4.01,7.25,2.53-4.18-13.17-2.67-9.38.41-5.82-2.09,4.17-2.7.6.29-4.64-1.5-4.43-1.66-4.65,26.89-.39,13.14.05,6.57-.78,6.43,1.03,70.23.07c2.98,1.73,7.91,1.82,10.5.69l10.63-1.28Z"/>
      <polygon class="cls-7" points="174.66 215.99 167.58 216.4 157.52 215.29 136.31 214.54 128.28 213.77 90.98 213.11 87.35 207.17 68.06 179.75 66.17 175.95 72.39 176.1 83.46 173.35 86.4 176.55 88.99 180.78 96.19 180.75 101.48 180.72 111.11 171.66 117.04 167.64 130.44 166.79 136.43 169.13 144.04 171.08 152.69 183.2 153.97 188.33 144.9 194.97 152.4 195.27 157.72 192.41 162 194.97 167.19 203.41 175.2 197.51 177.19 199.27 174.67 210.92 174.66 215.99"/>
      <path class="cls-11" d="M61.43,139.48l-2.58,2.49c-3.29,5.68-4.53,12.69-2.17,18.4l1.47,4.05,3.18-1.1-2.39-3.55,1.1-15.94,3.21-.37.47,17.05,8.71.11,4.11-4.42,6.14,5.76,4.72-2.37-1.64-1.99c-2.63,1.48-5.66-.66-3.89-2.05l6.73-1.29-1.32-4.41-2.97-2.44-5.12,1.85-4.02,5.74-.81-5.97,7.1-2.94,9.1-2.28-.93,4.45,2.78,12.86,2.18-6.5,2.25-4.92,1.65,1.43.56,8.07,8.87,1.15,1.7-9.11,1.85-.02,1.71,11.5,2.85-10.87,2.94-2.51,2.15.26-2.71,4.58,3.02,6.83,8.91-.59-1.56,5.34-10.87-3.96c-2.73.96-4.62,1.36-9.25.83l-6.66,4.89-8.14,1.17-1.19-4.1-4.01-1.82-4.93,1.27-2.82,4.31c-3.35,1.98-9.49,2.06-13.59-1l-5.99-.72.53,5.19,4.33,4.16,1.9,3.8,19.29,27.42,3.63,5.94-3.45,3.01-51.12.58-2.22-2.87,6.08-3.59-14.27-.31.19-2.2,12.37.83,4.8-16.8-5.86-2.69-2.79-3.21,7.7-7.47,4.55,1.07,1.7-2.6,4.14-9.16,2.87-2.58-1.7-4.85-1.2-9.97,1.62-5.11-.64-4.48,3.05-2.95,4.64,1.71Z"/>
      <path class="cls-9" d="M157.61,99.09l5.89,1.63.67,8.53c.25,2.88.81,2.72,1.27-.02l2.36-8.99c1.06.09,4.84.42,4.25.36l-4.1,21.77-4.9.71-.19-4.03-3.62-7.8-2.6,12.21-5.69-.43-1.42-13.08-2.57-9.54,4.48-2.6,2.11,11.19,2.2,3.27,1.85-13.17Z"/>
      <polygon class="cls-9" points="145.51 100.48 142.17 118.21 140.66 122.97 138.45 123.65 136.17 121.58 132.94 109.04 130.78 120.48 127.3 123.87 124.37 120.41 123.91 117.06 122.19 108.55 120.35 101.97 121.81 98.81 125.41 100.62 127.23 113.09 130.55 103.35 131.34 99.67 134.6 99.2 136.67 102.68 136.63 111.39 139.5 113.23 140.5 101.94 142.35 98.69 145.51 100.48"/>
      <polygon class="cls-11" points="222.27 194.47 225.17 190.43 232.14 176.59 234.68 175.09 237.15 178.72 238.17 187.26 237.13 206.46 228.07 200.91 222.27 194.47"/>
      <polygon class="cls-11" points="224.72 204.74 232.42 216.06 223.58 216.66 216.71 214.28 206.89 213.05 208.28 209.57 219.59 200.09 221.33 204.79 224.72 204.74"/>
      <path class="cls-10" d="M98.12,106.2l4.13.19,3.56,3.64.11,5.13-7.73.73c-1.34-.76-.83,3.82.35,4l7.01-2.76-2.67,6.06-8.28-.87-2.22-2.97.8-11.8,4.95-1.36Z"/>
      <path class="cls-2" d="M156.67,158.28l-3.51,3.23-5.87-3.37,8.09-1.82-7.79-3.36-.51-7.86,5.05-3.37c3.18,1.37,6.33,5.08,7.57,8.76l-3.03,7.79ZM154.66,150.22c1.36-6.46-5.55-6.46-4.19,0h4.19Z"/>
      <polygon class="cls-11" points="182.1 141.83 186.47 154.71 183.28 161.89 184.62 164.63 183.23 167.81 177.83 163.19 178.25 161.1 180.31 158.46 182.36 155.81 179.6 153.65 179.43 145.2 176.72 143.41 177.7 140.53 182.1 141.83"/>
      <polygon class="cls-11" points="147.08 145.1 147.59 152.96 155.38 156.32 147.29 158.14 153.16 161.5 156.67 158.28 158.37 160.61 152.6 164.16 147.03 162.28 142.85 163.11 139.06 159.82 138.33 150.31 140.94 150.03 142.51 160.56 143.14 143.35 147.08 145.1"/>
      <rect class="cls-10" x="165.3" y="108.94" width="24.5" height="4.17" transform="translate(66.3 288.44) rotate(-89.93)"/>
      <polygon class="cls-2" points="129.96 158.47 130.31 160.4 121.4 161 118.38 154.17 121.09 149.6 122.33 147.31 132.95 151.46 124.91 156.36 124.63 158.57 129.11 156.73 129.96 158.47"/>
      <polygon class="cls-11" points="150.95 123.02 148.97 119.63 145.57 112.81 144.13 121.98 140.66 122.97 142.17 118.21 145.51 100.48 146.97 100.4 149.54 109.94 150.95 123.02"/>
      <polygon class="cls-5" points="123.91 117.06 119.57 117.06 109.87 117.82 109.78 116.2 119.54 112.83 109.57 111.8 109.59 109.26 115.12 107.83 118.32 107.79 120.35 101.97 122.19 108.55 123.91 117.06"/>
      <path class="cls-10" d="M178.25,161.1l-1.85-3.97-7.1-.58,2.61-7.41,1.21-.75,3.6-4.97,2.71,1.79.17,8.45,2.76,2.17-2.05,2.65-2.06,2.64ZM174.23,149.58l-.78.9-.87,3.65,3.13.57,2.14-4.61-3.63-.51Z"/>
      <polygon class="cls-11" points="93.16 107.56 92.36 119.36 89.55 118.86 88.11 123.13 85.84 123.51 86 112.23 90.87 108.09 93.16 107.56"/>
      <path class="cls-10" d="M96.82,149.69l-2.25,4.92-2.18,6.5-2.78-12.86.93-4.45,6.34-1.84-2.09,4.79c1.12,1.64,3.38,4.93,2.02,2.94Z"/>
      <polygon class="cls-9" points="84.95 105.94 90.73 106.55 90.87 108.09 86 112.23 85.84 123.51 83.42 122.6 82.22 123.27 81.71 108.14 83.03 105.88 84.95 105.94"/>
      <path class="cls-4" d="M167.13,157.39c.51,2.51-2.76,5.1-3.05.69l-.07-9.19-3.96-3.59,6.29-2.79.79,14.88Z"/>
      <polygon class="cls-2" points="184.62 164.63 183.28 161.89 186.47 154.71 182.1 141.83 186.04 142.66 187.89 146.34 188.09 161.84 184.62 164.63"/>
      <polygon class="cls-11" points="129.96 158.47 129.11 156.73 124.63 158.57 124.91 156.36 132.95 151.46 122.33 147.31 126.47 144.64 133.79 150.97 132.71 158.7 129.96 158.47"/>
      <polygon class="cls-10" points="118.95 149.33 116.01 151.85 113.16 162.72 111.45 151.21 111.69 149.36 118.95 149.33"/>
      <polygon class="cls-9" points="143.14 143.35 142.51 160.56 140.94 150.03 137.78 145.96 143.14 143.35"/>
      <polygon class="cls-2" points="225.62 60.36 219.98 64.22 215.88 57.77 220.79 59.45 224.46 57.35 225.62 60.36"/>
      <path class="cls-7" d="M167.8,100.24l-2.36,8.99c-.46,2.73-1.02,2.9-1.27.02l-.67-8.53,4.3-.48Z"/>
      <polygon class="cls-5" points="203.12 44.67 202.08 46.54 195.68 47.29 195.56 43.01 199.62 42.52 203.12 44.67"/>
      <polygon class="cls-7" points="195.56 43.01 195.68 47.29 189.89 46.83 188.84 44.11 189.14 43.45 191.18 42.62 195.56 43.01"/>
      <path class="cls-5" d="M107.92,111.75l-.3,3.82-2.08,1.56-7.01,2.76c-1.18-.19-1.69-4.77-.35-4l7.73-.73-.11-5.13,2.11,1.73Z"/>
      <polygon class="cls-9" points="108.56 151.42 109.6 151.23 107.9 160.34 99.03 159.19 98.47 151.12 99.68 151.33 103.86 160.91 108.56 151.42"/>
      <polygon class="cls-9" points="108.56 151.42 99.68 151.33 104 148.35 108.56 151.42"/>
      <circle class="cls-7" cx="165.64" cy="95.19" r="2.09"/>
      <polygon class="cls-5" points="189.89 46.83 188.01 45.78 188.84 44.11 189.89 46.83"/>
      <polygon class="cls-7" points="213.27 55.98 214.92 56.91 213.27 57.84 212.33 56.91 213.27 55.98"/>
      <path class="cls-7" d="M217.82,52.5l2.81-2.21-2.81,2.21Z"/>
      <polygon class="cls-7" points="15.28 210.97 16.22 211.9 16.22 213.77 15.28 214.7 14.35 213.77 14.35 211.9 15.28 210.97"/>
      <polygon class="cls-6" points="31.68 81.57 30.5 79.08 21.47 65.96 26.05 64.59 20.96 62.31 27.69 60.5 30.39 59.9 32.49 55.73 32.08 61.55 34.75 70.93 38.93 84.11 31.68 81.57"/>
      <polygon class="cls-9" points="27.98 55.86 27.69 60.5 20.96 62.31 19.15 59.38 21.55 55.56 24.39 58.08 27.98 55.86"/>
      <polygon class="cls-7" points="38.64 41.18 38.48 44.77 25.85 44.76 24.86 40.63 38.64 41.18"/>
      <circle class="cls-1" cx="200.72" cy="16.31" r="2.97"/>
      <rect class="cls-4" x="43.13" y="12.37" width="6.86" height="5.57" transform="translate(23.43 58.32) rotate(-79.84)"/>
      <path class="cls-9" d="M46.74,8.03c-.2,2.12-.11,1.2.09-.97.4-4.39.36-3.96-.09.97Z"/>
      <path class="cls-2" d="M74.34,149.02l.81,5.97,4.02-5.74,5.12-1.85,2.97,2.44,1.32,4.41-6.73,1.29c-1.77,1.4,1.26,3.53,3.89,2.05l1.64,1.99-4.72,2.37-6.14-5.76-4.11,4.42-8.71-.11-.47-17.05,9.85-.88,1.25,6.45ZM70.6,147.48c0-1.15-.93-2.09-2.09-2.09s-2.09.93-2.09,2.09.93,2.09,2.09,2.09,2.09-.93,2.09-2.09ZM83.13,152.35c-4.39-.42-4.05-.38.82.08,2,.2,1.25.12-.82-.08ZM72.77,153.54l-6.69.4c1.17,4.43,5.93,4.4,6.69-.4Z"/>
      <path class="cls-9" d="M79.25,102.46l.28,8.23-9.84,4.28-.75,8.34-4.36-.39.48-24.42c5.53.04,10.62,1.28,14.19,3.96ZM69.19,102.58l-.03,7.28,5.9.02.03-7.28-5.9-.02Z"/>
      <polygon class="cls-11" points="83.03 105.88 81.71 108.14 82.22 123.27 79.26 122.5 79.21 116.38 73.26 115.37 71.8 119.04 71.75 122.91 68.94 123.31 69.69 114.97 79.53 110.68 79.25 102.46 83.59 103.23 83.03 105.88"/>
      <polygon class="cls-11" points="90.73 106.55 84.95 105.94 90.39 102.8 90.73 106.55"/>
      <polygon class="cls-11" points="102.14 104.52 98.16 104.59 97.16 101.79 102.14 104.52"/>
      <polygon class="cls-8" points="102.14 104.52 102.25 106.38 98.12 106.2 98.16 104.59 102.14 104.52"/>
      <path class="cls-2" d="M60.04,143.82l-1.1,15.94,2.39,3.55-3.18,1.1-1.47-4.05c-2.36-5.71-1.12-12.72,2.17-18.4l2.58-2.49-1.39,4.34Z"/>
      <path class="cls-3" d="M154.66,150.22h-4.19c-1.36-6.46,5.55-6.46,4.19,0Z"/>
      <path class="cls-5" d="M72.77,153.54c-.76,4.79-5.53,4.83-6.69.4l6.69-.4Z"/>
      <circle class="cls-5" cx="68.51" cy="147.48" r="2.09"/>
      <path class="cls-11" d="M83.94,152.43c2,.2,1.25.12-.82-.08-4.39-.42-4.05-.38.82.08Z"/>
      <rect class="cls-8" x="68.48" y="103.28" width="7.28" height="5.9" transform="translate(-34.38 177.94) rotate(-89.78)"/>
    </g>
  </g>
</svg>