<?xml version="1.0" encoding="UTF-8"?>
<svg id="Layer_2" data-name="Layer 2" xmlns="http://www.w3.org/2000/svg" viewBox="0 0 239.55 220.63">
  <defs>
    <style>
      .cls-1 {
        fill: #4b888b;
      }

      .cls-2 {
        fill: #c9c9ca;
      }

      .cls-3 {
        fill: #d9d9de;
      }

      .cls-4 {
        fill: #2e3447;
      }

      .cls-5 {
        fill: #3e465d;
      }

      .cls-6 {
        fill: #697388;
      }

      .cls-7 {
        fill: #c6ccd7;
      }

      .cls-8 {
        fill: #629797;
      }

      .cls-9 {
        fill: #f0f0f2;
      }

      .cls-10 {
        fill: #dfe0e2;
      }

      .cls-11 {
        fill: #4f5872;
      }
    </style>
  </defs>
  <g id="Layer_1-2" data-name="Layer 1">
    <g>
      <path class="cls-3" d="M198.73,11.89l.42-7.96-.42,7.96Z"/>
      <path class="cls-1" d="M237.45,43.24l-1.83,2.49-.27,18.1-1.66,10.19,1.06,19.48.07,25.93.29,34.06.92,6.36-1.78,12.19,1.53,24.34-.74,11.34-10.71-7.54-7.88-5.62,5.93,11.88,1.79,7.93-16.57.09-.6-3.86-5.6,4.71-33.14.38-5.55-.04-36.82-1.03-37.98-1.71-8.16,2.24-38.54.65-28.5-.48,11.22-17.7,2.8-5.55-15.54,11.85-6.75,4.23-.55-46.9-3.6-.87-.27-5.5,3.9.26v-29.46s-3.23-.76-3.23-.76l.37-75.76.7-3.12,2.21-1.15,1.29,4.57,5.25,3.11,1.16-2.09c.04-.53-.24-.68,5.07-.95l2.85-6.34,1.35-.57.97,8.63-1.44,5.93-3.98-.2,4.21,6.71v5.34s9.07,13.69,9.07,13.69l6.26,9.51,4.67,1.01,4.85-10.26,10.83-28.25,5.99-7.31,7.59,6.28,11.08,7.48,16.28,10.06,21.91,14.16,15.67-4.3,33.65-9.24,1.7-10.51,5.85-.82-.66,8.67,5.73-1.57,15.14-9.43,6.96-4.54,10.21-4.59,2.1,4.59,2.44-4.37-.57-5.82,1.71-1.92,3.02,1.87,15.28-.18ZM11.58,54.26l3.03-1.5-3.03,1.5ZM217.75,59.52l-5.23-1.24,3.29,5.73,5.65-1.77-.02-4.69-3.69,1.97ZM34.71,111.68c10.81.75,9.14-5.1,9.72-9.67-2.96-3.11-5.21-4.08-11.13-6.12l-3.12,4.25-.18,20.69h4.05s.66-9.16.66-9.16ZM144.76,101.06l6.87.6,2.75,3.12,2.26-4.65-9.77-3.69-6.62,5.61c.04,6.08.53,10.98,1.99,17.29,5.99,1.95,8.29,1.65,13.59-.78l-2.07-4.95-5.11,3.63-4.04-2.51.14-13.67ZM162.88,99.33c0-1.15-.93-2.09-2.09-2.09s-2.09.93-2.09,2.09.93,2.09,2.09,2.09,2.09-.93,2.09-2.09ZM175.33,98.26l-3.54.99-3.39,1.17-3.97,5.07-5.59-1.71.06,16,3.76.09,2.94.03,1.31-2.99,7.43,4.44,3.43-1.08,3.56-.65v-14.54s-3.73-.16-3.73-.16l-.06-3.76,3.24.02-.02-4.33-5.42,1.4ZM72.39,119.72l4.26-.16,5.76,1.83,1.46-2.26-4.21-6.01,1.45-4.91,4.24-1.56,1.82,10.13,4.13,5.04,4.98-8.19,2.39,6.51-1.46,3.54,3.85-.79-.15-3.21,1.42-.04,6.28.28,1.76-.32.16,4.01h16.36s.31-1.83.31-1.83l-.21-3.76,2-3.68,1.75-6.17,1.25-1.53-.11-1.95-4.46.14-3.99-.21-5.61.11h-9.17s-.19,5.65-.19,5.65l-3.63.37,1.47-6.51-3.87-.36-1.32,4.84-1.26,4.6-2.75-9.46-3.75.37-2.53,7.65-2.34-7.08c-4.23.12-6.43-.49-8.79-3.86l-1.84-.57-5.35,6.2-5.82-3.45-5.85,4.88,6.89,8.06c.96,1.28,1.25,2.38-4.5.76.01-1.88-.16-.11-.52,4.35l9.7-1.45ZM55.62,121.34c3.96-5.44,4.24-9.54,1.96-15.98l-8.98-1.74c-2.45,5.03-2.95,8.04-2.71,14.91l9.73,2.81ZM209.37,105.85l-3.32-3.15-5.94,2.87-.05,6.34,5.79,2.08c.7-.29.98,4.29.17,3.95l-2.19,1.39h5.98c.35-1.82,1.23-6.47,1.19-6.27l-9.23-4.61,6.54-1.95,1.06-.66ZM187.35,115.3l10.46-1.99-1.45-7.84-8.62-1.13-4.52,8.83,6.57,8.47,7.88-4.15-10.33-2.2ZM209.78,108.28l.96-1.07-.96,1.07ZM200.52,116.96l2.37.11-2.37-.11ZM55.82,161.74l-.62-7.89v-8.21s.62-7.89.62-7.89l-4.74,7.33v9.34s4.74,7.33,4.74,7.33ZM183.03,142.05l-3.92,3.19-6.06.1-1.32,3.55,2.21,3.65-2.25,3.57,2.25,2.16.04,2.74,6.96-.24,4.83.71,2.72-15.84-4.15-7.66-1.32,4.07ZM62.31,157.23l2.74.02-.17-16.87-7.22,2.64,4.61,2.51.04,11.69ZM80.84,151.08l.94,3.18,6.16-.3c.43,4.23,3.53,4.78,4.58-.79l4.32,3.61c1.87,1.17,6.07,1.02,8.22-.24,2.15-3.72,1.19-9.08-1.48-10.07-3.57-1.95-5.29-2.94-3.51-2.04l7.43-3.82-11.07-.65-.38,10.33,6.16-1.25,1.11,5.24-2.97.9-4.16-2.27c-2.83-.35-5.41-5.02-4.82-8.74l-2.06-4.27-8.49,8.88-5.39-10.76-8.23,6.55,2.87,6.74,5.62.96-1.75,3.09-4.07-1.41-2.06,2.27,5.71,2.22,4.42-3.48,2.88-3.88ZM128.77,157.08l6.59,3.25,3.95-.46,8.32-2.9,3.22-.51,4.99-15.17-6.65-1.5-3.55,2.22-2.51.34-7.96-2.78-1.95,8.11-3.84.48.47-4.48-1.58-3.52-4.73,2.46,2.64,3.2.36,8.06,2.24,3.22ZM170.76,149.94l-2.71-8.96-9.25-1.15-1.51,16.1,9.24,2.65,4.23-8.64ZM121.69,151.25l-1.04-1.63-12.42.49,1.18,1.62,12.27-.48Z"/>
      <polygon class="cls-8" points="51.38 43.02 56.1 42.79 123.93 44.24 147.18 44.55 181.39 43.88 186.32 43.07 191.12 43.68 217.45 43.47 218.01 49.29 215.57 53.66 213.47 49.07 203.26 53.66 196.29 58.19 181.15 67.62 175.43 69.19 176.09 60.52 170.24 61.33 168.54 71.84 134.89 81.08 119.22 85.39 97.32 71.22 81.04 61.17 69.96 53.68 62.37 47.41 56.39 54.72 45.55 82.97 40.7 93.23 36.03 92.22 29.76 82.71 20.68 69.03 20.69 63.68 25.51 62.09 25.08 57.99 21.89 51.24 20.92 42.61 23.21 42.5 51.38 43.02"/>
      <polygon class="cls-5" points="1.81 209.32 4.43 208.13 11.17 203.9 26.71 192.05 23.91 197.6 12.69 215.3 41.2 215.78 79.74 215.13 87.9 212.89 125.88 214.6 162.7 215.63 168.25 215.67 201.39 215.29 206.99 210.58 207.59 214.44 224.16 214.35 222.37 206.42 216.43 194.54 224.32 200.16 235.03 207.7 235.77 196.36 234.24 172.02 236.02 159.83 237.55 157.16 239.12 155.79 239.38 211.61 230.14 220.11 212.98 220.63 91.75 220.5 11.25 219.74 2.72 212.37 1.81 209.32"/>
      <polygon class="cls-4" points="239.23 109.08 236.64 112.26 239.31 118.03 239.12 155.79 237.55 157.16 236.02 159.83 235.1 153.48 234.81 119.42 234.74 93.49 233.68 74.02 235.35 63.83 235.61 45.73 237.45 43.24 239.55 44.77 238.75 62.04 238.24 101.2 239.23 109.08"/>
      <path class="cls-5" d="M43.15.83l2.26,9.29,1.68,6.84c4.15,8.89,6.99,17.13,9.01,25.82l-4.72.23-1.54-12.97-4.53-8.79-4.97,3.25-4.35-2.91-1.85.48-9.14,14.63-1.78,5.78-2.29.11-1.35.57,6.46-15.06,7.03-10.48,2.29-6.28L39.49.5l3.67.33ZM40.32,6.06q0-2.3,0,0,0,4.4,0,0ZM43,16.85c0-1.65-1.34-2.99-2.99-2.99s-2.99,1.34-2.99,2.99,1.34,2.99,2.99,2.99,2.99-1.34,2.99-2.99Z"/>
      <path class="cls-5" d="M219.15,41.55l-1.71,1.92-13-22.11-3.8,3.66-5.9-2.8-5.65,18.94,2.03,2.52-4.8-.61,2.05-11.23,4.41-12.94,2.5-7.41.12-8.23,5.7-3.26,2.94,11.34,1.63,5.89,8.92,15.06,4.56,9.26ZM198.73,11.89l.42-7.96-.42,7.96ZM202.48,16.9c0-1.75-1.42-3.16-3.16-3.16s-3.16,1.42-3.16,3.16,1.42,3.16,3.16,3.16,3.16-1.42,3.16-3.16Z"/>
      <polygon class="cls-4" points="4.43 208.13 1.81 209.32 1.92 193.4 .01 189.22 .27 160.36 3.88 161.23 4.43 208.13"/>
      <path class="cls-4" d="M0,154.86l1.02-10.13.78-9.86c-.8-3.43-1.17-6.67-1.14-9.96l3.23.76v29.46s-3.89-.26-3.89-.26Z"/>
      <path class="cls-8" d="M19.57,43.18l-2.85,6.34c-5.3.27-5.03.42-5.07.95l2.97,2.29-3.03,1.5-1.09-1.7-5.25-3.11-1.29-4.57,3.3-2.71,12.32,1.02Z"/>
      <polygon class="cls-5" points="239.31 118.03 236.64 112.26 239.23 109.08 239.31 118.03"/>
      <path class="cls-10" d="M104.83,110.74l-2.5,8.89-1.42.04-2.24.46-2.39-6.51-4.98,8.19-4.13-5.04-1.82-10.13-4.24,1.56-1.45,4.91,4.21,6.01-1.46,2.26-5.76-1.83-.53-10.67-1.99-1.87-4.71,2.73c-2.72-.83-2.16-.63.92.38l2.05,9.6-9.7,1.45c.37-4.46.54-6.23.52-4.35,5.76,1.62,5.46.52,4.5-.76l-6.89-8.06,5.85-4.88,5.82,3.45,5.35-6.2,1.84.57c2.36,3.37,4.56,3.98,8.79,3.86l2.34,7.08,2.53-7.65,3.75-.37,2.75,9.46,1.26-4.6,1.32-4.84,3.87.36-1.47,6.51Z"/>
      <path class="cls-10" d="M80.84,151.08v-2.3s8.48-8.88,8.48-8.88l2.06,4.27c-.59,3.72,1.99,8.39,4.82,8.74l4.16,2.27,2.97-.9-1.11-5.24-6.16,1.25.38-10.33,11.07.65-7.43,3.82c-1.79-.9-.06.09,3.51,2.04,2.67,1,3.63,6.36,1.48,10.07-2.16,1.25-6.35,1.4-8.22.24l-4.32-3.61c-1.05,5.56-4.14,5.02-4.58.79l-6.16.3-.94-3.18ZM90.63,147.46l-4.66-.87-1.4,4.21,3.55.13,2.5-3.46Z"/>
      <path class="cls-10" d="M34.71,111.68l-.66,9.14h-4.05s.18-20.68.18-20.68l3.12-4.25c5.92,2.04,8.17,3.01,11.13,6.12-.58,4.57,1.1,10.42-9.72,9.67ZM34.77,101.12l-.36,6.68,4.8.26.36-6.68-4.8-.26Z"/>
      <path class="cls-3" d="M55.62,121.34l-9.73-2.81c-.24-6.87.27-9.89,2.71-14.91l8.98,1.74c2.28,6.44,2,10.54-1.96,15.98ZM54.5,112.4c.17-4.92-4.25-4.92-4.07,0-.17,4.92,4.25,4.92,4.07,0Z"/>
      <path class="cls-9" d="M144.76,101.06l-.14,13.67,4.04,2.51,5.11-3.63,2.07,4.95c-5.3,2.43-7.6,2.73-13.59.78-1.46-6.3-1.96-11.21-1.99-17.29l6.62-5.61,9.77,3.69-2.26,4.65-2.75-3.12-6.87-.6Z"/>
      <path class="cls-10" d="M117.83,104.71l1.91,2.71-.27,13.71-9.09-1.54-1.76.32-2.14-3.44,1.99-6.1.19-5.66h9.17ZM109.26,109.5l6.73.48-6.73-.48ZM116.49,115.2l-3.51-1.06-.81,4.21,4.31-3.15Z"/>
      <path class="cls-9" d="M187.35,115.3l10.33,2.2-7.88,4.15-6.57-8.47,4.52-8.83,8.62,1.13,1.45,7.84-10.46,1.99ZM192.76,108.66c0-1.15-.93-2.09-2.09-2.09s-2.09.93-2.09,2.09.93,2.09,2.09,2.09,2.09-.93,2.09-2.09Z"/>
      <polygon class="cls-3" points="171.79 99.25 171.53 102.63 175.34 105.68 170.71 111.47 174.09 117.88 174.34 121.36 166.91 116.92 166.53 108.52 164.43 105.5 168.4 100.43 171.79 99.25"/>
      <path class="cls-10" d="M170.76,149.94l-4.23,8.64-9.24-2.65,1.51-16.1,9.25,1.15,2.71,8.96ZM164.44,157.25l2.17-13.67-4.91-1.42-2.34,4.43,5.08,10.67Z"/>
      <path class="cls-3" d="M143.13,142.33l.98,7.51-2.17,7.12-8.66.48c-1.01-4.61,1.06-5.16,3.51-1.77l4.51-3.23-6.87-1.43-1.2-3.35,1.95-8.11,7.96,2.78ZM140.46,146.01c0-1.15-.93-2.09-2.09-2.09s-2.09.93-2.09,2.09.93,2.09,2.09,2.09,2.09-.93,2.09-2.09Z"/>
      <path class="cls-3" d="M80.83,148.79v2.3s-2.87,3.88-2.87,3.88l-4.42,3.48-5.71-2.22,2.06-2.27,4.07,1.41,1.75-3.09-5.62-.96-2.87-6.74,8.23-6.55,5.39,10.76ZM76.45,145.61c0-1.55-1.26-2.8-2.8-2.8s-2.8,1.26-2.8,2.8,1.26,2.8,2.8,2.8,2.8-1.26,2.8-2.8Z"/>
      <path class="cls-11" d="M123.44,104.61l-.15,15.13c-.31.79-.95,2.41-.72,1.81l4.62.22-.31,1.83h-16.36s-.16-4.01-.16-4.01l9.09,1.54.27-13.71-1.91-2.71,5.61-.11Z"/>
      <path class="cls-10" d="M179.11,145.24l.34,4.29c-5.01-1.22-4.48-1.09-1.48-.36l3.01,3.63.58,4.56-2.88,1.5-4.74-.58-2.25-2.16,2.25-3.57-2.21-3.65,1.32-3.55,6.06-.1Z"/>
      <polygon class="cls-10" points="180.95 160.77 181.56 157.35 185.91 147.96 183.03 142.05 184.35 137.98 188.5 145.65 185.78 161.48 180.95 160.77"/>
      <path class="cls-11" d="M147.64,156.97l-8.32,2.9-3.95.46-6.59-3.25,1.09-5.56-.48-3.37,3.84-.48,1.2,3.35,6.87,1.43-4.51,3.23c-2.45-3.39-4.52-2.83-3.51,1.77l8.66-.48,2.17-7.12-.98-7.51,2.51-.34.84,1.7,4.19-1.6.6,3.73-3.63,11.14Z"/>
      <polygon class="cls-11" points="175.33 98.26 177.54 101.17 177.6 104.93 177.77 120.28 174.34 121.36 174.09 117.88 170.71 111.47 175.34 105.68 171.53 102.63 171.79 99.25 175.33 98.26"/>
      <path class="cls-9" d="M206.01,117.95c.81.34.53-4.24-.17-3.95l-5.79-2.08.05-6.34,5.94-2.87,3.32,3.15,1.37,1.36-.96,1.07-1.47-1.78-6.54,1.95,9.23,4.61c.04-.2-.85,4.44-1.19,6.27h-5.98s-3.3-2.37-3.3-2.37l2.37.11,3.12.88Z"/>
      <polygon class="cls-9" points="130.75 108.16 127.25 108.9 126.99 118.01 127.2 121.77 122.58 121.55 123.3 119.74 123.44 104.61 127.43 104.81 131.89 104.67 132 106.62 130.75 108.16"/>
      <polygon class="cls-10" points="55.82 161.74 51.08 154.41 51.08 145.08 55.82 137.75 55.2 145.64 55.2 153.85 55.82 161.74"/>
      <polygon class="cls-3" points="62.31 157.23 62.27 145.54 57.66 143.02 64.88 140.38 65.05 157.25 62.31 157.23"/>
      <polygon class="cls-10" points="147.64 156.97 151.27 145.83 150.67 142.09 146.48 143.7 145.64 142 149.19 139.78 155.85 141.28 150.86 156.45 147.64 156.97"/>
      <polygon class="cls-11" points="180.95 160.77 173.99 161.01 173.95 158.27 178.68 158.85 181.56 157.35 180.95 160.77"/>
      <path class="cls-11" d="M181.56,157.35l-.58-4.56-3.01-3.63c-3-.73-3.53-.86,1.48.36l-.34-4.29,3.92-3.19,2.88,5.91-4.34,9.39Z"/>
      <polygon class="cls-9" points="177.77 120.28 177.6 104.93 181.33 105.09 181.33 119.63 177.77 120.28"/>
      <polygon class="cls-5" points="76.65 119.56 72.39 119.72 70.34 110.12 69.42 109.74 74.13 107.02 76.12 108.89 76.65 119.56"/>
      <polygon class="cls-7" points="20.46 57.17 25.08 57.99 25.51 62.09 20.69 63.68 16.48 56.98 20.46 57.17"/>
      <polygon class="cls-5" points="166.53 108.52 166.91 116.92 165.6 119.91 162.66 119.88 162.66 108.8 166.53 108.52"/>
      <polygon class="cls-10" points="217.75 59.52 221.43 57.55 221.46 62.24 215.81 64.01 212.52 58.28 217.75 59.52"/>
      <polygon class="cls-11" points="108.47 110.37 106.48 116.47 108.62 119.91 102.34 119.63 104.83 110.74 108.47 110.37"/>
      <polygon class="cls-9" points="121.69 151.25 109.41 151.73 108.23 150.12 120.65 149.62 121.69 151.25"/>
      <polygon class="cls-10" points="177.54 101.17 175.33 98.26 180.76 96.86 180.78 101.19 177.54 101.17"/>
      <polygon class="cls-11" points="130.75 108.16 128.99 114.33 126.99 118.01 127.25 108.9 130.75 108.16"/>
      <polygon class="cls-4" points="25.08 57.99 20.46 57.17 21.89 51.24 25.08 57.99"/>
      <circle class="cls-9" cx="160.79" cy="99.33" r="2.09"/>
      <polygon class="cls-11" points="98.68 120.12 100.92 119.67 101.07 122.87 97.22 123.66 98.68 120.12"/>
      <circle class="cls-2" cx="40.01" cy="16.85" r="2.99"/>
      <circle class="cls-2" cx="199.32" cy="16.9" r="3.16"/>
      <polygon class="cls-6" points="90.63 147.46 88.13 150.93 84.57 150.8 85.97 146.59 90.63 147.46"/>
      <rect class="cls-1" x="33.65" y="102.19" width="6.69" height="4.8" transform="translate(-69.43 135.92) rotate(-86.93)"/>
      <path class="cls-5" d="M54.5,112.4c.17,4.92-4.25,4.92-4.07,0-.17-4.92,4.25-4.92,4.07,0Z"/>
      <polygon class="cls-11" points="116.49 115.2 112.17 118.35 112.98 114.14 116.49 115.2"/>
      <path class="cls-1" d="M115.98,109.99l-6.73-.48,6.73.48Z"/>
      <circle class="cls-1" cx="190.67" cy="108.66" r="2.09"/>
      <polygon class="cls-11" points="164.44 157.25 159.36 146.59 161.7 142.16 166.61 143.58 164.44 157.25"/>
      <path class="cls-1" d="M70.34,110.12c-3.09-1.01-3.64-1.2-.92-.38l.92.38Z"/>
      <circle class="cls-5" cx="138.38" cy="146.01" r="2.09"/>
      <circle class="cls-5" cx="73.64" cy="145.61" r="2.8"/>
      <path class="cls-1" d="M122.58,121.55c-.24.6.4-1.02.72-1.81l-.72,1.81Z"/>
    </g>
  </g>
</svg>