<?xml version="1.0" encoding="UTF-8"?>
<svg id="Layer_2" data-name="Layer 2" xmlns="http://www.w3.org/2000/svg" viewBox="0 0 276.45 108.82">
  <defs>
    <style>
      .cls-1 {
        fill: #4b888b;
      }

      .cls-2 {
        fill: #979aab;
      }

      .cls-3 {
        fill: #3e465d;
      }

      .cls-4 {
        fill: #629797;
      }

      .cls-5 {
        fill: #f0f0f2;
      }

      .cls-6 {
        fill: #dfe0e2;
      }

      .cls-7 {
        fill: #4f5872;
      }
    </style>
  </defs>
  <g id="Layer_1-2" data-name="Layer 1">
    <g>
      <path class="cls-1" d="M251.46,32.41l-3.68,12.15-3.21,20.86-1.84,11.16-.58,11.21-.87,2.17-30.05-2.17-9.73-1.87h-72.8s-.35-2.79-.35-2.79l5.05-2.06-6.06-1.43,4.67-9.05,5.29-7.62-3.66-3.76c.04.11-.9-2.35-.96-3.62l8.04-.31.15-12.44,2.65.1.22,13.33,3.08-2.22.12-10.71,3.93-1.21.67-2.51,3.09-2.28,3.8-6.02,4.35-1.46,6.59-7.79,10.73-11.74,5.38-6.81-52.87.69-48.72-.46-.02-1.83h35.74s2.22-1.91,2.22-1.91l23.01.16,4.13,2.08,20.89-.85,35.4.23,34.19,1.59,20.32.32-1.86,5.79-5.49,17.88-.96,5.2ZM162.72,52.52l-.04-17,5.39,1.17,5.66,1.94-6.31-8.27-8.57,4.27-.04,16.48,4.73,4.62,6.35-1.08,2.08-3.39-1.34-3.36-7.91,4.61ZM179.34,30.9l-5.54,2.05,4.39,2.97,1.16-5.02ZM188.19,34.22l-1.9-.49-3.34.86-3.71,4.86-4.68-1.56.42,17.31,3.19-.06,4.25,2.07,7.59.49,2.2-.82,1.88-.04,9.49.97,8.86-.6,5.2,1.76,2.8-5.26c-.22-3.16-1.46-6.81-3.42-8.66-1.77-2.06-3.36-3.91-2.62-3.05l5.01.89.81-3.5v-3.4s-6.09.09-6.09.09c-2.87,1.25-6.7,1.05-10.74-.42l-3.74,2.42-1.92-.97.34-4.51-4.01-1.2-4.57.13-1.31,2.71Z"/>
      <path class="cls-4" d="M22.23,3.54l.21,3.13,3.57.57,30.53,12.78,5.58-4.22,12.4-2.93,17.42-4.57,10.81-2.32,29.86-1.78,52.87-.69-5.38,6.81-10.73,11.74-6.59,7.79-4.35,1.46-3.8,6.02-3.09,2.28-7.34-1.01-.68,4.34-2.65-.1-4.37-5.54c-3.11,1.86-5.28,3.43-5.92,5.67l-2.46-.03.34-4.54-3.53-.12-.74,9.04-3.07-6.81-2.76-2.02-1.6,5.51c.24,2.76-.27,3.22-1.15.31l-2.68-4.17-7.35-4.39-1.95-1.12c-2.11,2.96-4.3,6.03-3.23,4.53l-10.41-.42-2.76,3.04-6.56-4.4-5.68,6.81-1.32.63.38-10.54-5.02-3.56c-.18-.36-1.33-2.6-1.2-2.33l-6.1-4.53-3.35-2.06-2.58,3.69-2.2,9.92-4.34,12.39-6.63,25.12-2.38,8.59-1.4,3.64,3.67,2.11,13.81-1.59,3.29,2.56-8.08-.98-2.63,1.85-7.46.6-2.63-.77-1.82.73-1.03-1.9-.13-3.81-8.78-51.01-1.66-4.4-3.74-12.64-4.12-11.34,4.69-1.02Z"/>
      <path class="cls-3" d="M109.98,84.62l7.59.93,11.12.38h72.8s9.73,1.87,9.73,1.87l30.05,2.17-5.74,3.92-13.38,8.69-6.81,1.78,25.41.82,7.38-.8.1,3.98h-35.45s-2.18-18.68-2.18-18.68l-83.67-.2-44.92-.77-14.96.39-1.93,19.33-35.91.41-29.21-.74.42-3.46,1.97-.81,4.89.87,54.73-.04-11.65-5.67-10.07-6.1-3.28-3.19,1.82-.73,2.63.77,7.46-.6,2.63-1.85,8.08.98,5.52-.51,5.91-1.34c4.54-.69,8.57-2,12.58-4.87l14.18-1.35-9.34,3.7,21.5.75Z"/>
      <polygon class="cls-1" points="17.94 33.04 21.84 35.41 23.86 38.24 22.18 61.8 26.69 68.4 31.23 70.55 31.1 76.63 32.93 84.88 35.97 87.77 37.01 89.68 40.29 92.87 50.35 98.97 62 104.63 7.27 104.67 2.38 103.81 3.27 100.86 7.03 99.73 16.27 81.09 14.53 78.75 18.74 70.82 16 65.88 7.82 46.59 1.93 32.97 17.94 33.04"/>
      <polygon class="cls-7" points="268.95 35.53 270.75 37.17 268 44.01 264.29 53.35 259.17 65.48 256.75 68.39 258.39 73.74 263 81.99 264.78 87.62 268.21 94.25 270.77 100.87 272.35 108.04 248.22 108.35 248.12 104.37 240.74 105.17 215.33 104.34 222.15 102.56 235.53 93.87 241.26 89.96 242.14 87.78 244.38 86.89 246 83.43 247.34 70.22 255.4 67.05 255.1 57.41 251.78 35.65 261.49 34.65 268.95 35.53"/>
      <polygon class="cls-2" points="67.05 1.65 68.45 3.86 83.88 3.75 132.61 4.21 102.75 5.99 91.94 8.3 74.52 12.88 62.12 15.81 56.54 20.02 26.01 7.24 22.44 6.67 22.23 3.54 50.26 2.35 67.05 1.65"/>
      <polygon class="cls-3" points="272.35 108.04 270.77 100.87 268.21 94.25 264.78 87.62 263 81.99 258.39 73.74 256.75 68.39 259.17 65.48 264.29 53.35 268 44.01 270.75 37.17 268.95 35.53 261.49 34.65 251.78 35.65 255.1 57.41 255.4 67.05 247.34 70.22 246 83.43 244.38 86.89 242.14 87.78 242.72 76.57 244.57 65.42 247.78 44.56 251.46 32.41 261.81 33 270.75 33.75 274.52 34.39 273.36 38.22 269.44 46.56 266.28 54.96 261.06 65.95 260.36 73.82 264.41 81 268.6 91.66 273.89 99.37 276.45 104.62 275.5 108.4 272.35 108.04"/>
      <polygon class="cls-3" points="27.06 32.95 35.84 83.96 35.97 87.77 32.93 84.88 31.1 76.63 31.23 70.55 26.69 68.4 22.18 61.8 23.86 38.24 21.84 35.41 17.94 33.04 27.06 32.95"/>
      <polygon class="cls-3" points="3.27 100.86 4.13 97.81 12.26 81.49 14.53 78.75 16.27 81.09 7.03 99.73 3.27 100.86"/>
      <polygon class="cls-4" points="83.86 1.91 83.88 3.75 68.45 3.86 67.05 1.65 83.86 1.91"/>
      <path class="cls-4" d="M93.38,56.65l3.24.17,1.56-1.94,8.02,2.87,7.21.27,6.35,1.66,4.02-1.71,6.55-2.43,2.33.05c.07,1.27,1,3.73.96,3.62l3.66,3.76-5.29,7.62-4.67,9.05,6.06,1.43-5.05,2.06.35,2.79-11.12-.38-7.59-.93-2.11-3.49c-5.72-4.23-10.43-8.5-14.87-13.64l-7.71-8.98,6.06-2.59,2.03.73Z"/>
      <path class="cls-7" d="M197.75,37.09l-.17,3.84.41,13.87,7.56.7,2.17-4.69.42-2.53c1.09-2.77-1.4-8.85-3.68-10.77l-4.79.54,3.74-2.42c4.04,1.47,7.87,1.66,10.74.42l6.08-.09v3.4s-5.09-2.11-5.09-2.11l-4.76,2.92,1.01,7.17c1.1.72,1.45.95,1.29.84l-.26,2.24-1.96,1.08,1.72,4.19,8.29-2.02-2.8,5.26-5.2-1.76-8.86.6-9.49-.97-.06-17.56-3.87.86.28,13.47,1.77,3.28-2.2.82-7.59-.49-4.25-2.07.82-4.56-.47-11.12,3.72,3.68,1.04,13.57,5.11-1.81-2.71-3.75,1.79-11.26-1.19-6.14,1.9.49,1.9,1.88,4.01-1.36-.03-3.35,4.01,1.2-.34,4.51Z"/>
      <polygon class="cls-6" points="186.3 33.73 187.49 39.88 185.7 51.14 188.41 54.9 183.29 56.7 182.25 43.13 178.53 39.45 179 50.57 178.18 55.13 174.99 55.19 174.56 37.89 179.25 39.45 182.96 34.6 186.3 33.73"/>
      <path class="cls-6" d="M128.11,42.96l.22,3.53-1.92,2.01-1.43,6.44-3.72.26-.89-7.54-3.71,6.76c1.8.66-3.14.42-3.5-.06l-2.92-13.87-5.23,5.81,3.54,6.34c-.15-.72.55,2.61.72,3.41l-5.91-1.57-.7-3.94-.19-7.99-6.48.7c-2.75-2.42-2.87-1.15-1.41.97l5.76,5.26-2.16,5.4-1.56,1.94-3.24-.17-2.03-.73-2.36-4.94,6.2-.03c1.11.63-.62-.63-3.9-2.93l-1.29-9.29,10.41.42c-1.07,1.5,1.11-1.56,3.23-4.53l1.95,1.12,7.35,4.39,2.68,4.17c.88,2.91,1.39,2.45,1.15-.31l1.6-5.51,2.76,2.02,3.07,6.81.74-9.04,3.53.12-.34,4.54Z"/>
      <path class="cls-6" d="M140.86,42.85l-.15,12.44-8.04.31-2.33-.05-.98-6.98-1.02-2.07,3.12.51,1.09-1.99,3.99-1.15-4.07-1-1.9.12c.65-2.25,2.81-3.81,5.92-5.67l4.37,5.54ZM136.39,50.44c0-1.15-.93-2.09-2.09-2.09s-2.09.93-2.09,2.09.93,2.09,2.09,2.09,2.09-.93,2.09-2.09Z"/>
      <polygon class="cls-5" points="162.72 52.52 170.63 47.91 171.97 51.27 169.89 54.66 163.54 55.74 158.81 51.12 158.85 34.64 167.42 30.36 173.72 38.64 168.07 36.7 162.68 35.53 162.72 52.52"/>
      <path class="cls-6" d="M208.14,48.29l-6.88,1.2,6.47,1.33-2.17,4.69-7.56-.7-.41-13.87.17-3.84,1.92.97,4.79-.54c2.28,1.92,4.76,8.01,3.68,10.77ZM202.48,42.97l-.93.93.93.93h1.87l.93-.93-.93-.93h-1.87Z"/>
      <path class="cls-6" d="M220.23,39.37l-.81,3.5-5.01-.89c-.74-.86.85.99,2.62,3.05,1.96,1.85,3.2,5.5,3.42,8.66l-8.29,2.02-1.72-4.19,1.96-1.08,3.87,1.91-.49-3.8-3.12-.35c.16.11-.19-.13-1.29-.84l-1.01-7.17,4.76-2.92,5.1,2.11Z"/>
      <polygon class="cls-5" points="151.53 39.62 150.86 42.13 146.93 43.34 146.81 54.06 143.73 56.28 143.51 42.95 144.19 38.61 151.53 39.62"/>
      <polygon class="cls-5" points="194.1 56.82 192.22 56.86 190.45 53.58 190.17 40.12 194.04 39.26 194.1 56.82"/>
      <polygon class="cls-5" points="194.08 31.39 194.11 34.74 190.1 36.1 188.19 34.22 189.5 31.51 194.08 31.39"/>
      <polygon class="cls-6" points="179.34 30.9 178.18 35.92 173.79 32.95 179.34 30.9"/>
      <path class="cls-1" d="M69.02,30.74l-7.13.15.03,24.49,4.19-.34-.25-7.44,7.79-2.77,1.32-.63,2.52,11.08,7.9-.5,2.77-7.62-.94-5.38,2.76-3.04,1.29,9.29c3.28,2.29,5.01,3.56,3.9,2.93l-6.2.03,2.36,4.94-6.06,2.59,7.71,8.98c4.44,5.13,9.15,9.41,14.87,13.64l2.11,3.49-21.5-.75,9.34-3.7-14.18,1.35c-4.01,2.87-8.04,4.18-12.58,4.87l-5.91,1.34-5.52.51-3.29-2.56-13.81,1.59-3.67-2.11,1.4-3.64,2.38-8.59,6.63-25.12,4.34-12.39,2.2-9.92,2.58-3.69,3.35,2.06,6.1,4.53c-.14-.27,1.01,1.97,1.2,2.33Z"/>
      <path class="cls-6" d="M69.02,30.74l5.02,3.56-.38,10.54-7.79,2.77.25,7.44-4.19.34-.03-24.49,7.13-.15ZM66.16,35.4l-.09,7.21,4.04.05.09-7.21-4.04-.05Z"/>
      <path class="cls-6" d="M87.23,41.79l.94,5.38-2.77,7.62-7.9.5-2.52-11.08,5.68-6.81,6.56,4.4ZM83.87,42.97h-3.74v9.34h3.74v-9.34Z"/>
      <polygon class="cls-1" points="132.47 42.86 132.55 45.01 131.45 47 128.34 46.49 128.11 42.96 130.57 42.98 132.47 42.86"/>
      <path class="cls-1" d="M128.34,46.49l1.02,2.07.98,6.98-6.55,2.43-4.02,1.71-6.35-1.66-7.21-.27-8.02-2.87,2.16-5.4-5.76-5.26c-1.46-2.12-1.34-3.39,1.41-.97l6.48-.7.19,7.99.7,3.94,5.91,1.57c-.17-.8-.87-4.12-.72-3.41l-3.54-6.34,5.23-5.81,2.92,13.87c.36.48,5.3.72,3.5.06l3.71-6.76.89,7.54,3.72-.26,1.43-6.44,1.92-2.01Z"/>
      <path class="cls-1" d="M41.45,89.72l-2.63-.77,2.63.77Z"/>
      <path class="cls-1" d="M270.75,37.17l-1.8-1.64,1.8,1.64Z"/>
      <path class="cls-1" d="M96.62,56.81l-3.24-.17,3.24.17Z"/>
      <circle class="cls-4" cx="134.3" cy="50.44" r="2.09"/>
      <polygon class="cls-4" points="132.55 45.01 132.47 42.86 136.54 43.86 132.55 45.01"/>
      <polygon class="cls-1" points="208.14 48.29 207.72 50.81 201.25 49.49 208.14 48.29"/>
      <polygon class="cls-7" points="202.48 42.97 204.35 42.97 205.28 43.91 204.35 44.84 202.48 44.84 201.54 43.91 202.48 42.97"/>
      <polygon class="cls-1" points="212.41 50.43 212.68 48.19 215.79 48.54 216.28 52.34 212.41 50.43"/>
      <rect class="cls-1" x="64.53" y="37.01" width="7.21" height="4.05" transform="translate(28.21 106.65) rotate(-89.25)"/>
      <rect class="cls-7" x="80.14" y="42.97" width="3.74" height="9.34"/>
    </g>
  </g>
</svg>