<?xml version="1.0" encoding="UTF-8"?>
<svg id="Layer_2" data-name="Layer 2" xmlns="http://www.w3.org/2000/svg" viewBox="0 0 261.92 162.85">
  <defs>
    <style>
      .cls-1 {
        fill: #688166;
      }

      .cls-2 {
        fill: #c9c9ca;
      }

      .cls-3 {
        fill: #d9d9de;
      }

      .cls-4 {
        fill: #2e3447;
      }

      .cls-5 {
        fill: #758d72;
      }

      .cls-6 {
        fill: #979aab;
      }

      .cls-7 {
        fill: #d2cdd6;
      }

      .cls-8 {
        fill: #3e465d;
      }

      .cls-9 {
        fill: #7d8598;
      }

      .cls-10 {
        fill: #4b5f50;
      }

      .cls-11 {
        fill: #f0f0f2;
      }

      .cls-12 {
        fill: #dfe0e2;
      }
    </style>
  </defs>
  <g id="Layer_1-2" data-name="Layer 1">
    <g>
      <polygon class="cls-4" points="261.17 34.45 259.75 25.77 261.92 25.63 261.17 34.45"/>
      <polygon class="cls-4" points="0 33.44 1.03 24.78 2.54 29.9 0 33.44"/>
      <polygon class="cls-10" points="261.92 25.63 259.75 25.77 260.08 23.57 261.92 25.63"/>
      <path class="cls-5" d="M7.72,128.46l3.03,2.62,10.78,3.17,6.86,6.61,2.94,14.65,13.96.95,177.31-.03,9-1.49c1.76-8.66,5.19-16.02,10.29-21.58l10.44-1.8.78,4.24,4.85,1.9-4.53.97-4.1,3.79-5.21,5.35-2.56,4.56-2.28,10.21-67.43.08-.16-2.43-115.57-.03-1.52,2.23-32.22.44-.11-5.78-1.56-4.29-3.88-7.45,2.26-1.07-1.16-3.43-2.93-1.33-5.11-1.99-1.28-1.81-3.34,1.34-1.67.97.23-4.47-.37-5.39,4.25.32Z"/>
      <path class="cls-6" d="M127.7.49l-1.08,2.66-5.06,2.05H33.81s-1.82,1.88-1.82,1.88l-.19,5.57-2.92,3.22-.57,6.84-5.03,5.09-3.15,1.41-10.42,2.88-7.29,3.49-2.42-2.14,2.54-3.55-1.51-5.11,3.92-1.46c6.75-1.42,12.26-6.33,13.97-12.4l3.8-.25-.48-10.3,35.92-.04,59.73-.05,9.81.2Z"/>
      <polygon class="cls-6" points="42.74 10.68 42.67 13.71 36.07 13.32 34.66 16.61 32.1 16.45 31.8 12.65 34.49 11.03 42.74 10.68"/>
      <path class="cls-3" d="M22.97,29.86l-3.5,2.36-3.38,1.05-1.01,1.77-1.86-.08-1.9,1.42.12,11.77v61.6s-.1,16.86-.1,16.86l8.16,3.93,10.96,10.28,2.14,7.52,1.59,4.38h91.17s97.17.03,97.17.03l.06,3.67-177.31.03-13.96-.95-2.94-14.65-6.86-6.61-10.78-3.17-3.03-2.62-.04-5.68.51-3.16-1.8-5.24,1.3-10.17-.89-15.93c-3.26.29-1.99-.66-.23-1.52l.9-16.36-1.06-8.25,2.38-5.26-4.81-6.85-1.05-3.56,1.76-1.59-2.26-9.31,7.29-3.49,10.42-2.88,2.84.66Z"/>
      <polygon class="cls-9" points="238.74 5.51 244.47 18.32 249.33 19.83 252.95 21.55 260.08 23.57 259.75 25.77 261.17 34.45 258.54 35.42 256.04 34.37 248.56 31.16 241.68 28.48 234.56 23.66 231.9 12.37 230.32 8.76 229.91 5.34 238.74 5.51"/>
      <polygon class="cls-1" points="140.01 1.72 143.66 4 161.3 5.46 162.73 7.08 31.99 7.08 33.81 5.2 121.56 5.2 126.62 3.15 127.7 .49 134.05 .08 140.01 1.72"/>
      <path class="cls-10" d="M8.18,119.62l-5.76,1.39.99-7.27-.69-5.32.32-8.18-.3-9.13.89-5.64-1.64-5.51,1.94-4.56-1.95-2.57,1.85-5.34-.24-6.1.37-11.34,4.81,6.85-2.38,5.26,1.06,8.25-.9,16.36c-1.76.86-3.03,1.81.23,1.52l.89,15.93-1.3,10.17,1.8,5.24Z"/>
      <polygon class="cls-6" points="189.1 .43 188.88 5.22 172.37 5.21 172.06 7.09 162.73 7.08 161.3 5.46 143.66 4 140.01 1.72 142.21 0 189.1 .43"/>
      <polygon class="cls-4" points="171.85 162.64 54.61 162.41 56.12 160.18 171.69 160.21 171.85 162.64"/>
      <polygon class="cls-10" points="260.2 81.75 258.12 81.59 255.01 82.18 254.25 72.31 255.22 49.95 256.04 34.37 258.54 35.42 257.71 40.55 259.75 45.18 258.38 48.32 259.27 58.2 258.97 68.15 259.27 76.08 260.2 81.75"/>
      <path class="cls-1" d="M259.45,90.81l-.73,4.8.71,6.32-.6,7.84.16,8.44c.56-.34-1.25.77-1.79,1.1l-2.76-.41.97-4.42-1.37-15.9,1.18-7.44,4.23-.33Z"/>
      <polygon class="cls-9" points="230.28 3.61 216.43 3.13 215.03 5.19 188.88 5.22 189.1 .43 192.55 1.8 208.93 .7 224.44 .51 230.28 3.61"/>
      <path class="cls-4" d="M3.83,133.54l-.23,4.47,3.14,2,3.14-2.49,5.11,1.99-.08,4.72,1.92,1.11,3.88,7.45,1.56,4.29.11,5.78-3.58-1.62.3-4.56-2.46-7.16c-5.05-3.51-10.17-6.29-15.71-8.54l-.75-7.38,3.64-.07Z"/>
      <polygon class="cls-1" points="261.82 137.77 257.96 137.69 253.11 135.79 252.33 131.55 254.57 122.9 257.13 122.78 261.21 128.22 261.82 137.77"/>
      <polygon class="cls-6" points="239.61 .44 238.74 5.51 229.91 5.34 215.03 5.19 216.43 3.13 230.28 3.61 234 .97 239.61 .44"/>
      <polygon class="cls-10" points="249.33 19.83 244.47 18.32 238.74 5.51 239.61 .44 242.37 1.45 242.98 5.15 243.74 11.94 249.33 19.83"/>
      <polygon class="cls-10" points="7.68 122.79 7.72 128.46 3.46 128.15 3.83 133.54 .2 133.61 .6 129.41 5.1 121.47 7.68 122.79"/>
      <polygon class="cls-10" points="257.96 137.69 261.82 137.77 261.37 140.54 248.09 145 243.35 151.75 242.91 161.79 239.28 162.56 241.55 152.36 244.12 147.8 249.33 142.45 253.42 138.66 257.96 137.69"/>
      <polygon class="cls-10" points="22.24 .38 22.72 10.67 18.92 10.92 18.71 2.53 22.24 .38"/>
      <polygon class="cls-10" points="259.54 86.01 259.45 90.81 255.23 91.14 254.93 86.41 256.68 84.48 259.54 86.01"/>
      <polygon class="cls-9" points="259.54 86.01 256.68 84.48 258.12 81.59 260.2 81.75 259.54 86.01"/>
      <polygon class="cls-5" points="257.13 122.78 254.57 122.9 254.45 118.9 257.21 119.31 257.13 122.78"/>
      <path class="cls-10" d="M2.92,46.48l1.76-1.59-1.76,1.59Z"/>
      <path class="cls-12" d="M127.3,131.62l-4.55,5.16c2.8,2.88,6.91,6.25,10.14,7.38l2.48,3.09,12.86-.1-.24-3.6,3.69-.04-.58,3.65,76.46-.4.81,4.77-102.99-.64-11.25-.69-2.4.6-75.72.07-.73-6.77-1.55-4.31,2.92,2.7,1.21,4.66,74.12-.09c.7-.76,1.23-.76,2.33.96l14.28-1.11-7.31-8-3.66.86.35-5.59,4.54-.32,4.78-2.25Z"/>
      <path class="cls-12" d="M256.04,34.37l-.82,15.59-.97,22.35.76,9.87,3.11-.59-1.45,2.9-1.75,1.93.3,4.73-1.18,7.44,1.37,15.9-.97,4.42.12,4-2.24,8.65-10.44,1.8c-5.1,5.56-8.53,12.92-10.29,21.58l-9,1.49-.06-3.67,5.82-1.23.63-1.52,4.67-12.65,7.93-6.73,8.83-2.45.14-76.27-.12-16.26-2.08-2.4.19-2.1,7.49,3.21Z"/>
      <polygon class="cls-10" points="9.89 137.52 6.75 140.01 3.61 138.01 5.28 137.05 8.61 135.71 9.89 137.52"/>
      <polygon class="cls-10" points="16.83 145.33 14.92 144.22 15 139.5 17.93 140.83 19.09 144.26 16.83 145.33"/>
      <path class="cls-7" d="M48.8,10.82l3.82,1.6,7.3,1.87,9.43.28.48,1.84,147.01.03,3.8-1.88,3.56-.25.13,3.23,3.92.74,1.77,3.96,5.09,7.6,13.47,6.4-.26,13.32.03,2.37.35,14.91-3.7-.21-.22-16.49-7.68-7.14-2.48-2.8-5.08-.23c-6.53,1.86-10.17,10.22-5.69,16.44l2.8,7.45,3.99,4.86,1.86,6.73,1.46,3.5-2.32.98-2.98-10.19-3.22-1.26-1.75,3.43-3.38,11.86-3.03-.24-1.9-2.61c2.29-5.13,2.48-7.45,1.41-11.41l-10.46-.9-.44,18.79-3.35,3.4-9.5.36-2.73-10.05-6.11-7.05-.94,11.79-1.86,2.02-.06-14.65,5-4.18-13.55.05,5.04,4.14-.05,11.9c-1.14,1.19-1.51,1.57-1.18,1.71l-.46,1.95-4.41-.64-.32-4.33.61-14.05-3.84-1.55-.58-2.55,4.53-.7,13.44-.76-11.86-1.73,2.65-2.74,3.77-4.77,4.38.77,4.92,7.34,1.37-7.22,1.4-.42,5.86.52,1.48.61,2.1,6.29,5.14-7.17.33-2.12,2.89-2.31-.61-8.85-2.91,1.23-2.63-2.99-.44-2.63-2.78.33-5.7.3.74-1.53-5.87-5.04-7.98,3.85-3.92.71-4-1.24-1.62-.02-3.19,2.32-6.89-.24-.71-1.87-1.39-2.98-4.37.47-7.95-.52-4.61-.84-2.42,4.03-3.45,3.3-3.18,3.26-4.98.85-8.4-.62-3.18-1.33-.45-2.39-2.9.04-5.83.27-5.37-4.04-3.18,1.02-3.19,1.26c.21-.26-.96,1.16-1.19,1.44l-2.03.1h-2.78s-.42-3.77-.42-3.77l-3.07-2.17-3.06,2.18.29,2.92-3.57,1.6-1.07-2.7-3.23.19-1.5-1.55-2.92-3.39-4.07,2.91-5.31.61-.9-.22c-.15-.56-.66-2.5-.46-1.73l-5.56,1.58-.41,3.67,4.76,2.79-.29,13.93,1.27,3.37,4.74-2.4,7.31,3.27,3.56-4.53,6.59-.21,2.75.49-1.93,3.94.42,11.08-.73,6.29-3.73,7.5-1.71-17.08-3.23,3.87-1.67,7.07-1.57-4.64-1.45-3.44-3.81-1.79-.71,7.64-.3,11.27-2.15.41-1.48-7.94-3.18-10.99-4.25.17-6.73.12-3.68-.82-2.07,2.83-3.58,9.3-1.59-8-2.18-3.64-3.73.35-1.77-1.22-8.57-8.85-3.36,1.04-.53,31.28.78,10.96,7.17,1.58,8.93.13.4,7.72c-5.39,3.87-9.51,5.55-16.57,6.77l-.34,7.97-1.8-.9-1.81-3.47-.32-12.38.41-32.9c1.83-3.59,1.83-9.05.2-12.53l-.61-16.19.02-13.19,1.86.08,4.69-.8,9.84-6.77,3.6-4.63,1.44-6.24,1.41-3.29,6.6.39.07-3.02,6.06.14ZM57.2,64.97l-.93.93.93.93.93-.93-.93-.93ZM199.31,78.49c5.25,1.27,1.84-2.71.07-2.12l-3.1-3.32,5.68-1.21c-.43.67.43-.68,2.08-3.25l-10.46-.18.08,19.73,9.6-.31c-.35-2.31-.64-4.26-.43-2.88l-6.47-2.15,2.95-4.32Z"/>
      <polygon class="cls-1" points="17.13 126.54 22.51 130.27 28.69 134.42 33.72 139.8 35.28 144.12 36 150.89 111.72 150.81 114.12 150.21 125.37 150.9 125.37 152.73 34.2 152.73 32.61 148.35 30.46 140.83 19.5 130.55 11.35 126.62 11.45 109.77 13.2 109.79 13.52 122.16 15.33 125.64 17.13 126.54"/>
      <path class="cls-10" d="M13.2,109.79l-1.75-.02v-61.6s1.76,0,1.76,0l.61,16.19c1.62,3.48,1.63,8.93-.2,12.53l-.41,32.9Z"/>
      <polygon class="cls-1" points="13.21 48.17 11.45 48.17 11.33 36.4 13.23 34.98 13.21 48.17"/>
      <polygon class="cls-1" points="15.09 35.05 16.09 33.28 19.47 32.23 22.97 29.86 30.52 22.49 32.1 16.45 34.66 16.61 33.22 22.85 29.62 27.48 19.78 34.25 15.09 35.05"/>
      <polygon class="cls-1" points="188.88 5.22 215.03 5.19 229.91 5.34 230.32 8.76 211.85 8.89 209.64 7.04 172.06 7.09 172.37 5.21 188.88 5.22"/>
      <path class="cls-10" d="M241.59,130.64l-7.93,6.73-4.67,12.65-.63,1.52-.81-4.77c2.4-5.2,5.91-11.07,9.62-16.45l4.42.32Z"/>
      <polygon class="cls-10" points="228.36 151.53 222.54 152.76 125.37 152.73 125.37 150.9 228.36 151.53"/>
      <polygon class="cls-4" points="241.59 130.64 244.21 127.58 248.63 126.29 248.68 66.84 248.33 51.93 250.56 51.92 250.42 128.19 241.59 130.64"/>
      <polygon class="cls-10" points="248.36 33.26 250.44 35.66 250.56 51.92 248.33 51.93 248.31 49.56 248.57 36.24 235.1 29.84 230.02 22.24 228.24 18.28 226.49 13.19 224.19 14.31 220.63 14.55 106.7 14.55 106.7 10.81 229.65 10.82 231.08 17.18 233.39 24.29 240.78 31.86 248.36 33.26"/>
      <polygon class="cls-9" points="106.7 10.81 106.7 14.55 69.34 14.57 59.91 14.29 52.61 12.42 48.8 10.82 106.7 10.81"/>
      <path class="cls-2" d="M248.68,66.84l-.05,59.45-4.42,1.29-2.63,3.06-4.42-.32c-3.7,5.38-7.21,11.24-9.62,16.45l-76.46.4.58-3.65,4.28-6.22-4.15-5.76-3.02-1.2-2.29,2.98-3.12.79-7.45-2.57c1.2-.25-1.29.27-1.81.37l-2.85-2.95-3.96,2.66-4.78,2.25-4.54.32-5.65-4.68-6.39,7.26,6.75,7.46,4.94-4.45,3.66-.86,7.31,8-14.28,1.11c-1.1-1.72-1.63-1.72-2.33-.96l-74.12.09-1.21-4.66-2.92-2.7-5.04-5.38-6.18-4.15-5.37-3.73.34-7.97c7.05-1.22,11.18-2.9,16.57-6.77l-.4-7.72-8.93-.13-7.17-1.58-.78-10.96.53-31.28,3.36-1.04,8.57,8.85-1.19,16.09,2.17,3.39,3.13.83.87-4.46.44-5.18,3.51,8.37,2.76-.31,1.64-6.57,2.37,9.54,2.51-3.89,3.39-.22.66,2.27,3.94-4.23c1.59.52,4.24,1.38,4.04,1.31l4.01,2.91,2.15-.41,3.52-.12.68-9.31,2.84,2.8,3.65,8.3,3.37-3.87,2.97,2.28,6.02-4.01,5.95,4.95-.02-5.29-5.18-15.72-4.88,3.31-.42-11.08,5.73-.35.15-4.16,3.71.57,5.32,2.24,3.61,2.15,4.14-1.47-.24-3.02,4.86-.39,4.66.55-3.92,3,5.01.83.71-4.11,2.2.35,3.31-3.39,11.43-.28-.34,2.38,2.35-.7,8.83,2.84,4.29-1.81-.05-3.01,2.24-.28,4.88,4.65,5.06-.92,5.93-.06,3.04,3.81,5.31.71-2.65,2.74,11.86,1.73-13.44.76-4.53.7.58,2.55-.05,10.57-7.13-11.65-2.55,4.84-3.05-.29.33-2.33-3.86-1.01-5.9.67-.25,18.71,10.09-.17-.26-3.72h2.89s2.68,5.02,2.68,5.02l2.03-12.42,2.75,8.5,5.81,3.22,4.41.64.46-1.95,4.79,1.03,1.86-2.02.94-11.79,6.11,7.05,2.73,10.05,9.5-.36,3.35-3.4,3.08.13.19-4.48c.54-.92,1.82-3.14,1.61-2.78l6.2,8.95.31-5.69,3.03.24,1.4,3.31,3.75-3.95,4.11,2.41,3.08,2.46.82-2.78c2.07-.51,2.45-.9-.22-1.03l-1.61-4.26,2.32-.98-1.46-3.5-1.86-6.73-3.99-4.86-2.8-7.45c-4.47-6.21-.84-14.57,5.69-16.44l5.08.23,2.48,2.8,7.68,7.14.22,16.49,3.7.21ZM112.67,68.75l-4.53.54-6.05-1.4c-4.26,3.2-6.27,7.92-5.53,14.29,2.67,5.18,7.26,6.53,11.87,4.97l4.63.23,9.78.37,3.06-.22,2.85.07.95-10.66,4.2,10.81,4.21-8.32.31,5.7,3.92,3.43-.15-19.7.05-3.1-3.62-1.04-.17,4-2.55,4.57-4.06-.21-2.68-4.44.03-3.03-3.69.69-2.81-.66-9.94-.29-.07,3.42ZM75.63,100.69l-2.25.31-3.57-.52.9,4.31.73,10.44,3.65.1,1.77.33,4.87.98,6.18-.69,5.52-.69,1.33.81,4.04,1.11,5.86-.38,8-.78,1.14.12,2.3,1.37,4-1.7.15-2.22,3.54-.95-1.79-3.63-.14-4.87-5.28.21-2.24-2.01-5.82-1.67-5.32,1.69-2-2.05-2,.17.07-3.11-4.87-.84-.73,3.94-2.06.51-4.72-3.97-12.52-.26,1.26,3.91ZM149.46,100.4l-2.54,2.19-2.47-.99-3.28-1.54c-.61.63-4.09,4.21-2.01,2.07,1.47,5.33,1.47,6.68,1.55,12.29-.58-.18,2.06.66,3.09.99l4.73.76,6.02.4,7.31-1.88.93.39.91,2.44,3.55-1.92h5.92s3.47,1.91,3.47,1.91l1.5-2.15,4.43-8.48-2.6-5.31-5.16-1.63-3.64,3.61-.05,7.87-2.64.31-.14-10.79-9.48.62-2.38,1.42-3.12-2.42-.04-4.11-3.67.99-.18,2.95ZM189.56,108.88l.74-5.18-6.83,1.41.26,5.06c3.28.16,4.17,1.03-.73,2.72l4.64,3,3.4-3.3-1.49-3.72ZM134.84,109.34l-1.05-1.55-8.53.57,1.05,1.55,8.53-.57Z"/>
      <path class="cls-4" d="M102.95,35.04l5.37,4.04,5.83-.27.9,1.91,2.45.44,3.18,1.33-.8,3.72-1.06-.03-.91,1.02,2.62,1.2-.52,7.4-2.2-.35-1.81.28-4.66-.55-.97-3.04,5.19-.58-6.66-6.63-.58,5.25-1.84,5.4-7.08-.41-3.89-1.95-.15-14.44c.23-.28,1.41-1.7,1.19-1.44l3.19-1.26,3.18-1.02ZM106.09,46.65l-3.03-7.12-3.77.13,1.25,14.42,5.54-7.43ZM114.74,45.39l2.98-.1-2.98.1Z"/>
      <polygon class="cls-12" points="106.7 14.55 220.63 14.55 216.83 16.44 69.82 16.41 69.34 14.57 106.7 14.55"/>
      <polygon class="cls-4" points="47.81 69.13 47.95 72.44 47.41 85.73 44.9 89.62 42.54 80.08 40.9 86.65 38.14 86.96 34.63 78.59 34.19 83.77 33.32 88.23 30.2 87.4 30.98 69.15 34.71 68.79 36.89 72.44 38.48 80.44 42.07 71.14 44.13 68.31 47.81 69.13"/>
      <path class="cls-4" d="M84.51,70.69l4.88-3.31,5.18,15.72.02,5.29-5.95-4.95-6.02,4.01-2.97-2.28-3.37,3.87-3.65-8.3.79-2.41,1.67-7.07,3.23-3.87,1.71,17.08,3.73-7.5.73-6.29ZM90.11,77.16h-4.19c-1.36,6.46,5.55,6.46,4.19,0Z"/>
      <polygon class="cls-4" points="149.85 51.81 149.9 54.82 145.61 56.64 136.78 53.8 134.44 54.5 134.78 52.11 133.25 49.83 122.99 50.19 124 44.74 131.9 45.23 140.23 50.26 142.93 45.09 145.99 43.53 145.71 39.73 143.2 39.36 137.87 43.53 137.26 39 140.7 35.69 150.77 38.51 144.89 51.83 149.85 51.81"/>
      <path class="cls-4" d="M90.16,35.08l.42,3.76h2.78s-.99,3.8-.99,3.8l.69,4.19.62,8.82-3.71-.57-3.96.57-2.75-.49-3.15-4.15,2.56-4.76-1.92-6.66,3.57-1.6-.29-2.92h6.13ZM90.41,48.63l-6.69.4c1.17,4.43,5.93,4.4,6.69-.4Z"/>
      <polygon class="cls-4" points="168.14 68.2 171.98 69.75 171.37 83.8 171.69 88.13 165.88 84.91 163.12 76.41 161.09 88.83 158.41 83.81 158.41 71.96 160.96 67.12 168.09 78.77 168.14 68.2"/>
      <polygon class="cls-12" points="134.78 52.11 123.35 52.39 120.03 55.78 120.55 48.39 119.89 46.21 120.69 42.49 129.09 43.11 134.07 42.26 137.26 39 137.87 43.53 143.2 39.36 145.71 39.73 145.99 43.53 142.93 45.09 140.23 50.26 131.9 45.23 124 44.74 122.99 50.19 133.25 49.83 134.78 52.11"/>
      <path class="cls-4" d="M74.95,35.55l1.5,1.55,2.19,2.34-.03,11.83-5.47,4.72-4.69-.91-.91-5.01,4.85,2.81,2.66-3.87-8.29-2.65-.24-8.87,8.42-1.93ZM71.35,38.37l-2.3,5.63,4.5,1.83,2.3-5.63-4.5-1.83Z"/>
      <path class="cls-4" d="M173.84,35.36l4,1.24,2.21,16.89-7.15,2.62-5.06-3.53,1.2-14.92,3.19-2.32,1.62.02ZM175.81,38.82h-3.74v13.07h3.74v-13.07Z"/>
      <path class="cls-4" d="M161.44,35.54l.71,1.87,2.42,1.91.02,13.99-2.55,1.94-5.06.92-4.88-4.65-.36-5.58,3.61-10.49,6.09.08ZM156.09,39l-.11,13.65,4.94.04.11-13.65-4.94-.04Z"/>
      <path class="cls-4" d="M195.61,37.08l-.74,1.53.11,5.77-.62,8.85-2.22,2.19-1.4.42-7.6-1.88-.3-13.8,5.37-5.09,7.4,2.01ZM190.75,38.82h-3.74v13.07h3.74v-13.07Z"/>
      <path class="cls-4" d="M217.25,83.5l-.31,5.69-6.2-8.95c.21-.36-1.08,1.86-1.61,2.78l-.19,4.48-3.08-.13.44-18.79,10.46.9c1.07,3.96.89,6.28-1.41,11.41l1.9,2.61ZM214.51,74.73c0-1.57-1.27-2.84-2.84-2.84s-2.84,1.27-2.84,2.84,1.27,2.84,2.84,2.84,2.84-1.27,2.84-2.84Z"/>
      <path class="cls-4" d="M199.31,78.49l-2.95,4.32,6.47,2.15c-.21-1.38.08.57.43,2.88l-9.6.31-.08-19.73,10.46.18c-1.65,2.57-2.51,3.92-2.08,3.25l-5.68,1.21,3.1,3.32c1.77-.6,5.18,3.39-.07,2.12Z"/>
      <polygon class="cls-12" points="74.95 35.55 66.53 37.48 66.77 46.35 75.06 49 72.41 52.87 67.56 50.06 68.47 55.07 73.16 55.98 78.62 51.26 78.65 39.44 76.46 37.09 79.69 36.91 80.76 39.61 82.68 46.27 80.12 51.03 83.27 55.17 76.68 55.39 73.12 59.92 65.81 56.65 61.07 59.05 59.79 55.69 63.67 55.45 63.18 38.7 62.66 35.68 67.97 35.07 72.04 32.16 74.95 35.55"/>
      <path class="cls-4" d="M231.61,79.91l1.61,4.26.22,1.03-.82,2.78-3.08-2.46-4.11-2.41-3.75,3.95-1.4-3.31,3.38-11.86,1.75-3.43,3.22,1.26,2.98,10.19ZM228.32,78.04c0-1.15-.93-2.09-2.09-2.09s-2.09.93-2.09,2.09.93,2.09,2.09,2.09,2.09-.93,2.09-2.09Z"/>
      <path class="cls-4" d="M63.45,87.77l-4.01-2.91c.19.06-2.45-.8-4.04-1.31l-3.94,4.23-.66-2.27,1.36-7.57,2.39-8.93,4.25-.17,3.18,10.99,1.48,7.94ZM56.98,84.21l1.38-10.46-3.9,4.4,2.52,6.06Z"/>
      <polygon class="cls-12" points="161.44 35.54 155.35 35.46 151.74 45.95 152.1 51.53 149.85 51.81 144.89 51.83 150.77 38.51 140.7 35.69 143.12 31.67 147.73 32.51 155.68 33.03 160.05 32.56 161.44 35.54"/>
      <polygon class="cls-3" points="195.61 37.08 188.21 35.07 182.84 40.16 183.15 53.95 190.75 55.83 189.38 63.05 184.46 55.71 180.08 54.95 176.32 59.72 171 59.01 167.97 55.2 162.03 55.26 164.59 53.32 164.57 39.33 162.15 37.42 169.04 37.66 167.84 52.58 172.9 56.11 180.05 53.49 177.84 36.6 181.76 35.89 189.74 32.04 195.61 37.08"/>
      <polygon class="cls-4" points="203.79 40.62 206.42 43.61 199.99 44.43 204.5 47.56 207.7 50.81 207.05 53.54 206.72 55.66 199.48 56.54 198 55.93 198.27 49.3 198.25 42.14 203.79 40.62"/>
      <path class="cls-4" d="M181.35,87.84l-4.79-1.03c-.34-.14.04-.52,1.18-1.71l.05-11.9-5.04-4.14,13.55-.05-5,4.18.06,14.65Z"/>
      <polygon class="cls-11" points="54.55 69.01 52.16 77.94 50.8 85.51 47.41 85.73 47.95 72.44 47.81 69.13 54.55 69.01"/>
      <polygon class="cls-3" points="203.79 40.62 198.25 42.14 198.27 49.3 198 55.93 192.15 55.42 194.37 53.23 194.98 44.37 194.87 38.61 200.57 38.31 203.35 37.98 203.79 40.62"/>
      <polygon class="cls-4" points="62.66 35.68 63.18 38.7 63.67 55.45 59.79 55.69 60.08 41.76 55.33 38.97 59.59 36.46 61.75 35.45 62.66 35.68"/>
      <polygon class="cls-10" points="73.43 78.33 72.64 80.74 69.8 77.94 69.12 87.24 65.6 87.36 65.9 76.1 71.87 73.7 73.43 78.33"/>
      <polygon class="cls-12" points="99.43 55.14 99 57.9 93.68 55.66 93.06 46.83 92.36 42.65 93.36 38.85 95.38 38.75 95.54 53.2 99.43 55.14"/>
      <polygon class="cls-3" points="207.05 53.54 207.7 50.81 204.5 47.56 199.99 44.43 206.42 43.61 209.33 42.38 209.94 51.23 207.05 53.54"/>
      <polygon class="cls-4" points="71.87 73.7 65.9 76.1 66.61 68.46 70.42 70.25 71.87 73.7"/>
      <polygon class="cls-3" points="206.72 55.66 201.58 62.83 199.48 56.54 206.72 55.66"/>
      <polygon class="cls-12" points="228.24 18.28 224.32 17.53 224.19 14.31 226.49 13.19 228.24 18.28"/>
      <path class="cls-12" d="M61.75,35.45l-2.16,1.01-4.26,2.51.41-3.67,5.56-1.58c-.2-.77.31,1.17.46,1.73Z"/>
      <polygon class="cls-12" points="89.97 55.09 89.82 59.26 84.09 59.61 86.02 55.66 89.97 55.09"/>
      <polygon class="cls-12" points="90.16 35.08 84.03 35.09 87.09 32.91 90.16 35.08"/>
      <polygon class="cls-12" points="117.51 41.15 115.06 40.71 114.16 38.8 117.05 38.77 117.51 41.15"/>
      <path class="cls-12" d="M102.95,35.04l-3.18,1.02,3.18-1.02Z"/>
      <path class="cls-3" d="M173.84,35.36l-1.62-.02,1.62.02Z"/>
      <rect class="cls-11" x="56.54" y="65.24" width="1.32" height="1.32" transform="translate(-29.85 59.76) rotate(-45.01)"/>
      <polygon class="cls-4" points="129.16 68.62 131.84 73.06 133.78 78.31 135.9 73.27 138.45 68.7 142.18 68.84 142.33 88.54 138.41 85.11 138.11 79.41 133.89 87.73 129.69 76.93 128.74 87.59 125.9 87.53 125.55 72.39 126.34 68.59 129.16 68.62"/>
      <path class="cls-4" d="M108.14,69.29l1.31,5.04-8.4-3.09-.64,12.99c4.77,2.24,8.2-.75,3.63-4.86l5.51-2.3-1.13,10.08c-4.6,1.56-9.2.21-11.87-4.97-.74-6.37,1.27-11.09,5.53-14.29l6.05,1.4Z"/>
      <path class="cls-12" d="M129.16,68.62l-2.82-.04-.79,3.8.34,15.14-3.06.22.36-3.25-6.96-.29,1.17-4.87c6.39,1.05,4.78-3.08.93-2.88l-2.62-3.19,6.05-1.45,1.28-3.28-10.38.22.07-3.42,9.94.29,2.81.66,3.69-.69-.03,3.03Z"/>
      <path class="cls-4" d="M122.84,87.75l-9.78-.37-.39-18.62,10.38-.22-1.28,3.28-6.05,1.45,2.62,3.19c3.85-.2,5.46,3.93-.93,2.88l-1.17,4.87,6.96.29-.36,3.25Z"/>
      <polygon class="cls-10" points="99.2 100.5 101.2 100.33 100.96 106.39 100.78 113.9 94.76 116.08 93.43 115.27 91.2 111.53 92.47 106.56 91.61 101 93.67 100.49 99.2 100.5"/>
      <path class="cls-4" d="M155.36,71.67l-7.59,1.72,6.44,3.31c-.46-1.11.82,1.96,1.02,2.43l-5.52.79.24,4.67,5.58-.77.26,3.72-10.09.17.25-18.71,5.9-.67,3.86,1.01-.33,2.33Z"/>
      <path class="cls-4" d="M134.12,131.9l4.06,4.59-1.16,3.1-4.13,4.56c-3.22-1.13-7.34-4.5-10.14-7.38l4.55-5.16,3.96-2.66,2.85,2.95Z"/>
      <path class="cls-4" d="M178.13,115.36l-3.6-.07-3.42-3.87.05-7.87,3.64-3.61,5.16,1.63,2.6,5.31-4.43,8.48ZM177.13,103.11l-4.58,4.3,5.04,4.79-.47-9.1Z"/>
      <path class="cls-3" d="M112.67,68.75l.39,18.62-4.63-.23,1.13-10.08-5.51,2.3c4.57,4.11,1.14,7.09-3.63,4.86l.64-12.99,8.4,3.09-1.31-5.04,4.53-.54Z"/>
      <path class="cls-8" d="M168.46,111.74l-1.93,2.97-3.75.36-.93-.39-2.87-1.54-.14-11.57,9.48-.62.14,10.79ZM163.17,111.77l1.55-1.05-.57-8.53-1.55,1.05.57,8.53Z"/>
      <polygon class="cls-4" points="117.98 134.18 117.63 139.77 112.68 144.22 105.93 136.77 112.32 129.51 117.98 134.18"/>
      <path class="cls-10" d="M114.33,102.36l-.53,13.8-1.14-.12-1.19-2.54-3.02,2.67-5.85-5.75.59-8.03,5.32-1.69,5.82,1.67ZM107.46,112.75c5.67-3.58,3.56-8.82-.73-10.47l.73,10.47Z"/>
      <polygon class="cls-4" points="151.68 143.51 147.99 143.55 144.09 139.83 143.37 134.1 146.49 133.3 148.78 130.33 151.81 131.52 155.96 137.29 151.68 143.51"/>
      <path class="cls-10" d="M153.34,100.57l3.12,2.42.67,8.04-5.04,4.09-4.69-2.41,7.08-1.83-8.21-3.13.64-5.17,2.54-2.19,3.88.17ZM153.61,104.18c0-1.15-.93-2.09-2.09-2.09s-2.09.93-2.09,2.09.93,2.09,2.09,2.09,2.09-.93,2.09-2.09Z"/>
      <path class="cls-11" d="M155.36,71.67l3.05.29v11.85s-2.89,0-2.89,0l-5.58.77-.24-4.67,5.52-.79c-.2-.48-1.49-3.54-1.02-2.43l-6.44-3.31,7.59-1.72Z"/>
      <polygon class="cls-12" points="103.19 102.39 102.6 110.42 108.45 116.17 111.47 113.5 112.66 116.04 104.66 116.82 98.8 117.19 94.76 116.08 100.78 113.9 100.96 106.39 101.2 100.33 103.19 102.39"/>
      <path class="cls-10" d="M189.56,108.88l1.49,3.72-3.4,3.3-4.64-3c4.9-1.69,4.01-2.56.73-2.72l-.26-5.06,6.83-1.41-.74,5.18Z"/>
      <path class="cls-4" d="M144.45,101.59l-.66,13.81c-1.03-.33-3.67-1.17-3.09-.99-.08-5.61-.08-6.96-1.55-12.29-2.08,2.14,1.4-1.44,2.01-2.07l3.28,1.54Z"/>
      <polygon class="cls-12" points="91.61 101 92.47 106.56 91.2 111.53 93.43 115.27 87.91 115.96 81.73 116.65 76.86 115.67 76.81 106.05 80.6 106.05 81.12 108.81 87.27 110.91 81.29 112.71 81.42 113.91 86.29 115.93 90.66 106.23 87.01 100 80.38 101.8 76.89 102.22 75.63 100.69 74.37 96.78 86.89 97.03 91.61 101"/>
      <polygon class="cls-3" points="158.84 101.58 158.98 113.14 161.85 114.69 154.54 116.57 148.52 116.16 143.79 115.4 144.45 101.59 146.92 102.59 146.28 107.75 154.49 110.89 147.41 112.72 152.1 115.13 157.13 111.04 156.46 102.99 158.84 101.58"/>
      <polygon class="cls-7" points="116.57 104.37 116.46 107.12 120.24 113.61 120.1 115.83 116.95 115.31 116.1 117.53 113.81 116.16 114.33 102.36 116.57 104.37"/>
      <polygon class="cls-12" points="73.38 101 74.19 108.55 75.09 115.34 71.44 115.23 70.71 104.79 69.81 100.48 73.38 101"/>
      <polygon class="cls-4" points="120.24 113.61 116.46 107.12 116.57 104.37 121.85 104.16 121.99 109.03 123.78 112.66 120.24 113.61"/>
      <polygon class="cls-4" points="76.89 102.22 76.81 106.05 76.86 115.67 75.09 115.34 74.19 108.55 73.38 101 75.63 100.69 76.89 102.22"/>
      <path class="cls-12" d="M143.37,134.1l.72,5.73-7.08-.23,1.16-3.1-4.06-4.59c.52-.11,3.01-.62,1.81-.37l7.45,2.57Z"/>
      <polygon class="cls-12" points="111.37 55.16 106.51 55.55 108.35 50.15 108.93 44.9 115.58 51.53 110.39 52.12 111.37 55.16"/>
      <polygon class="cls-7" points="106.51 55.55 106.75 58.57 102.61 60.05 99 57.9 99.43 55.14 106.51 55.55"/>
      <polygon class="cls-12" points="99.2 100.5 93.67 100.49 94.4 96.55 99.27 97.39 99.2 100.5"/>
      <polygon class="cls-3" points="178.13 115.36 176.63 117.52 173.16 115.59 167.24 115.6 163.69 117.52 162.78 115.08 166.53 114.71 168.46 111.74 171.1 111.43 174.53 115.3 178.13 115.36"/>
      <polygon class="cls-4" points="134.84 109.34 126.3 109.91 125.25 108.36 133.79 107.79 134.84 109.34"/>
      <polygon class="cls-12" points="116.03 55.71 117.84 55.43 117.13 59.54 112.11 58.71 116.03 55.71"/>
      <polygon class="cls-12" points="142.18 68.84 138.45 68.7 138.62 64.7 142.24 65.74 142.18 68.84"/>
      <polygon class="cls-3" points="153.34 100.57 149.46 100.4 149.64 97.45 153.3 96.46 153.34 100.57"/>
      <polygon class="cls-12" points="131.84 73.06 135.9 73.27 133.78 78.31 131.84 73.06"/>
      <polygon class="cls-12" points="120.1 115.83 116.1 117.53 116.95 115.31 120.1 115.83"/>
      <path class="cls-12" d="M134.44,54.5l2.35-.7-2.35.7Z"/>
      <path class="cls-7" d="M233.44,85.2l-.22-1.03c2.67.13,2.29.52.22,1.03Z"/>
      <polygon class="cls-7" points="106.09 46.65 100.55 54.08 99.29 39.66 103.06 39.53 106.09 46.65"/>
      <polygon class="cls-7" points="119.89 46.21 120.55 48.39 117.93 47.19 114.74 45.39 117.72 45.29 118.84 46.18 119.89 46.21"/>
      <path class="cls-6" d="M90.11,77.16c1.36,6.46-5.55,6.46-4.19,0h4.19Z"/>
      <path class="cls-2" d="M90.41,48.63c-.76,4.79-5.53,4.83-6.69.4l6.69-.4Z"/>
      <rect class="cls-3" x="69.4" y="39.67" width="6.09" height="4.86" transform="translate(6.1 93.28) rotate(-67.81)"/>
      <rect class="cls-12" x="172.07" y="38.82" width="3.74" height="13.07"/>
      <rect class="cls-2" x="151.68" y="43.37" width="13.65" height="4.94" transform="translate(111.42 203.98) rotate(-89.55)"/>
      <rect class="cls-11" x="187.01" y="38.82" width="3.74" height="13.07"/>
      <circle class="cls-2" cx="211.66" cy="74.73" r="2.84"/>
      <circle class="cls-6" cx="226.24" cy="78.04" r="2.09"/>
      <polygon class="cls-6" points="56.98 84.21 54.46 78.15 58.36 73.75 56.98 84.21"/>
      <polygon class="cls-2" points="144.09 139.83 147.99 143.55 148.23 147.15 135.37 147.25 132.89 144.16 137.02 139.6 144.09 139.83"/>
      <polygon class="cls-12" points="177.13 103.11 177.6 112.21 172.56 107.42 177.13 103.11"/>
      <polygon class="cls-12" points="163.17 111.77 162.61 103.24 164.16 102.19 164.72 110.72 163.17 111.77"/>
      <path class="cls-12" d="M107.46,112.75l-.73-10.47c4.28,1.65,6.4,6.89.73,10.47Z"/>
      <circle class="cls-7" cx="151.52" cy="104.18" r="2.09"/>
      <path class="cls-8" d="M80.6,106.05l-.23-4.25,6.63-1.81,3.65,6.23-4.37,9.71-4.86-2.02-.13-1.2,5.98-1.8-6.15-2.1-.52-2.76ZM86.79,107.22l-1.42-5.03-3.1.96,1.34,4.15,3.18-.08Z"/>
      <polygon class="cls-2" points="80.38 101.8 80.6 106.05 76.81 106.05 76.89 102.22 80.38 101.8"/>
      <polygon class="cls-2" points="86.79 107.22 83.61 107.3 82.26 103.15 85.36 102.19 86.79 107.22"/>
    </g>
  </g>
</svg>