<?xml version="1.0" encoding="UTF-8"?>
<svg id="Layer_2" data-name="Layer 2" xmlns="http://www.w3.org/2000/svg" viewBox="0 0 138.26 118.41">
  <defs>
    <style>
      .cls-1 {
        fill: #262d3f;
      }

      .cls-2 {
        fill: #a9acba;
      }

      .cls-3 {
        fill: #5b6174;
      }

      .cls-4 {
        fill: #c4c6d0;
      }

      .cls-5 {
        fill: #2c3449;
      }

      .cls-6 {
        fill: #d65c4d;
      }

      .cls-7 {
        fill: #9094a8;
      }

      .cls-8 {
        fill: #646b80;
      }

      .cls-9 {
        fill: #73798f;
      }

      .cls-10 {
        fill: #b2b4c2;
      }

      .cls-11 {
        fill: #a1a3b4;
      }

      .cls-12 {
        fill: #53797c;
      }

      .cls-13 {
        fill: #484f62;
      }

      .cls-14 {
        fill: #313a4f;
      }

      .cls-15 {
        fill: #776998;
      }

      .cls-16 {
        fill: #525a6d;
      }

      .cls-17 {
        fill: #9e4540;
      }

      .cls-18 {
        fill: #989bad;
      }

      .cls-19 {
        fill: #3b4257;
      }

      .cls-20 {
        fill: #7d879d;
      }

      .cls-21 {
        fill: #d6cbc0;
      }

      .cls-22 {
        fill: #b8bac7;
      }
    </style>
  </defs>
  <g id="Layer_1-2" data-name="Layer 1">
    <g>
      <path class="cls-3" d="M29.05,25.07l-1.6,1.89-.5,2.73,2.46,2.82c.53-.32.4-.25-2.05,1.26l4.67,2.96-3.13,2.53,5.06,2.32,3.56,1.21-4.62.63,1.02,2.79,4.07.6-2.24,2.17.77,1.43,3.19.27-.62.93-.23,2.18,1.74,1.07c2.38-.87,2.67-.97,2.37-.85l-2.03,1.97,1.21,1.9,3.25,3.76,1.45.5-.06,1.11,1.16,1.99c-.41.08-2.37.77-1.46.45l-2.67,5.09-3.85-.68-.79-1.93-3.77-.61-1.33-3.47c-2.1-.27-4.11-1.56-3.81-4.21l-2.32-1.37-2.95-1.69.09-2.84-6.39-4.4,3.29-2.64-7.11-3.2-.78-2.9,1.93-.64,3.28-.35-3.64-1.18-2.83-.99.79-.68-.78-3.52,2.96-.37,5.17.07-4.46-1.25-2.89-1.24,4.87-1.87-5.65-3.4-2.31-1.23-3.64-1.77-1.06-.88-.39-1.88-.61-1.94h1.96s1.64.06,1.64.06l.47-.91-.77-1.45.74-1.92,3.11-.34,6.69,4.31,7.28,5.02,3.04,2.58ZM11.41,18.53c-1.15.06-1.67.23-.06.48l.06-.48ZM12.25,20.01l.63-.52-.63.52ZM14.54,20.28l-.5.5.5.5.5-.5-.5-.5Z"/>
      <path class="cls-19" d="M108.11,112.35l-1.63-1.24-2.53,1.23-3.4,1.51c-3.12,1.48-6.06-.32-7.81-3.11l-6.54-8.17,4.65-.85,3.78.04,1.68-1.97,5.36-3.23-1.05-3.21.4-2.29,2.83,1.06,5.95,3.09,4.08.76,9.19,3.48-2.92,3.5-.8,2.52-3.99,2.46-3.07,3.01-4.2,1.4Z"/>
      <path class="cls-7" d="M131.72,8.08l-.76,1.45-1.02,2.82.52.79,1.36.47,2.41.99-1.11,2.27-3.76,3.87-9.12,6.24,3.75-.54,6.39-.42,1.12-.56-.05,1.96,1.33,1.01-1.41,1-2.16-1.27-5.48,3.86,3.59.12.74,3.68-2.66,1.87-1.92.65-.1.81-3.18-.52-3.91,1.08-3,.32-.13-2.87.26-2.38,1.73-1.9-1.24-2.22.12-3.52-2.65-1.95-3.47-.9.75-1.11-.26-1.63,1.65-.02,1.54-.66,12.05-10.9,6.28-5.53c.08.06,1.54,1.18,1.33,1.02l.49,2.63ZM130.65,13.25l-4.33,1.02c.37,2.18.33,1.91.31,1.79l4.02-2.81ZM121.95,18.87h1s2.01-2.09,2.01-2.09l-.5-.5-2.51,2.59ZM120.47,19.28l-.5.5.5.5.5-.5-.5-.5ZM119.47,27.28l-.5.5.5.5.5-.5-.5-.5Z"/>
      <path class="cls-8" d="M125.67,44.25l1.52,3.7-4.29,5.01-2.33,1.73-1.64,1.08.03,2.28-1.99.64-.2,1.6.41,2.37-2.78,3.84-2.91,3.53c-.56.18-.97.84-1.56,2.93l-3.49,2.84-1.76,2.77-3.22.96-1.96,2.91-3.36-.48.02-1.24-1.82-.59-2.3-.9-1.67-.83-.61-1.89,2.64.29,3.58-1.39,4.37-4.89,2.6-4.24,1.33-2.76,1.6-2.02.33-3.42.99-2.92-1.26-1.67,1.65-1.38,1.52-.93,11.32,1.86.24-2.77-2.24-1.67-5.1-1.87c-.9,1.1-.04.05.46-.56l8.87-1.13,3.03-.78Z"/>
      <path class="cls-20" d="M36.76,29.21l2.67,1.48-2.28,1.46,3.32,2.82,8.52,10.32,1.64,2.25-.66,2.68-1.51,1.1.49,2.97-.09,1.98.35,1.47-1.18,1.51-1.17,2.88-1.45-.5-3.25-3.76-1.21-1.9,2.03-1.97c.3-.12,0-.02-2.37.85l-1.74-1.07.23-2.18.62-.93-3.19-.27-.77-1.43,2.24-2.17-4.07-.6-1.02-2.79,4.62-.63-3.56-1.21-5.06-2.32,3.13-2.53-4.67-2.96c2.46-1.51,2.58-1.58,2.05-1.26l-2.46-2.82.5-2.73,1.6-1.89,2.4,1.69,2.87,1.81,2.44.65Z"/>
      <path class="cls-22" d="M91.34,69.6l-2.2,1.8-2.3.31.66,2.02,2.26,2.78.61,1.89,1.67.83.43,2.13,2.31.94-.11,1.88-1.2,1.62-.19,5.22-3.13-.56-1.98-1.45-4.63-4.49-6.87-13-.89-3.27.45-7.04c2.58.52,5.67-.88,7.41-2.91l-.66,6.15,4.46,2.39,3.9,2.77Z"/>
      <polygon class="cls-10" points="113.28 40.04 110.77 41.51 111.5 45.63 108.86 46.12 108.69 45.45 101.88 44.46 98.62 44.03 94.69 42.49 91.92 40.7 97.57 38.64 101.43 38.4 102.79 34.64 102.48 31.2 102.11 30.42 103.01 29.78 102.83 28.48 103.14 26.53 104.17 26.61 107.9 24.29 111.37 25.19 114.02 27.15 113.9 30.67 115.14 32.89 113.41 34.8 113.16 37.17 113.28 40.04"/>
      <path class="cls-7" d="M60.88,76.89c-.04-.05.23.32.76,1.06l2.15-.19.82,4.6,2.25,3.03,6.53,5.51,3.41,1.97-1.09,2.55-7.11-.4-5.55-2.96c-1.18-1.25-1.98-1.96-3.3-2.73l-5.14-7.72.09-1.71-1.22-6.67,7.4,3.66Z"/>
      <path class="cls-13" d="M59.9,61.23l.43,6.62,1.01,3.62-.46,5.41-7.4-3.66,1.22,6.67-1.62-.04-2.95-3.29-4.01-.63-1.31-3.54-3.83-.25-1-2.04,3.85.68,2.67-5.09c-.91.32,1.05-.37,1.46-.45l.19,3.85,2.67,1.47,2.63-1.7,1.04-8.29,5.42.65Z"/>
      <polygon class="cls-12" points="74.25 53.76 72.92 54.93 74.23 56.96 72.09 62.17 68 68.45 61.34 71.48 60.33 67.85 59.9 61.23 61.66 59.95 64.34 58.67 65.24 52.87 67.16 52.01 65.46 49.36 65.9 47.8 67.23 49.12 71.26 51.97 74.25 53.76"/>
      <path class="cls-20" d="M65.9,47.8l-.44,1.56,1.7,2.64-1.92.87-.9,5.8-2.68,1.28-1.77,1.28-5.42-.65-1.04,8.29-2.63,1.7-2.67-1.47-.19-3.85-1.16-1.99,4.53-2.3,2.08-1.45c-.12-.67-.36-1.95-.22-1.18l2.62-4.05-1.91-.79,1.93-2.27,2.8-2,1.33-4.35,5.95,2.94ZM61.18,51.53l-3.63-1.18-.27,4.35,3.89-3.18Z"/>
      <polygon class="cls-18" points="100.19 89.94 101.03 91.06 100.63 93.35 97.29 92.41 94.51 93.13 91.5 97.26 86.21 96.61 84.6 99.56 83.9 101.34 83.13 103.11 80.25 106.78 77.22 105.09 76.61 103.18 75.51 103.55 75.16 101.16 75.04 99.68 75.63 99.65 76.93 100.85 82.45 97.77 86.42 92.72 88.17 89.01 90.15 90.46 93.28 91.01 93.47 85.79 94.67 84.17 95.42 84.75 100.19 89.94"/>
      <path class="cls-15" d="M76.05,54.35l.12,4.66.06,2.19-.45,7.04-3.24,3.67-2.66,3.07-6.1,2.78-2.15.19c-.52-.74-.79-1.11-.76-1.06l.46-5.41,6.66-3.02,4.09-6.28,2.15-5.21-1.32-2.03,1.34-1.17,1.8.6Z"/>
      <path class="cls-3" d="M75.72,95.42l-.08,4.23-.59.03-6.93-2.4-1.33,2.34-5.95,2.68-2.17-1.75.83-9.54.27-1.69c1.32.76,2.12,1.48,3.3,2.73l5.55,2.96,7.11.4ZM66.51,95.28l-.5.5.5.5.5-.5-.5-.5Z"/>
      <path class="cls-6" d="M80.25,106.78l-2.25.14-4.55,3.76.21,3.61-.24,1.81-1.43.17-1.66.35c-.06-.98-.29-4.37-.28-4.2l-6.31-1.69-1.67-1.67.76-1.35,2.15.1-.61-3.27,3.88-.28,1.48,3.46,1.24.16-.05-.91,3.66-.31.93-3.11,1.1-.36.61,1.91,3.03,1.69Z"/>
      <path class="cls-13" d="M10.57,24.19l2.31,1.23,5.65,3.4-4.87,1.87,2.89,1.24,4.46,1.25-5.17-.07-2.96.37.78,3.52-.79.68c-1.1-.73-2.84-2.41-3.78-3.63l2.49-1.62-6.53-5.37.3-2.55,2.8-.96,2.42.62Z"/>
      <path class="cls-11" d="M96.47,33.85l-.9.88-2.27,1.96-3.97,5.81-5.67,12.48-4.57,4.53-2.91-.51-.12-4.66c2.91-.25,6.2-2.28,7.8-5.11l4.88-10.2,4.91-4.78,2.22-2.11.61,1.69Z"/>
      <path class="cls-9" d="M138.21,11.09c-1.24,2.78-3.2,5.64-5.3,7.97l5.2-.2-3.92,7.46-2.73,1.1.05-1.96-1.12.56-6.39.42-3.75.54,9.12-6.24,3.76-3.87,1.11-2.27-2.41-.99,1.26-2.77,2.72-.94,2.39,1.18Z"/>
      <polygon class="cls-3" points="132.78 28.43 134.37 29.28 134.76 31.36 128.73 37.87 131.12 39.57 130.43 42.04 125.67 44.25 129.14 40.58 125.79 38.83 123.38 39.15 123.48 38.35 125.4 37.7 128.06 35.83 127.32 32.15 123.73 32.02 129.21 28.16 131.37 29.43 132.78 28.43"/>
      <polygon class="cls-10" points="52.84 45.32 52.55 45.75 50.62 47.55 48.98 45.3 40.46 34.97 37.14 32.16 39.42 30.7 49.46 39.83 52.84 45.32"/>
      <path class="cls-19" d="M36.76,29.21l-2.44-.65-2.87-1.81-2.4-1.69-3.04-2.58-7.28-5.02-6.69-4.31-3.11.34-.74,1.92-2.92-1.32-1.77-1.47L.03,5.48c3.34.79,4.6,1.34,7.02,2.67l17.71,12.11,10.31,7.23,1.68,1.72Z"/>
      <path class="cls-7" d="M55.85,45.23c.14,1.05,2.29.94,2.26-.17l1.84-.21-1.33,4.35-2.8,2-1.93,2.27-4.07-.09.15-3.16.66-2.68,1.92-1.8.3-.43,3.01-.09Z"/>
      <path class="cls-1" d="M86.2,102.57l6.54,8.17c1.75,2.79,4.69,4.59,7.81,3.11l3.4-1.51,2.53-1.23,1.63,1.24-2.07,1.09-3.55,1.42-2.49.58-4.96.23-5.69-6.99-2.83-3.94-3.37-1.64.77-1.77,2.3,1.23Z"/>
      <polygon class="cls-19" points="75.04 99.68 75.16 101.16 69.5 99.25 62.09 104.43 60.91 102.9 60.83 102.3 66.78 99.62 68.11 97.28 75.04 99.68"/>
      <path class="cls-19" d="M3.87,14.29l1.83,1.31,2.77,2.17-1.64-.06h-1.96s.61,1.94.61,1.94l.39,1.88c-2.24-1.6-3.96-3.64-5.86-6.99l3.87-.26Z"/>
      <path class="cls-13" d="M132.91,8.11l-1.19-.03-.49-2.63c.21.16-1.25-.96-1.33-1.02l-6.28,5.53-12.05,10.9-1.54.66,2.09-2.89,9.07-7.97,10.4-9.77,2.09-.9.54,3.03-1.33,5.08Z"/>
      <path class="cls-13" d="M138.21,11.09l-2.39-1.18-2.72.94-1.26,2.77-1.36-.47-.52-.79c1.63-.89,2.79-2.68,2.96-4.24l1.62.79,3.73-1.53-.05,3.72Z"/>
      <polygon class="cls-9" points="102.83 28.48 101.94 28.79 102.11 30.42 102.48 31.2 100.72 30.92 96.47 33.85 95.86 32.17 101.02 27.31 103.14 26.53 102.83 28.48"/>
      <polygon class="cls-14" points="96.14 81.95 94.78 82.29 92.47 81.35 92.04 79.22 94.34 80.12 96.16 80.71 96.14 81.95"/>
      <polygon class="cls-4" points="8.18 15.41 8.95 16.86 8.47 17.78 5.7 15.6 3.87 14.29 5.26 14.09 8.18 15.41"/>
      <path class="cls-13" d="M120.57,54.69c.27.85-.03,3.66.02,3.21l-2.22,2.27-1.6.12.2-1.6,1.99-.64-.03-2.28,1.64-1.08Z"/>
      <polygon class="cls-19" points="107.9 24.29 104.17 26.61 105.92 25.09 108.39 21.55 108.65 23.18 107.9 24.29"/>
      <polygon class="cls-19" points="10.57 24.19 8.14 23.57 6.93 22.42 10.57 24.19"/>
      <path class="cls-9" d="M101.03,91.06l-.83-1.12.83,1.12Z"/>
      <polygon class="cls-13" points="53.4 59.5 51.32 60.95 46.79 63.25 46.84 62.15 48.02 59.27 50.52 59.97 53.4 59.5"/>
      <path class="cls-19" d="M11.35,19.01c-1.61-.26-1.09-.42.06-.48l1.47.96-.63.52-.91-1Z"/>
      <rect class="cls-19" x="14.19" y="20.43" width=".71" height=".71" transform="translate(-10.44 16.36) rotate(-44.98)"/>
      <polygon class="cls-9" points="100.63 93.35 101.67 96.56 96.31 99.79 94.64 101.76 90.85 101.72 86.2 102.57 83.9 101.34 84.6 99.56 86.21 96.61 91.5 97.26 94.51 93.13 97.29 92.41 100.63 93.35"/>
      <path class="cls-20" d="M123.38,39.15l2.41-.32,3.36,1.75-3.47,3.67-3.03.78-8.87,1.13c-.5.61-1.36,1.66-.46.56l5.1,1.87,2.24,1.67-.24,2.77-11.32-1.86.32-2.9-.56-2.15,2.65-.49-.74-4.12,2.52-1.47,3-.32,3.91-1.08,3.18.52Z"/>
      <path class="cls-3" d="M130.65,13.25l-4.02,2.81c.02.13.07.39-.31-1.79l4.33-1.02Z"/>
      <polygon class="cls-3" points="121.95 18.87 124.46 16.28 124.96 16.78 122.95 18.88 121.95 18.87"/>
      <rect class="cls-3" x="120.12" y="19.43" width=".71" height=".71" transform="translate(21.27 90.94) rotate(-44.98)"/>
      <rect class="cls-9" x="119.12" y="27.43" width=".71" height=".71" transform="translate(15.32 92.58) rotate(-44.98)"/>
      <polygon class="cls-11" points="108.86 46.12 109.42 48.27 109.1 51.18 107.57 52.11 105.93 53.49 107.19 55.16 106.2 58.08 105.87 61.5 104.27 63.51 102.94 66.27 100.34 70.52 95.98 75.41 92.4 76.8 89.76 76.51 87.5 73.73 86.84 71.71 89.14 71.4 91.34 69.6 96.43 61.54 98.81 52.19 98.7 48.28 98.62 44.03 101.88 44.46 108.69 45.45 108.86 46.12"/>
      <path class="cls-16" d="M53.88,53.48l1.91.79-2.62,4.05c-.14-.77.1.52.22,1.18l-2.87.47-2.51-.71,1.18-1.51,2.62-.27c-.18.18.1-.1,1.14-1.11l-4.1-.09.09-1.98-.49-2.97,1.51-1.1-.15,3.16,4.07.09Z"/>
      <path class="cls-21" d="M49.2,57.76l-.35-1.47,4.1.09c-1.04,1.01-1.32,1.28-1.14,1.11l-2.62.27Z"/>
      <path class="cls-4" d="M102.48,31.2l.32,3.44-1.36,3.76-3.86.24-5.65,2.06,2.77,1.78,3.93,1.55.08,4.25.1,3.9-2.37,9.35-5.09,8.06-3.9-2.77-4.46-2.39.66-6.15c-1.74,2.03-4.83,3.43-7.41,2.91l-.06-2.19,2.91.51,4.57-4.53,5.67-12.48,3.97-5.81,2.27-1.96.9-.88,4.26-2.93,1.75.28Z"/>
      <polygon class="cls-2" points="88.17 89.01 86.42 92.72 82.45 97.77 76.93 100.85 75.63 99.65 75.72 95.42 76.81 92.87 73.39 90.91 66.86 85.39 64.61 82.36 63.79 77.76 69.88 74.98 72.54 71.91 75.78 68.24 76.67 71.51 83.54 84.52 88.17 89.01"/>
      <polygon class="cls-4" points="102.11 30.42 101.94 28.79 102.83 28.48 103.01 29.78 102.11 30.42"/>
      <polygon class="cls-5" points="61.18 51.53 57.28 54.7 57.55 50.35 61.18 51.53"/>
      <rect class="cls-19" x="66.15" y="95.43" width=".71" height=".71" transform="translate(-48.24 75.04) rotate(-44.98)"/>
      <polygon class="cls-17" points="70.92 106.96 70.98 107.88 69.73 107.72 68.26 104.26 70.92 106.96"/>
      <polygon class="cls-6" points="58.66 100.55 60.83 102.3 60.91 102.9 54.27 104.81 55.59 108.44 53.87 111.42 52.05 110.63 53.05 107.6 49.02 104.48 44.95 102.47 45.95 101.26 48.15 101.04 45.07 97.57 49.05 97.4 53.53 102.48 58.66 100.55"/>
      <polygon class="cls-8" points="45.95 101.26 44.95 102.47 43.42 102.29 42.96 100.72 45.27 99.92 45.95 101.26"/>
      <path class="cls-20" d="M58.11,45.06c.03,1.11-2.13,1.21-2.26.17l1.61-1.04.65.87Z"/>
      <polygon class="cls-13" points="72 116.27 71.94 118.41 69.97 117.92 70.33 116.62 72 116.27"/>
    </g>
  </g>
</svg>