<?xml version="1.0" encoding="UTF-8"?>
<svg id="Layer_2" data-name="Layer 2" xmlns="http://www.w3.org/2000/svg" viewBox="0 0 109.42 66.89">
  <defs>
    <style>
      .cls-1 {
        fill: #878da2;
      }

      .cls-2 {
        fill: #262d3f;
      }

      .cls-3 {
        fill: #5b6174;
      }

      .cls-4 {
        fill: #2c3449;
      }

      .cls-5 {
        fill: #d65c4d;
      }

      .cls-6 {
        fill: #9094a8;
      }

      .cls-7 {
        fill: #646b80;
      }

      .cls-8 {
        fill: #b2b4c2;
      }

      .cls-9 {
        fill: #a1a3b4;
      }

      .cls-10 {
        fill: #ececef;
      }

      .cls-11 {
        fill: #484f62;
      }

      .cls-12 {
        fill: #525a6d;
      }

      .cls-13 {
        fill: #9e4540;
      }

      .cls-14 {
        fill: #d5d6db;
      }

      .cls-15 {
        fill: #989bad;
      }

      .cls-16 {
        fill: #3b4257;
      }

      .cls-17 {
        fill: #7d879d;
      }

      .cls-18 {
        fill: #b8bac7;
      }
    </style>
  </defs>
  <g id="Layer_1-2" data-name="Layer 1">
    <g>
      <polygon class="cls-4" points="68.59 63.63 68.53 61.51 70.63 61.22 71.64 63.28 68.59 63.63"/>
      <path class="cls-18" d="M62.75,1.2l.67,1.65,4.14,2.15,1.61,2.56,1.71,7.03.62,4.17-.91,4.9-1.71,4.24-1.96,3.96-2.5,4.22c-1.16,1.54-4.61,2.39-6.86,2.08-2.29-.25-4.25-1.72-6.05-4.24l-3.17,1.08-4.89-5.16-2.73-1.23.17-3.69,1.95-1c4.47-1.47,6.55-6.33,5.7-11.02l-6.67-4.5-1.58-.47-1.54-.87-3.08-.26-.96-.18-1.59.41-2.54-1.57.31-1.69,12.71-3.77,19.19,1.2Z"/>
      <path class="cls-4" d="M81.8,4.45l.62,1.4.75,2.5c1.53,2.96,2.02,6.37,1.75,9.44l-.9,2.28-1.04,3.27-.69,2.84,2.52,1.54,4.2-2.66,1.16-1.4.79,1.45,1.28,1.54-4.09,1.02-3.46,4.13-1.64,1.27-1.09,1.82-1.3-.99-.74-1.4-4.01,2.03c.77.68-.18-.16-.55-.48l4.64-8.09.93-2.96c1.38-6.37-1.12-12.95-5.93-17.41l-.15,2.98,2.12,9.12-1.3,7.2-3.58,7.17-4.5,4.74,3.99-.9,2.99-1.51-.13,1.54-4.69,2.06-9.01,1.41-2.02-.24-1.19-1.01c2.25.31,5.7-.55,6.86-2.08l2.5-4.22,1.96-3.96,1.71-4.24.91-4.9-.62-4.17-1.71-7.03-1.61-2.56-4.14-2.15-.67-1.65,4.77,1.12,3.03.5,4.07.07,7.19,1.56Z"/>
      <path class="cls-16" d="M98,15.72l-1.31-.79-2.98,4.82,2.92-2.31,1.81,1.24,5.84.22,2.51.77,2.04.95-6.05,2.18-4.07.51-2.89,1.25-4.87.54-.79-1.45-1.16,1.4-4.2,2.66-2.52-1.54.69-2.84,1.04-3.27.9-2.28,2.44-1.71c.75-2.95.68-5.47-1-8.81l.3-1.56,8.28.06.65-.97,7.75.43-.05,3.68-5.27,6.82ZM92.16,20.71l-.5.5v1l.5.5.5-.5v-1l-.5-.5Z"/>
      <path class="cls-17" d="M72.13,41.87l.97,2.54c-1.08.97-1.64,2.26-1.66,4.52l-2.18,3.98-2.49,1.06-.58-.88-.98.49-2.06-.72-2.26-1.01-10.26,2.08-1.82-.82-4.54,1.03-3.66-.45-4.99-1.1-.03-1.47-1.57-.58-6.99-3.38,1.66.14,2.32-.96.13-1.24,3.02-.68,2.34-2.84,2.36-.16,4.92,5.52,5.77,2.4,6.45.02,6.95-.21,4.7-5.81,4.47-1.49Z"/>
      <path class="cls-7" d="M19.94,9.75l3.19,3.17.93,2.95-1.71.26-2.24,4.69,1.48,3.19-.23,2.15-2.54.86.04,3.1,1.96,1.66-1.48.47-1.68.98-.08,1.63-6.21-.05-.05-3.18-3.24-.68-.69-2.09-2.08-.04-1.14-2.5-1.92-1.44.06-2.25c1.54-4.38,3.99-8.06,7.4-10.31.97.1.42.67-.24,1.36l-1.9,3.25,3.95,5.27,2.2.08-.79,1.81-.23,3.48,3.12-.38.98-1.39,1.04-.62-.79-1.82-.77-1.66-1.68-.03,2.73-3.84,1.5-4.48-4.9-2.2-1.22-.26,2-.77,5.23-.36Z"/>
      <polygon class="cls-16" points="17.59 34.85 19.19 35.71 20.82 40.62 26.11 42.02 28.41 40.51 30.08 42.34 31.16 45.11 31.03 46.35 28.7 47.3 27.04 47.16 34.03 50.54 35.6 51.12 35.63 52.59 30.5 50.9 27.67 49.34 24.66 47.58 17.03 38.63 16.02 35.64 9.78 37.39 4.53 44.48 3.68 38.72 4.2 35.48 10.05 35.36 9.21 32.85 4.37 32.95 3.63 31.61 2.24 24.88 4.16 26.31 5.31 28.81 7.39 28.86 8.08 30.95 11.33 31.63 11.38 34.81 17.59 34.85"/>
      <path class="cls-13" d="M50.64,53.92l-5.29,4.48.44,2.06.1,2.77,2.23-1.7,3.14-.33.69.44-2.25,1.39,1.24,2.29-4.07-.16c.1.48.13.61-.43-2.03l-5.6.62-4.84.85-4.96-.73-1.43-.54.8-3.28,2.27.21,7.3-.17,2.57-3.47,1.72-2.48,4.54-1.03,1.82.82Z"/>
      <polygon class="cls-5" points="66.91 54.56 63.85 60.38 68.53 61.51 68.59 63.63 60.99 65.36 58.83 66.89 58.49 64.4 56.69 65.48 50.94 65.32 49.7 63.03 51.96 61.65 59.88 60.45 62.33 55.52 64.22 55.14 66.91 54.56"/>
      <polygon class="cls-12" points="30.55 5.46 33.09 7.03 32.46 8.6 28.39 12.66 29.18 14.77 30.83 14.8 29.25 19.08 27.89 20.66 25.49 20.83 24.06 15.87 23.14 12.92 19.94 9.75 26.63 6.49 30.55 5.46"/>
      <path class="cls-1" d="M14.59,21.67l-.87.62-2.2-.08-3.95-5.27,1.9-3.25c.67-.7,1.21-1.27.24-1.36l3-1.44,1.22.26,4.9,2.2-1.5,4.48-2.73,3.84Z"/>
      <polygon class="cls-16" points="5.48 45.37 8.25 47.88 5.1 51.95 .58 51 0 45.94 3.16 44.99 1.29 47.85 3.67 50.47 6.29 47.92 5.48 45.37"/>
      <polygon class="cls-4" points="98 15.72 97.76 16.6 102.72 16.97 107.19 17.69 109.42 19.29 108.84 20.63 106.79 19.68 104.29 18.91 98.45 18.69 96.63 17.45 93.71 19.76 96.69 14.94 98 15.72"/>
      <polygon class="cls-2" points="92.24 26.66 90.96 25.12 95.83 24.58 98.72 23.33 102.79 22.81 108.84 20.63 106 23.79 103.33 24.24 99.23 25.48 92.75 25.83 92.24 26.66"/>
      <path class="cls-16" d="M79.91,32.52l-.3,2.7,1.21.64-2.08,2.65-4.17,3.92-1.46,1.99-.97-2.54,3.82-1.6,1.61-2.91-1.36-2.02-1.74.59.13-1.54.76-.34c.37.32,1.32,1.17.55.48l4.01-2.03Z"/>
      <polygon class="cls-9" points="4.2 35.48 4.37 32.95 9.21 32.85 10.05 35.36 4.2 35.48"/>
      <polygon class="cls-5" points="5.48 45.37 6.29 47.92 3.67 50.47 1.29 47.85 3.16 44.99 5.48 45.37"/>
      <polygon class="cls-2" points="95.58 4.79 94.93 5.76 86.65 5.7 82.42 5.85 81.8 4.45 95.58 4.79"/>
      <path class="cls-4" d="M30.41,60.04l-.8,3.28-2.76-.2c.73-.82,2.22-2.09,3.57-3.08Z"/>
      <polygon class="cls-16" points="66.78 53.97 66.91 54.56 64.22 55.14 62.33 55.52 63.16 52.85 65.22 53.58 66.21 53.08 66.78 53.97"/>
      <polygon class="cls-15" points="81.96 34.91 80.82 35.85 79.61 35.22 79.91 32.52 80.65 33.92 81.96 34.91"/>
      <polygon class="cls-2" points="58.83 66.89 57.14 66.74 56.69 65.48 58.49 64.4 58.83 66.89"/>
      <path class="cls-15" d="M57.56,38.16l1.19,1.01,2.02.24,9.01-1.41,4.69-2.06,1.74-.59,1.36,2.02-1.61,2.91-3.82,1.6-4.47,1.49-4.7,5.81-6.95.21-6.45-.02-5.77-2.4-4.92-5.52-2.36.16,1.51-2.76.86-3.16,1.12-6.79.69-.27,2.73,1.23,4.89,5.16,3.17-1.08c1.81,2.51,3.76,3.99,6.05,4.24Z"/>
      <polygon class="cls-3" points="27.79 22.71 29.67 22.54 29.69 24.37 31.78 24.51 37.53 26.68 40.02 24.88 40.88 24.92 40.71 28.61 40.02 28.88 38.9 35.67 38.03 38.83 36.52 41.59 34.18 44.43 31.16 45.11 30.08 42.34 28.41 40.51 30.02 36.48 34.26 33.86 30.06 30.48 25.72 27.45 25.23 27.54 20.83 31.78 18.87 30.12 18.83 27.02 21.37 26.15 21.6 24 25.62 22.87 27.79 22.71"/>
      <polygon class="cls-17" points="34.69 6.62 35.64 6.8 38.73 7.06 40.27 7.92 39.32 19.63 40.02 24.88 35.71 23.77 29.67 22.54 27.79 22.71 27.89 20.66 29.25 19.08 30.83 14.8 32.17 14.03 33.89 11.25 32.46 8.6 33.09 7.03 34.69 6.62"/>
      <path class="cls-14" d="M40.88,24.92l-.85-.04-.7-5.25.95-11.71,1.58.47,6.67,4.5c.86,4.7-1.23,9.55-5.7,11.02l-1.95,1Z"/>
      <path class="cls-12" d="M34.69,6.62l.96.18-.96-.18Z"/>
      <path class="cls-8" d="M75.35,34.06l-.76.34-2.99,1.51-3.99.9,4.5-4.74,3.58-7.17,1.3-7.2-2.12-9.12.15-2.98c4.81,4.46,7.31,11.03,5.93,17.41l-.93,2.96-4.64,8.09Z"/>
      <path class="cls-6" d="M86.65,5.7l-.3,1.56c1.69,3.34,1.76,5.87,1,8.81l-2.44,1.71c.28-3.07-.21-6.48-1.75-9.44l-.75-2.5,4.23-.15Z"/>
      <polygon class="cls-4" points="92.16 20.71 92.66 21.21 92.66 22.21 92.16 22.71 91.66 22.21 91.66 21.21 92.16 20.71"/>
      <polygon class="cls-10" points="63.16 52.85 62.33 55.52 59.88 60.45 51.96 61.65 51.27 61.21 50.58 59.88 48.33 60.4 45.79 60.47 45.35 58.4 50.64 53.92 60.9 51.85 63.16 52.85"/>
      <polygon class="cls-11" points="28.41 40.51 26.11 42.02 20.82 40.62 19.19 35.71 17.59 34.85 17.67 33.23 19.35 32.25 20.83 31.78 25.23 27.54 25.72 27.45 30.06 30.48 34.26 33.86 30.02 36.48 28.41 40.51"/>
      <polygon class="cls-6" points="25.49 20.83 25.62 22.87 21.6 24 20.12 20.82 22.36 16.13 24.06 15.87 25.49 20.83"/>
      <polygon class="cls-2" points="16.8 25.8 15.81 27.19 12.69 27.57 12.93 24.09 13.72 22.28 14.59 21.67 16.8 25.8"/>
      <polygon class="cls-6" points="16.8 25.8 14.59 21.67 16.27 21.7 17.04 23.36 17.83 25.18 16.8 25.8"/>
      <polygon class="cls-4" points="51.27 61.21 48.12 61.54 45.89 63.24 45.79 60.47 48.33 60.4 50.58 59.88 51.27 61.21"/>
      <polygon class="cls-7" points="30.83 14.8 29.18 14.77 28.39 12.66 32.46 8.6 33.89 11.25 32.17 14.03 30.83 14.8"/>
      <polygon class="cls-7" points="27.89 20.66 27.79 22.71 25.62 22.87 25.49 20.83 27.89 20.66"/>
      <polygon class="cls-7" points="40.02 24.88 37.53 26.68 31.78 24.51 29.69 24.37 29.67 22.54 35.71 23.77 40.02 24.88"/>
    </g>
  </g>
</svg>