<?xml version="1.0" encoding="UTF-8"?>
<svg id="Layer_2" data-name="Layer 2" xmlns="http://www.w3.org/2000/svg" viewBox="0 0 80.92 134.35">
  <defs>
    <style>
      .cls-1 {
        fill: #262d3f;
      }

      .cls-2 {
        fill: #5b6174;
      }

      .cls-3 {
        fill: #c4c6d0;
      }

      .cls-4 {
        fill: #2c3449;
      }

      .cls-5 {
        fill: #d65c4d;
      }

      .cls-6 {
        fill: #9094a8;
      }

      .cls-7 {
        fill: #646b80;
      }

      .cls-8 {
        fill: #73798f;
      }

      .cls-9 {
        fill: #b2b4c2;
      }

      .cls-10 {
        fill: #a1a3b4;
      }

      .cls-11 {
        fill: #628489;
      }

      .cls-12 {
        fill: #484f62;
      }

      .cls-13 {
        fill: #313a4f;
      }

      .cls-14 {
        fill: #776998;
      }

      .cls-15 {
        fill: #525a6d;
      }

      .cls-16 {
        fill: #9e4540;
      }

      .cls-17 {
        fill: #3b4257;
      }

      .cls-18 {
        fill: #d6cbc0;
      }
    </style>
  </defs>
  <g id="Layer_1-2" data-name="Layer 1">
    <g>
      <path class="cls-5" d="M26.55,123.87l-.03,4.62h3.16s.37,2.56.37,2.56l-2.12.22-5.16.15-3.15-.32-2.74.49-4.12-.07v-2.8s5.32-.04,5.32-.04c1.53-.65,3.58-1.93,4.49-2.97l1.95-4.39,1.93.15.64,2.01c-1.11.79-1.16.83-.55.39Z"/>
      <polygon class="cls-2" points="12.78 128.72 12.77 131.52 9.09 131.49 10.22 129.07 12.78 128.72"/>
      <polygon class="cls-16" points="22.78 131.42 21.03 132.85 18.74 132.93 16.88 131.59 19.63 131.1 22.78 131.42"/>
      <polygon class="cls-17" points="46.87 132.26 46.5 133.73 44.6 134.35 43.47 131.88 45.26 130.53 46.87 132.26"/>
      <path class="cls-4" d="M48.45,18.58c-.09.32-.7,2.39-.61,2.09l-6.07-2.27,1.57-1.09,2.42,1.15,2.69.12Z"/>
      <polygon class="cls-4" points="35.87 129.52 35.76 132.81 33.22 132.32 32.05 130.37 30.98 128.39 33.78 130.72 35.87 129.52"/>
      <polygon class="cls-17" points="54.96 131.83 53.84 131.01 53.72 129.5 56.59 129.39 56.54 131.47 54.96 131.83"/>
      <polygon class="cls-1" points="32.05 130.37 30.06 131.05 29.68 128.49 30.98 128.39 32.05 130.37"/>
      <path class="cls-10" d="M42.74,49.07l-1.4,3.36c-.96,4.15-1.52,8.77-1.65,12.82l.44,2.26-.21,4.99,1.33,6.1-.27,5.88-.52,3.57-4.46,7.36-8.16,3.97-2.86.86-5.82-3.04-8.47-4.57-2.44-.74-.45-1.55-.62-1.18-.74-3.2-3.29-10.62.4,7.16-.72,2.23-1.33-2.22C.45,77.15-.07,71.96,0,66.6l1.16-5.03,2.92-8.99,1.87-1.19,4.75,3.34,6.43,3.5,1.22.84,1.39-.63.98,1.54,12.71,5.17h3.93s-.54-8.66-.54-8.66l-1.09-3.71,7.02-3.72Z"/>
      <path class="cls-9" d="M63.91,75.47l.15,3.18.11,3.63-1.59,1.79-1.95,3.05-3.85,4.06-4.1,1.96-.63.23-3.25-3.7-.97-2.19-4.97-8.94-1.69-5.77c1.35.3-.78-.17-1.24-.27l.21-4.99-.44-2.26,2.19-1.66,2.75-4.49,2.74-1.21,2.4,1.59,1.66,1.77,2.43-.08,1.12-1.91.97-2.99,1.12,1.07,6.46,13.73.38,4.4Z"/>
      <polygon class="cls-14" points="37.7 34.58 39.42 33.89 40.8 37.38 42.48 41.88 43.81 44.12 45.41 44.21 48.41 48.13 45.28 47.3 42.74 49.07 35.72 52.79 32.57 54.11 21.57 58.13 19.74 58.44 18.35 59.07 17.13 58.23 10.7 54.73 5.96 51.38 5.11 50.31 8.32 41.14 10.54 40.61 10.84 38.33 12.73 38.36 16.94 39.58 19.27 39.22 22.81 40.73 30.68 44.12 31.06 38.47 32.1 34.44 34.23 33.46 35.79 34.67 37.7 34.58"/>
      <path class="cls-13" d="M77.21,120.39l-1.92.84-6.11-7.1-.19,3.02-3.04-.95-3.87-1.17-6.21.94-3.01.33,1.65-2.97,8.47-3.7-5.69-6.12c-.56-1.15-1.41-3.7-1.67-4.99l5.22,3.37,3.56-1.85,2.12-1.43c.93-2.89,1.59-5.87,1.99-8.92l.38-2.13,1.82,6.96-.24,2.44,1.77.68.8,3.37,5,11.31.38,2.5-3.1.53-.87.81,2.75,4.21ZM72.44,113.65l.76,1.11,1.12-1.02-.19-.47-1.98-1.26.28,1.64ZM74.59,114l-1.01,1.11.58.74.69-.88-.26-.98Z"/>
      <polygon class="cls-1" points="77.21 120.39 80.92 126.06 80.22 128.5 69.17 127.69 66.62 127.84 59.29 126.05 52.94 120.49 51.97 119.7 52.86 116.3 55.87 115.97 62.08 115.03 65.95 116.2 68.98 117.15 69.17 114.13 75.28 121.23 77.21 120.39"/>
      <path class="cls-6" d="M54.51,113.32l-1.65,2.97-.89,3.4h-1.07s-4.84-.07-4.84-.07l-1.59-1.64-1.6-2.36-.4-2.4-2.47-4.83-1.25-3.22,4.44-2.82c1.24-.75,3.19-1.35,5-1.64l6.78,2.1,1.68,2.44-1.42,6.25-.7,1.81Z"/>
      <polygon class="cls-7" points="38.74 105.18 40 108.4 42.46 113.23 36.81 112.78 34.66 111.97 34.51 110.36 31.46 110.57 31.05 112.41 30.98 116.61 29.77 117.99 30.8 118.8 29.47 119.89 24.84 119.41 21.2 113.2 14.88 103.47 11.99 100.89 13.12 100.33 15.91 100.51 29.56 109.28 31.68 107.72 36.75 107.09 38.74 105.18"/>
      <path class="cls-8" d="M38.01,16.68l.73,1.94-3.58,1.95-2.8,2.45-2.62,1.41-1.18,1.29-4.47-2.38-3.12-2.22-1.36-.3-3.34-3.88-1.59-2.31,3.9-9.38,4.17-3.2c.84.54,1,.51-.48.77l-.11,2.85,3.1,1.36-1.47,3.16-3.04,4.27-.91,1.76,1.97.34c5.71-1.17,11.11-1.21,16.18.11Z"/>
      <path class="cls-10" d="M38.83,3.21l-.73.6,1.21,3.47-7.44,1.33-1.81-1.49-1.67-.75-.62,1.09-1.98,1.56.98,3.12,2.8.23,2.27.18,3.03,1.06,2.95,1.17.18,1.89c-5.07-1.32-10.47-1.27-16.18-.11l-1.97-.34.91-1.76,3.04-4.27,1.47-3.16-3.1-1.36.11-2.85c1.47-.26,1.32-.24.48-.77l.13-.27,4.91-1.77,6.93.32,4.1,2.89Z"/>
      <path class="cls-3" d="M48.41,48.13c2.69,2.45,5.34,5.31,7.54,8.14l-.97,2.99-1.12,1.91-2.43.08-1.66-1.77-2.4-1.59-2.74,1.21-2.75,4.49-2.19,1.66c.13-4.05.69-8.67,1.65-12.82l1.4-3.36,2.54-1.77,3.13.83Z"/>
      <path class="cls-15" d="M48.45,18.58l-2.69-.12-2.42-1.15-1.57,1.09-2.38,2.11-.43,7.53,5.35,13.9,1.1,2.28-1.6-.09-1.34-2.25-1.67-4.5-1.38-3.49-1.72.69.58-4.7-1.54-3.59-5.8-.59-2.38.02,1.18-1.29,2.62-1.41,2.8-2.45,3.58-1.95-.73-1.94-.18-1.89,6.13-1.03,4.49,4.82ZM39.37,16.49l-.5.5.5.5.5-.5-.5-.5Z"/>
      <path class="cls-5" d="M49.5,124l.16,1.07-.89,2.73,4.95,1.7.12,1.5,1.12.82-2.08.06-6.01.37-1.61-1.74-1.79,1.35-2.63.36-3.61.81-1.47-.24.12-3.29,8.47-1.23.64-4.31c-.2.11.64-.37.89-.52l2.41-.92,1.23,1.46Z"/>
      <path class="cls-4" d="M67.16,84.49l-.12,1.2c-.59,3.92-3.24,7.89-6.73,10.08l-5.37-.28-2.27-2.34,4.1-1.96,3.85-4.06,1.95-3.05,1.59-1.79,1.83-.05,1.16,2.25Z"/>
      <path class="cls-9" d="M68.9,87.56l-.38,2.13c-.4,3.05-1.06,6.03-1.99,8.92l-2.12,1.43-3.56,1.85-5.22-3.37-.67-3.04,5.37.28c3.49-2.19,6.15-6.16,6.73-10.08l1.96.22-.1,1.66Z"/>
      <polygon class="cls-8" points="37.83 14.79 34.88 13.61 31.85 12.56 31.87 8.61 39.31 7.28 38.1 3.81 38.83 3.21 41.79 6.83 42.25 11.83 39.83 12.44 37.83 14.79"/>
      <polygon class="cls-17" points="16.27 16.94 15 18.83 14.76 24.53 13.58 28.51 12.69 32.58 11.69 35.54 10.84 38.33 10.54 40.61 8.32 41.14 9.27 37.91 11.99 29.5 12.63 27.15 13.15 20.82 13.78 18.53 14.68 14.63 16.27 16.94"/>
      <polygon class="cls-8" points="7.18 89.17 7.13 90.98 5.58 91.64 4.72 89.53 2.83 84.74 3.55 82.51 3.15 75.35 6.44 85.97 7.18 89.17"/>
      <polygon class="cls-1" points="8.26 91.9 10.55 96.62 13.12 100.33 11.99 100.89 5.58 91.64 7.13 90.98 7.18 89.17 7.8 90.35 8.26 91.9"/>
      <polygon class="cls-12" points="50.9 119.69 49.5 124 48.27 122.54 45.86 123.46 46.06 119.63 50.9 119.69"/>
      <polygon class="cls-1" points="66.01 78.46 66.43 80.47 67.16 84.49 66 82.23 64.17 82.28 64.05 78.65 66.01 78.46"/>
      <path class="cls-16" d="M29.47,119.89l-1.27.85-1.65,3.13c-.61.44-.56.4.55-.39l-.64-2.01-1.93-.15.32-1.91,4.63.48Z"/>
      <polygon class="cls-4" points="66.01 78.46 64.05 78.65 63.91 75.47 65.78 75.53 66.01 78.46"/>
      <path class="cls-8" d="M47.83,87.48l-.84.48,2.73,4.52,1.29,2.21.96-.71.07-.61.63-.23,2.27,2.34.67,3.04c.26,1.29,1.11,3.83,1.67,4.99l5.69,6.12-8.47,3.7.7-1.81,1.42-6.25-1.68-2.44-6.78-2.1c-1.8.29-3.75.88-5,1.64l-4.44,2.82-2,1.91-5.07.63-2.12,1.56-13.65-8.77-2.79-.18-2.56-3.71-2.3-4.72,2.44.74,8.47,4.57,5.82,3.04,2.86-.86,8.16-3.97,4.46-7.36.52-3.57.27-5.88-1.33-6.1c.46.1,2.59.57,1.24.27l1.69,5.77,4.97,8.94ZM52.36,94.43l-.5.56.49.51.49-.5-.48-.58ZM53.25,96.01h1.1s-1.1,0-1.1,0Z"/>
      <polygon class="cls-9" points="35.72 52.79 36.82 56.5 37.36 65.15 33.43 65.16 20.72 59.99 19.74 58.44 21.57 58.13 32.57 54.11 35.72 52.79"/>
      <polygon class="cls-13" points="52.05 93.37 51.97 93.99 52.36 94.43 52.84 95.01 54.34 96 53.25 96.01 52.35 95.51 51.86 94.99 51.01 94.69 49.71 92.48 46.98 87.96 47.83 87.48 48.79 89.67 52.05 93.37"/>
      <polygon class="cls-11" points="28.56 25.72 30.94 25.7 36.74 26.29 38.28 29.88 37.7 34.58 35.79 34.67 34.23 33.46 32.1 34.44 31.06 38.47 30.68 44.12 22.81 40.73 19.27 39.22 16.03 33.86 18.83 24.45 20.97 21.12 24.09 23.35 28.56 25.72"/>
      <polygon class="cls-15" points="20.97 21.12 18.83 24.45 16.03 33.86 19.27 39.22 16.94 39.58 16.9 37.9 14.65 37.1 12.73 38.36 10.84 38.33 11.69 35.54 12.69 32.58 13.58 28.51 14.76 24.53 15 18.83 16.27 16.94 19.61 20.82 20.97 21.12"/>
      <polygon class="cls-11" points="16.94 39.58 12.73 38.36 14.65 37.1 16.9 37.9 16.94 39.58"/>
      <polygon class="cls-8" points="74.14 113.27 72.44 113.65 72.16 112.02 74.14 113.27"/>
      <polygon class="cls-17" points="34.66 111.97 36.81 112.78 42.46 113.23 42.86 115.63 39.23 115.22 36.91 114.53 33.06 113.41 30.8 118.8 29.77 117.99 30.98 116.61 31.05 112.41 31.46 110.57 32.58 111.55 34.66 111.97"/>
      <polygon class="cls-8" points="34.66 111.97 32.58 111.55 31.46 110.57 34.51 110.36 34.66 111.97"/>
      <polygon class="cls-1" points="29.58 12.37 26.78 12.14 25.8 9.02 27.78 7.46 31.13 8.93 29.58 12.37"/>
      <polygon class="cls-18" points="31.87 8.61 31.85 12.56 29.58 12.37 31.13 8.93 27.78 7.46 28.4 6.37 30.06 7.12 31.87 8.61"/>
      <rect class="cls-10" x="39.02" y="16.63" width=".71" height=".71" transform="translate(-.48 32.8) rotate(-44.98)"/>
    </g>
  </g>
</svg>