<?xml version="1.0" encoding="UTF-8"?>
<svg id="Layer_2" data-name="Layer 2" xmlns="http://www.w3.org/2000/svg" viewBox="0 0 106.75 96.46">
  <defs>
    <style>
      .cls-1 {
        fill: #878da2;
      }

      .cls-2 {
        fill: #262d3f;
      }

      .cls-3 {
        fill: #5b6174;
      }

      .cls-4 {
        fill: #c4c6d0;
      }

      .cls-5 {
        fill: #2c3449;
      }

      .cls-6 {
        fill: #646b80;
      }

      .cls-7 {
        fill: #73798f;
      }

      .cls-8 {
        fill: #b2b4c2;
      }

      .cls-9 {
        fill: #53797c;
      }

      .cls-10 {
        fill: #484f62;
      }

      .cls-11 {
        fill: #313a4f;
      }

      .cls-12 {
        fill: #776998;
      }

      .cls-13 {
        fill: #9e4540;
      }

      .cls-14 {
        fill: #989bad;
      }

      .cls-15 {
        fill: #3b4257;
      }

      .cls-16 {
        fill: #7d879d;
      }
    </style>
  </defs>
  <g id="Layer_1-2" data-name="Layer 1">
    <g>
      <path class="cls-14" d="M59.45,18.32l2.94,1.23,8.6,8.85.85,5.04-2.27,1.75-.88,2.72-.23,8.75-1.01,2.35.64,2.56,2.16,9.57c-5.53-.11-12.08.32-17.34,1.47l-4.33,1.13-.53-1.27-1.46.42-1.08-1.47-2.64-5.5-.25-3.38-.09-6.14,1.17-4.86-.44-2.46,1.6-1.59-2.86-3.57-1.58-3.45-1.92-2.78-1.06-2.58-.65-4.38-2.19-3.69,2.97-1.22-1.22-2.03.24-1.29,5.52.08,8.62,2.48c2.95.87,6.09,3,8.62,5.07l.1-1.82ZM70.02,30.54l-.5.5v1l.5.5.58-.5-.08-1-.5-.5Z"/>
      <path class="cls-10" d="M26.73,5.28l.77,1.91,3.15.67,3.9.63.25.58,2.57,1.79-.78,1.63-.24,1.29,1.22,2.03-2.97,1.22,2.19,3.69.65,4.38,1.06,2.58-4.33-.78-7.93-.67-5.6,2.2-1.66,1.73-2.52-1.53-1.17-1.71,1.59-1.92-1.54-1.38c1.85-.87.35-.98-.34-.88l-3.73-.98-.98-1.15.23-1.66,2.08-.76,4.34,1.07,6.08.35.56-.74-3.75-.68-2.35-.63-4.78-1.66-1.35-1.72-1.09,1.08-.75-.63-.19-1.63-2.33-2.23,2.8-.24,2.06-.69,5.01-.21-7.66-7.17,2.06-2.46,12.11,3.79,3.34,1.5ZM24.55,12.03l-3.08-1.64-3.06,1.94,5.64.28.5-.57ZM25.09,12.44l-.53.86,3.17-.13-2.65-.73Z"/>
      <path class="cls-4" d="M70.59,35.38l.16,6.79-.17,1.4-.78,2.33-.4,2.65.51,5.39,1.77,4.67,1.07,4.05.03,3.84-.43,4.01c-3.29.44-6.67,1.94-9.79,3.88l-8.98,5.11-7.41,2.07-2.04-6.56-4.91-1.24-1.67.4-5.13.04.56-2.24,5.31-3.95,2.6-1.19,5.69-2.3,1.99-.79,4.33-1.13c5.26-1.15,11.81-1.58,17.34-1.47l-2.16-9.57-.64-2.56,1.01-2.35.23-8.75.88-2.72,2.27-1.75-1.25,1.94Z"/>
      <path class="cls-3" d="M38.51,27.7l1.92,2.78,1.58,3.45,2.86,3.57-1.6,1.59.44,2.46-1.17,4.86.09,6.14.25,3.38,2.64,5.5,1.08,1.47-1.93.9-3.68.88-1.72.09-2.45-.8-1.66-4.89-.18-6.29-1.24-2.88,2.05-2.08-2.8-.16-.82-2.52,2.18-.76,3.34-2.6-3.85.43-2.33.61c-2.3-.51-4.22-2.63-4.1-5.42l-5.2-3.2-.39-2.59-2.82-1.44,1.66-1.73,5.6-2.2,7.93.67,4.33.78Z"/>
      <path class="cls-1" d="M72.36,70.5c.37,3.3,1.26,6.87,2.49,10.38l.74,2.15-7.97,3.65-4.83,1.38-11.31.84-1.86-.88-1.57-1.22-2.25-3.95.4-1.3,7.41-2.07,8.98-5.11c3.12-1.95,6.5-3.44,9.79-3.88Z"/>
      <polygon class="cls-11" points="26.07 71.87 26.38 74.33 25.06 74.85 18.51 78.51 20.72 79.47 22.8 81.34 28.13 81.41 28.28 83.17 24.56 83.36 10.75 86.3 3.42 84.7 0 83.03 1.33 79.87 4.53 78.08 3.96 75.66 6.91 74.19 21.6 72.94 26.07 71.87"/>
      <path class="cls-16" d="M88.5,44.47l-.05,3.74-.03,1.08-.1.68-6.9,5.67-.81.85-2.51.94-4.3-.69,4.39,4.26,1.48,2.2-1.09,2.55-2.68-2.51-3.13-.6-1.07-4.05-1.77-4.67-.51-5.39,2.11-.42.17-2.83-1.11-1.73.17-1.4,1.31-.53,3.33.78c-.42-.5.76.9,1.63,1.92l7.57,1.01,3.91-.87Z"/>
      <path class="cls-16" d="M101.83,62.4l-1.88,2.05.62,2.11-1.69-2.13-1.61,2.54,2.4,1.68.02,2.15-5.84-.55-4.37-.69-1.06-3.95-3.25-.06-.86-2.76-2.91-1.98,6.02-.27,1.07-2.5c4.7-2.31,10.27,0,13.35,4.35ZM96.66,62.63l-2.59.62-.16,2.24,2.1.05.64-2.91Z"/>
      <path class="cls-10" d="M77.61,81.9l1.46-1.79.3-4.72-.89-2.07,2.8-1.08,6.61-1.15,1.6-1.53,4.37.69,5.84.55-.02-2.15.91-2.09-.62-2.11,1.88-2.05,1,5.55,3.93,6.15-2.4-.2-3.84-2.07-6.91,1.85c-3.41.96-7,2.46-10.22,4.47l-5.77,3.74Z"/>
      <polygon class="cls-7" points="26.38 74.33 32.44 74.2 37.57 74.16 34.68 79.75 33.54 82.53 30.53 83.65 28.28 83.17 28.13 81.41 22.8 81.34 20.72 79.47 18.51 78.51 25.06 74.85 26.38 74.33"/>
      <path class="cls-12" d="M78.57,65.77l-.14,1.75.04,5.81.89,2.07-.3,4.72-1.46,1.79-2.02,1.14-.74-2.15c-1.23-3.51-2.12-7.08-2.49-10.38l.43-4.01-.03-3.84,3.13.6,2.68,2.51Z"/>
      <polygon class="cls-14" points="46.19 81.56 45.79 82.86 43.99 82.94 38.25 84.94 36.21 84.24 35.44 85.43 33.51 84.56 33.55 83.54 33.54 82.53 34.68 79.75 37.57 74.16 39.23 73.76 44.14 75 46.19 81.56"/>
      <polygon class="cls-13" points="38.25 84.94 40.49 86.52 40.4 88.43 38.91 90.75 40.68 92.6 41.58 88.63 43.78 87.31 44.5 87.65 44.88 92.18 40.66 95.09 36.25 95.12 32.36 96.46 30.61 96.05 31.28 94.05 30.69 92.25 34.98 90.18 36.76 88.96 35.75 87.13 35.44 85.43 36.21 84.24 38.25 84.94"/>
      <path class="cls-7" d="M78.49,37.74l1.17.41,3.09,3.12c2.66-.13,4.68,1.18,5.75,3.2l-3.91.87-7.57-1.01c-.87-1.02-2.05-2.41-1.63-1.92l-3.33-.78-1.31.53-.16-6.79,1.27,3.4,2.74,1.4.2-3.12c-.85-.08,1.48.14,1.78.16l1.92.51Z"/>
      <polygon class="cls-6" points="80.6 56.51 80.41 58.67 84.47 58.82 88.48 58.05 87.41 60.55 81.39 60.82 84.3 62.8 85.17 65.56 78.43 67.52 78.57 65.77 79.66 63.22 78.18 61.02 73.8 56.76 78.09 57.45 80.6 56.51"/>
      <path class="cls-15" d="M59.45,18.32l-.1,1.82c-2.53-2.07-5.67-4.2-8.62-5.07l-8.62-2.48-5.52-.08.78-1.63-2.57-1.79-.25-.58,5,.9,4.95,2.29,7.14,2.25,7.07,2.86.73,1.51Z"/>
      <polygon class="cls-14" points="40.92 66.82 38.31 68.01 33 71.96 32.44 74.2 26.38 74.33 26.07 71.87 27.97 71.11 37.65 66.93 39.59 66.16 39.27 64.75 40.99 64.67 40.92 66.82"/>
      <path class="cls-10" d="M88.42,49.3l.03-1.08.05-3.74c-1.07-2.02-3.09-3.33-5.75-3.2l-3.09-3.12-1.17-.41.13-3.65,9.92,7.23,1.77,4.31.1,2.55-1.99,1.13Z"/>
      <polygon class="cls-5" points="10.31 20.62 7.79 18.29 12.36 16.14 10.29 15.26 11.38 14.19 12.73 15.91 17.51 17.57 19.86 18.2 23.61 18.88 23.05 19.62 16.97 19.28 12.62 18.2 10.54 18.97 10.31 20.62"/>
      <path class="cls-15" d="M35.16,59.06l-1.32-.54.04-2.31-1.54-3.81c0,.12.02-1.55.02-2.37l-1.76-4.36.91-2.85,2.33-.61,3.85-.43-3.34,2.6-2.18.76.82,2.52,2.8.16-2.05,2.08,1.24,2.88.18,6.29Z"/>
      <polygon class="cls-3" points="45.79 82.86 48.05 86.81 49.62 88.03 47.47 87.61 46.37 87.83 44.5 87.65 43.78 87.31 40.49 86.52 38.25 84.94 43.99 82.94 45.79 82.86"/>
      <polygon class="cls-2" points="11.88 9.84 9.82 10.53 7.02 10.76 6.16 11.54 5.29 10.98 6.24 9.07 11.88 9.84"/>
      <path class="cls-2" d="M34.55,8.5l-3.9-.63-3.15-.67-.77-1.91,3.07.24,2.52,2.01c1.19.31,2.45.65,2.23.97Z"/>
      <polygon class="cls-5" points="9.54 14.63 7.98 14.56 7.34 12.89 6.16 11.54 7.02 10.76 9.35 13 9.54 14.63"/>
      <polygon class="cls-11" points="33.54 82.53 33.55 83.54 32.55 83.53 30.53 83.65 33.54 82.53"/>
      <path class="cls-5" d="M15.36,23.63l-2.15-.68-1.92-1.18,3.73.98c.69-.1,2.19,0,.34.88Z"/>
      <path class="cls-1" d="M46.37,87.83l1.1-.21-1.1.21Z"/>
      <polygon class="cls-7" points="33.51 84.56 32.55 83.53 33.55 83.54 33.51 84.56"/>
      <polygon class="cls-15" points="48.59 63.73 46.6 64.52 40.92 66.82 40.99 64.67 44.67 63.79 46.6 62.89 48.06 62.47 48.59 63.73"/>
      <polygon class="cls-4" points="70.02 30.54 70.52 31.04 70.6 32.04 70.02 32.54 69.52 32.04 69.52 31.04 70.02 30.54"/>
      <polygon class="cls-2" points="24.05 12.6 18.41 12.33 21.47 10.39 24.55 12.03 25.09 12.44 27.73 13.17 24.56 13.3 24.05 12.6"/>
      <polygon class="cls-7" points="69.42 48.56 69.81 45.9 70.59 43.58 71.71 45.3 71.53 48.13 69.42 48.56"/>
      <polygon class="cls-9" points="89.48 69.56 87.88 71.09 81.27 72.24 78.47 73.33 78.43 67.52 85.17 65.56 88.42 65.61 89.48 69.56"/>
      <polygon class="cls-2" points="96.66 62.63 96.02 65.54 93.92 65.48 94.08 63.25 96.66 62.63"/>
      <polygon class="cls-3" points="100.57 66.56 99.67 68.65 97.27 66.98 98.88 64.43 100.57 66.56"/>
      <polygon class="cls-8" points="41.58 88.63 40.68 92.6 38.91 90.75 40.4 88.43 41.58 88.63"/>
      <polygon class="cls-5" points="43.78 87.31 41.58 88.63 40.4 88.43 40.49 86.52 43.78 87.31"/>
    </g>
  </g>
</svg>