<?xml version="1.0" encoding="UTF-8"?>
<svg id="Layer_2" data-name="Layer 2" xmlns="http://www.w3.org/2000/svg" viewBox="0 0 95.57 127.89">
  <defs>
    <style>
      .cls-1 {
        fill: #878da2;
      }

      .cls-2 {
        fill: #262d3f;
      }

      .cls-3 {
        fill: #c4c6d0;
      }

      .cls-4 {
        fill: #d65c4d;
      }

      .cls-5 {
        fill: #bbbdc9;
      }

      .cls-6 {
        fill: #646b80;
      }

      .cls-7 {
        fill: #73798f;
      }

      .cls-8 {
        fill: #b2b4c2;
      }

      .cls-9 {
        fill: #a1a3b4;
      }

      .cls-10 {
        fill: #628489;
      }

      .cls-11 {
        fill: #53797c;
      }

      .cls-12 {
        fill: #484f62;
      }

      .cls-13 {
        fill: #313a4f;
      }

      .cls-14 {
        fill: #776998;
      }

      .cls-15 {
        fill: #525a6d;
      }

      .cls-16 {
        fill: #9e4540;
      }

      .cls-17 {
        fill: #989bad;
      }

      .cls-18 {
        fill: #3b4257;
      }

      .cls-19 {
        fill: #7d879d;
      }

      .cls-20 {
        fill: #d6cbc0;
      }
    </style>
  </defs>
  <g id="Layer_1-2" data-name="Layer 1">
    <g>
      <polygon class="cls-16" points="45.91 114.06 45.87 120.45 46.45 122.41 49.08 122.88 55.14 123.5 60.83 125.92 57.73 126.95 54.75 127.58 48.13 127.89 44.98 126.04 40.2 124.53 37.69 125.93 34.21 125.09 35.86 121.71 39.01 122.81 42.25 119.37 41.16 112.55 45.91 114.06"/>
      <polygon class="cls-16" points="87.07 125.45 87.85 122.96 89.61 122.88 91.32 124.84 88.38 125.91 87.07 125.45"/>
      <polygon class="cls-6" points="67.99 125.38 70.09 126.42 68.52 127.49 65.56 126.34 64.88 124.88 65.87 124.08 67.99 125.38"/>
      <polygon class="cls-2" points="68.03 123.34 67.99 125.38 65.87 124.08 68.03 123.34"/>
      <polygon class="cls-17" points="91.24 54.21 92.83 55.91 93.68 76.68 89.92 83.24 87.66 86.1 86.91 87.34 85.24 91.76 83.71 93.22 81.7 93.93 81.05 94.3 81.34 92.37 73.19 94.95 69.3 85.64 69.35 81.88 70.01 80.79 69.66 78.83 72.95 71.37 73.71 68.53 73.6 64.97 72.91 60.17 70.31 53.94 71.95 52.23 83.95 56.2 86.46 57.61 88.64 56.03 91.24 54.21"/>
      <path class="cls-8" d="M54.98,66.38l4.21-1.81,8.75-3.51,4.97-.89.69,4.8.11,3.56-.76,2.84-3.3,7.46-1.64,2.58-1.34,1.49-1.05,1.35-.37,1.37-1.52,1.71-2.54,1.23-2.06,2.87-1.51-.32.36-1.45-2.27.51-6.29-1.95-4.01-1.89c-1.29-1.47-2.16-2.3-3.28-3.04l-3.33-2.47-3.37-5.47-.46-3.46-2.17-2.75.54-1.55,7.37-10.53,1.38-.7c.16,4.34-1.06,8.46-3.68,12.41v1.78s8.69-.75,8.69-.75l6.29-1.75,1.55-1.66Z"/>
      <path class="cls-1" d="M81.05,94.3l-3.86,3.29-3.85.52-1.43,3.34.6,2.18-1.2,5.32-.39,5.45-1.62-.25-2.45,1.39-4.46-1.27-3.16-5.92-.44-.97.12-4.71-2.6,1.31-4.73.62-3.67-1.48,1.06-3.94.98-.82,2.97-2.05,5.52-3.49.71-1.4,2.5-1.64c1.2-.96,3.04-3.02,3.62-4.17l.37-1.37,1.05-1.35,1.34-1.49,1.64-2.58.36,1.96-.66,1.09-.05,3.75,3.89,9.31,8.15-2.58-.29,1.93Z"/>
      <path class="cls-5" d="M53.97,48.16c-.03,1.59.43.71.83-.06l2.25-.72,1.08-.41.04,1.68,2.49.89c-.59,2.21-2.1,4.29-3.99,5.18l-2.99,2.22.26,4.38,1.05,5.06-1.55,1.66-6.29,1.75-8.7.75v-1.78c2.62-3.95,3.84-8.07,3.68-12.41l.38-1.28,3.24-3.1,2.49-2.68,1.42-.03,1.03-1.86.79,1.23,2.5-.47Z"/>
      <polygon class="cls-14" points="86.05 41.74 87.3 39.88 88.06 42.27 91.6 53.1 91.24 54.21 88.64 56.03 86.46 57.61 83.95 56.2 71.95 52.23 69.98 51.61 66.95 49.69 70.66 46.72 74.22 40.36 75.99 39.28 78.16 39.93 80.93 41.93 86.05 41.74"/>
      <path class="cls-13" d="M57.63,91.11l-.41,1.45-1.24-.24h-1.57s-.23.92-.23.92l-7.36.24-7.23-3.57-2.88-1.52-5.32-6.26-1.93-6.08-3.12,4.01,1.68,1.85-1.16,2.02,4.01,8.5,5.4,3.92,4.48,1.87,3.56-.77-.37,2.64-4.16.95-1.86,1-3.97,1.42-7.16,1.39-.61,1.57-1.76-.14-.59,1.94-.1.66-2.65.77-1.12-2.39-4.96,1.15-.35-1.64,3.1-.35,1.64-1.87,3.7.65,5.73-2.18-1.94-1.38.37-1.86,1.15-3.07-3.23-.78-3.49.66-5.07,2.28-4.03.48.06-1.39,4.07-4.95,1.31-1.64c.61-.05.63-.17.32,1.31l2.15,2.91,3.2-.36,2.83-1.15-4.01-4.42-.67-3.33.12-1.87,4.08-5.8,1.9-3.27,4.86-6.26,2.17,2.75.46,3.46,3.37,5.47,3.33,2.47c1.11.74,1.99,1.56,3.28,3.04l4.01,1.89,6.29,1.95,2.27-.51-.36,1.45ZM30.51,101.34l-.5.5.5.5h1l.5-.5-.5-.5h-1Z"/>
      <polygon class="cls-2" points="23.75 108.9 24.6 110.18 31.21 109.61 33.01 110.02 31.47 111.74 18.01 119.43 9.97 120.89 1.86 122.48 0 121 3.19 117.4 9.65 110.73 12.01 110.57 9.49 112.85 6.73 116.96 13.11 114.6 21.1 109.67 23.75 108.9"/>
      <path class="cls-11" d="M66.17,18.73l.23,3.32.64,10.44c-.38.13-1.25.41-1.19.39l-.69,2.44-2.94,1.3-4.39,1.76.76-2.4.97-3.16,2.11-7.55,1.23-5.23-1.32-1.8,1.13-3.83,2.5,1.85.96,2.47Z"/>
      <polygon class="cls-4" points="74.08 118.17 77.19 121.88 85.83 122.98 87.85 122.96 87.07 125.45 85.96 125.3 81.98 125.37 82.11 127.26 78.77 126.42 74.24 125.77 70.09 126.42 67.99 125.38 68.03 123.34 71.66 121.98 69.05 118.35 70.88 117.25 74.08 118.17"/>
      <path class="cls-9" d="M85.1,2.04l1.05,3.93-3.54,1.6-1.96-.16-2.81-.97-2.73.94-1.35-.25-5.07-1.13,2.98-3.7,1.13-1.62c3.31-.83,7.09-.84,10.78-.38l1.51,1.74Z"/>
      <path class="cls-1" d="M72.81.68l-1.13,1.62-2.98,3.7,5.07,1.13.12,1.61-1.38,1.29-5.09,6.73-.55,2.06-.7-.08-.96-2.47-2.5-1.85c1.18-3.79,3.24-7.71,5.8-11.24l4.29-2.48Z"/>
      <polygon class="cls-15" points="37.93 102.05 36.49 105.96 33.62 108.09 40.95 108.44 41.06 109.41 40.84 110.13 38.01 110.63 33.01 110.02 31.21 109.61 24.6 110.18 23.75 108.9 23.84 108.24 26.02 107.97 26.19 106.44 26.81 104.87 33.97 103.48 37.93 102.05"/>
      <polygon class="cls-15" points="85.08 21.33 85 17.31 86.55 17.37 87.05 15.84 86.04 15.2 85.13 13.16 85.27 11.07 87.6 10.07 89.1 9.22 92.86 14.27 95.57 16.87 95.14 19.44 91.45 17.25 86.35 19.36 85.08 21.33"/>
      <polygon class="cls-18" points="58.78 107.39 59.22 108.36 56.89 109.19 51.99 111.48 45.91 114.06 41.16 112.55 40.84 110.13 41.06 109.41 48.83 109.21 55.01 108.55 58.78 107.39"/>
      <polygon class="cls-12" points="57.84 38.39 55.92 42.37 55.19 45.25 52.57 45.09 54.73 41.04 57.77 33.07 59.35 28.33 60.54 23.52 60.94 21.18 61.59 18.24 62.91 20.05 61.68 25.28 59.58 32.82 58.6 35.99 57.84 38.39"/>
      <path class="cls-6" d="M89.1,9.22l-1.5.86-2.33.99-.14,2.09-2.24-.57-2.93-1.04.7-4.13,1.96.16,3.54-1.6-1.05-3.93c2.38,1.23,4.1,4.31,4,7.18Z"/>
      <path class="cls-1" d="M21.86,86.34l.67,3.33,4.01,4.42-2.83,1.15-3.2.36-2.15-2.91c.31-1.48.28-1.36-.32-1.31l1.93-4.39,1.89-.66Z"/>
      <polygon class="cls-12" points="85.08 21.33 84.35 27.26 85.46 32.81 86.85 36.24 87.3 39.88 86.05 41.74 85.17 37.39 84.52 34.42 82.92 29.23 82.2 24.04 85.08 21.33"/>
      <polygon class="cls-12" points="81.7 93.93 81.04 96.27 72.51 103.64 71.9 101.46 73.34 98.11 77.19 97.59 81.05 94.3 81.7 93.93"/>
      <path class="cls-2" d="M11.04,107.44l3.64-.65.35,1.64-2.86.89c-.3-.16-1.77-.93-1.39-.73l-2.98.29c-.81,0-2.11,0-1.77.73l-4.21-.47,4.16-4.96-.31,3.24,5.37.02Z"/>
      <path class="cls-13" d="M10.15,102.35l.7,2.96.18,2.13-5.37-.02.31-3.24c.06-.21.57-2.08.29-1.06l2.79-1.55,1.11.78Z"/>
      <polygon class="cls-12" points="70.92 114.41 74.08 118.17 70.88 117.25 69.05 118.35 66.84 115.55 69.29 114.16 70.92 114.41"/>
      <polygon class="cls-19" points="55.19 45.25 56.53 45.4 57.05 47.38 54.8 48.1 53.97 48.16 51.47 48.63 50.69 47.4 52.57 45.09 55.19 45.25"/>
      <path class="cls-13" d="M12.16,109.32l-.15,1.25-2.36.16-2.96-.39-.67-.73c-.33-.73.96-.73,1.77-.73l2.98-.29c-.38-.2,1.1.57,1.39.73Z"/>
      <polygon class="cls-16" points="85.96 125.3 85.92 127.37 82.11 127.26 81.98 125.37 85.96 125.3"/>
      <polygon class="cls-12" points="88.18 87.45 88.17 88.52 85.24 91.76 86.91 87.34 87.66 86.1 88.18 87.45"/>
      <polygon class="cls-15" points="88.18 87.45 87.66 86.1 89.92 83.24 89.09 85.29 88.18 87.45"/>
      <polygon class="cls-2" points="12.6 99.36 10.15 102.35 9.05 101.57 12.66 97.97 12.6 99.36"/>
      <path class="cls-8" d="M42.51,55.06l3.24-3.1-3.24,3.1Z"/>
      <path class="cls-3" d="M61.72,47.41l5.24,2.28,3.02,1.92,1.97.61-1.64,1.72,2.6,6.22-4.97.89-8.75,3.51-4.21,1.81-1.05-5.06-.26-4.38,2.99-2.22c1.89-.89,3.41-2.97,3.99-5.18l-2.49-.89-.04-1.68,3.59.44Z"/>
      <path class="cls-6" d="M59.14,91.44l2.06-2.87,2.54-1.23,1.52-1.71c-.58,1.15-2.42,3.21-3.62,4.17l-2.5,1.64Z"/>
      <polygon class="cls-15" points="48.95 99.2 47.14 99.94 43.96 100.11 44.33 97.47 45.83 98.2 53.41 94.71 54.19 93.24 54.42 92.31 55.99 92.32 57.23 92.56 57.63 91.11 59.14 91.44 58.43 92.84 52.91 96.33 49.93 98.38 48.95 99.2"/>
      <path class="cls-6" d="M65.63,84.25l1.05-1.35-1.05,1.35Z"/>
      <polygon class="cls-7" points="48.95 99.2 47.89 103.13 51.56 104.61 56.29 103.99 58.9 102.68 58.78 107.39 55.01 108.55 48.83 109.21 41.06 109.41 40.95 108.44 33.62 108.09 36.49 105.96 37.93 102.05 39.79 101.06 43.96 100.11 47.14 99.94 48.95 99.2"/>
      <polygon class="cls-7" points="65.17 35.32 65.46 36.24 62.68 44.11 61.72 47.41 58.13 46.96 57.05 47.38 56.53 45.4 55.19 45.25 55.92 42.37 57.84 38.39 62.23 36.63 65.17 35.32"/>
      <path class="cls-3" d="M53.97,48.16l.83-.06c-.4.77-.86,1.65-.83.06Z"/>
      <polygon class="cls-10" points="69.7 19.5 71.57 20.8 74.65 22.69 76.95 23.69 76.55 27.31 75.99 39.28 74.22 40.36 72.5 40.3 71.57 38.72 69.28 34.93 67.05 32.49 66.41 22.05 66.17 18.73 66.87 18.81 69.7 19.5"/>
      <polygon class="cls-11" points="85 17.31 85.08 21.33 82.2 24.04 82.92 29.23 84.52 34.42 85.17 37.39 86.05 41.74 80.93 41.93 78.16 39.93 75.99 39.28 76.55 27.31 76.95 23.69 81.4 19.79 83.4 17.73 83.93 17.39 85 17.31"/>
      <path class="cls-19" d="M74.22,40.36l-3.56,6.36-3.7,2.97-5.24-2.28.96-3.3,2.78-7.87-.29-.92.69-2.44c-.06.02.8-.27,1.19-.39l2.23,2.43,2.29,3.8.93,1.57,1.72.06Z"/>
      <polygon class="cls-8" points="54.19 93.24 53.41 94.71 45.83 98.2 44.33 97.47 40.77 98.24 36.29 96.36 30.89 92.44 26.88 83.94 28.04 81.92 26.36 80.06 29.48 76.05 31.41 82.13 36.73 88.39 39.61 89.92 46.84 93.48 54.19 93.24"/>
      <polygon class="cls-18" points="14.67 106.79 11.04 107.44 10.85 105.31 10.15 102.35 12.6 99.36 16.62 98.88 21.69 96.6 25.18 95.94 28.41 96.73 27.26 99.8 26.9 101.66 28.84 103.04 23.11 105.22 19.41 104.57 17.77 106.45 14.67 106.79"/>
      <polygon class="cls-18" points="30.51 101.34 31.5 101.34 32 101.84 31.5 102.34 30.51 102.34 30.01 101.84 30.51 101.34"/>
      <path class="cls-8" d="M57.23,92.56l-1.24-.24,1.24.24Z"/>
      <polygon class="cls-18" points="21.1 109.67 13.11 114.6 6.73 116.96 9.49 112.85 12.01 110.57 12.16 109.32 15.02 108.43 19.98 107.28 21.1 109.67"/>
      <polygon class="cls-2" points="77.84 6.44 78.72 11.19 77.13 11.44 74.95 11.28 75.12 7.38 77.84 6.44"/>
      <polygon class="cls-20" points="80.66 7.42 79.96 11.55 78.72 11.19 77.84 6.44 80.66 7.42"/>
      <polygon class="cls-20" points="77.13 11.44 76.46 12.44 74.36 11.75 73.9 8.74 73.77 7.13 75.12 7.38 74.95 11.28 77.13 11.44"/>
      <polygon class="cls-9" points="77.13 11.44 78.72 11.19 79.96 11.55 82.89 12.59 85.13 13.16 86.04 15.2 83.93 17.39 83.4 17.73 83.14 15.22 77.86 13.72 70.43 17.73 69.7 19.5 66.87 18.81 67.43 16.75 72.52 10.02 73.9 8.74 74.36 11.75 76.46 12.44 77.13 11.44"/>
      <polygon class="cls-18" points="26.19 106.44 26.02 107.97 23.84 108.24 24.43 106.3 26.19 106.44"/>
      <polygon class="cls-19" points="85 17.31 83.93 17.39 86.04 15.2 87.05 15.84 86.55 17.37 85 17.31"/>
      <polygon class="cls-19" points="83.4 17.73 81.4 19.79 76.95 23.69 74.65 22.69 71.57 20.8 69.7 19.5 70.43 17.73 77.86 13.72 83.14 15.22 83.4 17.73"/>
    </g>
  </g>
</svg>