<?xml version="1.0" encoding="UTF-8"?>
<svg id="Layer_2" data-name="Layer 2" xmlns="http://www.w3.org/2000/svg" viewBox="0 0 70.91 115.19">
  <defs>
    <style>
      .cls-1 {
        fill: #262d3f;
      }

      .cls-2 {
        fill: #a9acba;
      }

      .cls-3 {
        fill: #5b6174;
      }

      .cls-4 {
        fill: #c4c6d0;
      }

      .cls-5 {
        fill: #2c3449;
      }

      .cls-6 {
        fill: #9094a8;
      }

      .cls-7 {
        fill: #646b80;
      }

      .cls-8 {
        fill: #73798f;
      }

      .cls-9 {
        fill: #b2b4c2;
      }

      .cls-10 {
        fill: #a1a3b4;
      }

      .cls-11 {
        fill: #484f62;
      }

      .cls-12 {
        fill: #313a4f;
      }

      .cls-13 {
        fill: #525a6d;
      }

      .cls-14 {
        fill: #d5d6db;
      }

      .cls-15 {
        fill: #3b4257;
      }

      .cls-16 {
        fill: #7d879d;
      }
    </style>
  </defs>
  <g id="Layer_1-2" data-name="Layer 1">
    <g>
      <path class="cls-13" d="M31.55,67.46l-2.26-.3-.68,8.59,2.96,3.96.7,1.11,1.77,3.07-.05,1.92,1.16,5.57,2.02,2.37,2.16,1.09.46,1.22-7.35,6.89-.72,2.15-1.08.88-3.38,1.52-2.61,2.37-5.64,3.41,2.41-4.75-2.89,2.15-.84-1.97,1.78-5.86-.13-2.8,1.07-3.13,1.29-2.14,1.16-4.18-1.26-1.98-.42-1.78,1.35-.55-.27-1.88.53-.8c.11.46-.05-.21-.27-1.11l-.15-9.51,3.04-4.38,2.31-2.69.06-2.34,2.65-6.97-1.61-1.75-5.66,5.62-1.1-1.96-1.99.15,1.85-4.17c.98-.51,1.12-.58,1-.52l1.71.43,9.13-1.57-.99,2.27-2.31,3.63-1.47,3.4,2.01,2.18,2.56.88-1.98,2.26Z"/>
      <path class="cls-6" d="M37.51,52.9l1.5.55,2.24.75,6.01,4.05,3.98.47.21.77-1.04.74-.25,1.43-.9,2.34-1.17-1.34-6.31.45-2.63,6.05-2.81,5.17,5.13,3.24,11.15,2.42-.07,2.09-1.03.72-1.23.75-2.77,3.55-.75,3.07-5.1,5.82-.53-1.25,1.36-6.69,2.4-6.35-9.69,1.1-1.18,1.1-1.77-3.07,1.08-.66-2.24-7.34.44-5.37,1.98-2.26-2.56-.88-2.01-2.18,1.47-3.4,2.31-3.63.99-2.27,3.78.05ZM35.95,62.76l-.5.5.5.5h1l.5-.5-.5-.5h-1Z"/>
      <path class="cls-7" d="M41.63,24.74l-1.36,2.75-2.29.33-1.99,2.46-1.77,2.11-2.81,4.26-.13,2.56-2.13.67-1.19,1.27-.76-1.05,1.74-3.32-1.51-2.03,1.02-3.09.91-5.58,1.78-2.8c-.76-3.41-.8-5.86-.22-7.22l1.31-2.08,1.72-.48,1.07-.63,1.88,1.57,1.87,3.02,2.89,7.27Z"/>
      <polygon class="cls-3" points="48.29 24.77 47.25 25.89 45.14 25.4 44.94 27.75 43.32 25.36 41.63 24.74 38.74 17.47 36.88 14.45 34.99 12.88 33.93 13.51 33.55 11.89 35.04 9.73 33.38 8.56 34.63 7.77 35.41 6.31 34.96 1.53 36.12 0 37.79 .41 45.57 16.72 48.29 24.77"/>
      <polygon class="cls-9" points="29.15 39.89 30.66 40.59 36.9 47.28 39 44.76 39.96 45.29 36.81 49.68 37.51 52.9 33.73 52.85 24.61 54.42 22.9 53.98 24.94 49.29 25.48 47.84 27.09 48.75 27.48 47.31 26.58 46.04 25.36 43.72 26.65 40.17 27.2 40.11 27.96 41.16 29.15 39.89"/>
      <polygon class="cls-9" points="54.57 47.5 52.8 54.84 50.3 57.45 51.19 57.95 51.25 58.72 47.27 58.25 41.26 54.2 44.35 50.77 49.39 46.11 51.44 44.65 54.57 47.5"/>
      <path class="cls-16" d="M60.42,58.27l.03,5.61,1.5,1.96,2.45-1.06,1.1-.04-.13,3.68c.97,1.23,1.37,1.73.69.87l-3.56,1.31-1.97-.04-1.19-.87-.83-1.96-1.61-2.41-3.34.76-4.12.78-.16-2.85.9-2.34,7.18.09.1-2.15,2.96-1.34Z"/>
      <path class="cls-12" d="M23.33,65.81l4.38.11-2.31,2.69-3.04,4.38.15,9.51c.22.9.39,1.57.27,1.11l-1.23-.82-1.27-.77.7-6.26.35-2.71-2.83-2.24-.95-3.88.85-4.34,1.11.97.32,4.77.72-2.96,2.77.45Z"/>
      <path class="cls-5" d="M18.43,80.4l-4.17,1.37-9.39.5L0,80.8c-.03.35.13-1.47.16-1.78l2.41-.16,6.73.41,2.83-1.65,2.12-.4,1.59.36,2.4,1.2.2,1.6Z"/>
      <path class="cls-11" d="M15.19,72.39l-.76,1.7-.19,3.14-2.12.4-2.83,1.65-6.73-.41.06-2.65s.98-1.46,1.26-1.86l3.64-.52,7.67-1.44Z"/>
      <polygon class="cls-16" points="27.71 65.92 23.33 65.81 21.52 61.62 19.33 61.5 20.04 58.67 22.03 58.52 23.13 60.48 28.8 54.86 30.41 56.61 27.76 63.58 27.71 65.92"/>
      <polygon class="cls-11" points="59.4 70.72 60.51 70.56 62.49 70.6 62.33 71.64 55.56 78 52.64 80 53.3 77.54 50.96 72.22 53.37 71.65 59.4 70.72"/>
      <polygon class="cls-8" points="18.5 70.81 21.33 73.04 20.98 75.75 20.29 82.01 19.13 80.69 18.43 80.4 18.23 78.8 15.84 77.59 14.25 77.23 14.43 74.09 15.19 72.39 18.5 70.81"/>
      <polygon class="cls-1" points="50.9 32.52 49.25 34.23 50.18 35.91 50.53 41.64 49.46 42.79 48.77 41.65 48.38 40.61 47.68 32.74 47.89 28.77 47.25 25.89 48.29 24.77 50.9 32.52"/>
      <polygon class="cls-14" points="67.48 60.7 66.13 65.01 65.5 64.75 64.4 64.78 64.1 62.84 60.45 63.88 60.42 58.27 65.2 58.74 67.01 59.59 67.48 60.7"/>
      <path class="cls-3" d="M70.43,67.75l-2.8,1.68.03,1.66-2.18-.41-1.14,1.19-2.01-.24.15-1.04,3.56-1.31c.69.86.29.36-.69-.87l.13-3.68.63.26,1.9.85.45-2.55,1.22-.57.73,5.01Z"/>
      <polygon class="cls-4" points="54.56 42.8 51.97 42.12 50.53 41.64 50.18 35.91 51.51 36.17 53.43 35.8 54.02 39.83 54.56 42.8"/>
      <polygon class="cls-15" points="54.56 42.8 55.63 47.57 54.57 47.5 51.44 44.65 49.46 42.79 50.53 41.64 51.97 42.12 54.56 42.8"/>
      <polygon class="cls-12" points="28.51 107.9 26.87 109.26 22.6 112.79 19.6 115.19 17.17 115.13 18.53 110.68 21.41 108.53 19 113.28 24.65 109.87 27.25 107.5 28.51 107.9"/>
      <polygon class="cls-12" points="20.41 96.92 19.4 95.16 20.65 90.86 21.59 88.61 22.85 90.59 21.69 94.77 20.41 96.92"/>
      <polygon class="cls-13" points="23.33 65.81 20.56 65.36 19.84 68.32 19.51 63.55 18.4 62.58 19.33 61.5 21.52 61.62 23.33 65.81"/>
      <path class="cls-5" d="M34.63,7.77l-1.25.79.17,3.33.38,1.62-1.72.48c-1.33-2.95-.82-5.53.95-8.87l1.47,2.65Z"/>
      <polygon class="cls-11" points="57.45 59.61 57.35 61.76 50.17 61.67 50.42 60.23 51.46 59.49 57.45 59.61"/>
      <polygon class="cls-1" points="67.66 71.1 67.63 69.43 70.43 67.75 70.4 70.45 70.91 73.14 67.66 71.1"/>
      <polygon class="cls-16" points="69.7 62.74 68.48 63.31 68.02 65.86 66.13 65.01 67.48 60.7 69.44 61.16 69.7 62.74"/>
      <polygon class="cls-11" points="27.2 40.11 26.65 40.17 26.54 37.71 27.42 34.76 28.94 36.79 27.2 40.11"/>
      <polygon class="cls-6" points="51.19 57.95 50.3 57.45 52.8 54.84 54.57 47.5 55.63 47.57 56.34 49.1 53.37 54.95 51.19 57.95"/>
      <polygon class="cls-8" points="25.48 47.84 25.36 43.72 26.58 46.04 27.48 47.31 27.09 48.75 25.48 47.84"/>
      <polygon class="cls-15" points="51.51 36.17 50.18 35.91 49.25 34.23 50.9 32.52 51.51 36.17"/>
      <polygon class="cls-13" points="51.54 82.8 50.46 84.9 48.41 87.54 48.1 89.76 46.77 90.17 47.53 87.1 50.3 83.55 51.54 82.8"/>
      <polygon class="cls-5" points="41.15 94.74 41.68 95.99 40.11 96.55 33.32 103.62 31.72 105.1 32.44 102.95 39.79 96.07 39.33 94.85 41.15 94.74"/>
      <polygon class="cls-12" points="22.25 84.4 22.52 86.28 21.17 86.83 20.35 85.24 22.25 84.4"/>
      <path class="cls-5" d="M30.64,105.98l-1.67.92c.1-.22-.29.65-.46,1.01l-1.25-.41,3.38-1.52Z"/>
      <path class="cls-16" d="M64.34,71.88l1.14-1.19-1.14,1.19Z"/>
      <polygon class="cls-10" points="41.15 94.74 39.33 94.85 37.17 93.76 35.15 91.39 33.99 85.82 34.04 83.9 35.22 82.8 44.91 81.7 42.51 88.05 41.15 94.74"/>
      <polygon class="cls-12" points="31.55 67.46 31.11 72.83 33.34 80.17 32.27 80.83 31.56 79.71 28.61 75.75 29.29 67.16 31.55 67.46"/>
      <path class="cls-4" d="M43.61,40.79l-1.22.91c-.43-.12-.72,2.5-.17,1.85l6.55-1.89.69,1.14,1.98,1.86-2.06,1.46-5.04,4.67-3.09,3.42-2.24-.75-1.5-.55-.7-3.22,3.15-4.39-.97-.53-2.1,2.52-6.24-6.69-1.51-.7,2.13-.67.13-2.56,2.81-4.26,2.78.84,2.57,6.37,1.24-2.8,2.61.48.19,3.51Z"/>
      <polygon class="cls-2" points="49.28 64.01 49.43 66.85 50.96 72.22 53.3 77.54 52.64 80 41.49 77.58 36.36 74.34 39.18 69.17 41.81 63.12 48.11 62.67 49.28 64.01"/>
      <polygon class="cls-13" points="35.95 62.76 36.95 62.76 37.45 63.26 36.95 63.76 35.95 63.76 35.45 63.26 35.95 62.76"/>
      <polygon class="cls-14" points="47.25 25.89 47.89 28.77 47.68 32.74 48.38 40.61 43.61 40.79 43.41 37.27 40.81 36.79 39.57 39.6 37 33.23 34.22 32.39 35.99 30.28 37.98 27.82 40.27 27.49 41.63 24.74 43.32 25.36 44.94 27.75 45.14 25.4 47.25 25.89"/>
      <polygon class="cls-7" points="33.55 11.89 33.38 8.56 35.04 9.73 33.55 11.89"/>
      <polygon class="cls-7" points="59.32 69.69 59.4 70.72 53.37 71.65 50.96 72.22 49.43 66.85 53.55 66.07 56.89 65.31 58.49 67.73 59.32 69.69"/>
      <polygon class="cls-11" points="64.4 64.78 61.95 65.84 60.45 63.88 64.1 62.84 64.4 64.78"/>
      <polygon class="cls-3" points="60.51 70.56 59.4 70.72 59.32 69.69 60.51 70.56"/>
      <path class="cls-9" d="M48.38,40.61l.39,1.04-6.55,1.89c-.55.65-.26-1.96.17-1.85l1.22-.91,4.77-.17Z"/>
    </g>
  </g>
</svg>