<?xml version="1.0" encoding="UTF-8"?>
<svg id="Layer_2" data-name="Layer 2" xmlns="http://www.w3.org/2000/svg" viewBox="0 0 95.52 101.35">
  <defs>
    <style>
      .cls-1 {
        fill: #878da2;
      }

      .cls-2 {
        fill: #262d3f;
      }

      .cls-3 {
        fill: #5b6174;
      }

      .cls-4 {
        fill: #646b80;
      }

      .cls-5 {
        fill: #73798f;
      }

      .cls-6 {
        fill: #b2b4c2;
      }

      .cls-7 {
        fill: #a1a3b4;
      }

      .cls-8 {
        fill: #628489;
      }

      .cls-9 {
        fill: #ececef;
      }

      .cls-10 {
        fill: #484f62;
      }

      .cls-11 {
        fill: #313a4f;
      }

      .cls-12 {
        fill: #525a6d;
      }

      .cls-13 {
        fill: #9e4540;
      }

      .cls-14 {
        fill: #d5d6db;
      }

      .cls-15 {
        fill: #989bad;
      }

      .cls-16 {
        fill: #3b4257;
      }

      .cls-17 {
        fill: #7d879d;
      }
    </style>
  </defs>
  <g id="Layer_1-2" data-name="Layer 1">
    <g>
      <polygon class="cls-2" points="81.15 96.5 81.3 97.48 79.1 97.63 77.16 95.03 81.15 96.5"/>
      <path class="cls-13" d="M81.3,97.48l-.15-.98.15.98Z"/>
      <polygon class="cls-7" points="91.24 49.4 93.01 51.9 92.57 60.6 92.88 62.77 91.93 63.13 90.63 66.52 90.73 68.79 87.58 75.17 81.12 79.81 79.63 80.13 76.64 81.34 74.19 82.26 71.53 83.57 65.39 83.29 58.42 84.72 52.32 80.31 53.04 75.28 53.05 73.42 60.91 66.32 60.38 64.96 60.65 63.97 61.72 63.38 64.49 62.48 65.38 58.96 67.73 56.99 67.86 55.44 69.24 53.49 74.15 53.2 81.31 59.38 89.07 49.31 91.24 49.4"/>
      <path class="cls-11" d="M24.68,66.78l-1.96.6-1.02,6.11,2.97.75,4.12-1.25,1.02-1.33,3.87,4.29,2.18-1.48-.12,4.22,7.47-2.63c-2.25-1.87-3.79-2.83-5.88-3.78l-1.64-2.52-3.04-.61-.44-2.66-1.67-3.89,1.05-.34,2.71,3.14,3.55-2.01,3.28-1.36.62,2.68,4.97,2.66,8.21-1.71,5.44-.71.53,1.36-7.85,7.1v1.86s-2.7-.34-2.7-.34l-2.25,1.99-1.95.61-1.93-.31-9.51,4.14-8.54,1.88-2.64-.57c-.64.04-2.69-.13-.11,1.5l-2.39,1.34-14.14,6.98-3.49.14,3.14-2.9c1.57-1.39,3.17-4.49,3.18-6.08l-1.9-3.23,2.32-1.71,3.18-5.01,1.84-2.09,1.08,1.86,4.87-1.71-3.52-5.62.48-3.36-2.27-.04,3.06-7.34,1.85-2.23.92,4.06-.94,2.65,2.09,2.99,1.93,3.89ZM18.44,83.51l-.5.5.5.5.5-.5-.5-.5Z"/>
      <path class="cls-17" d="M61.26,7.93l-.56,1.59-1.47.48-1.04,5.47-3.12,5.26-2.47,2.4-2.56,1.3-1.86-.78-3.27-.74-2.15.18-4.17-.13-3.65-.33,1.42-1.45-3.06-2.25-2.12.74.59-2.12-.71-7.3,2.85-4.77,3.95-3.18,7.85-2.3,4.32.55,4.83,1.94,6.38,5.45ZM46.11,8.94c-2.62.85-3.28,1.21-4.68,3.1l3.82,3.63.86-6.73Z"/>
      <polygon class="cls-14" points="87.86 35.51 89.09 38.49 91.44 47.29 91.24 49.4 89.07 49.31 81.31 59.38 74.15 53.2 69.24 53.49 70.12 50.66 68.63 48.88 69.14 46.38 67.47 44.06 63.8 43.31 66.53 40.24 74.36 35.16 77.44 33.48 78.64 30.83 77.79 28.34 79.18 26.22 88.32 34.07 87.86 35.51"/>
      <path class="cls-6" d="M36.62,32.35l3.14-.04-2.23,7.4,5.13,5.11,4.93,4.11,5.4-1.03,2.97-1.23,6.94-2.22,4.57-.37,1.67,2.31-.51,2.51-.53,2.52-2.97,1.21-5.27,1.94-5.97,1.91-1.17-1.54-4.96-.91-2.91-.77,1.25-1.75-7.35.92-4.34,1.64-4.21-2.28c-.84-.94-2.01-3.48-2.29-4.9l-.5-2.96-.37-.31-.14-2.1,2.03-.05-.4-3.46,5.82-5.05,2.25-.62Z"/>
      <polygon class="cls-12" points="52.6 23.13 53.53 25.73 58.22 30.13 60.05 31 59.95 33.44 58.52 35.04 56.03 40.61 50.69 39.52 47.28 40.2 46.37 42.55 43.4 42.53 42.66 44.82 37.53 39.71 39.76 32.31 36.62 32.35 38.39 31.06 40.96 29.81 44.5 27.89 41.17 24.74 44.76 23.7 47.37 24.64 48.18 23.66 50.04 24.44 52.6 23.13"/>
      <polygon class="cls-17" points="72.95 22.66 77.17 24.42 79.18 26.22 77.79 28.34 78.64 30.83 77.44 33.48 74.36 35.16 66.53 40.24 63.8 43.31 67.47 44.06 62.9 44.44 55.96 46.66 54.94 45.56 56.03 40.61 58.52 35.04 59.95 33.44 63.58 34.05 67.92 31.2 62.67 25.52 63.24 23.31 65 22.54 72.95 22.66"/>
      <path class="cls-17" d="M53.04,75.28l-.72,5.03,6.1,4.41,6.96-1.43,6.15.28,2.65-1.31,2.46-.92,2.99-1.21-1.03,2.02-4.54,3.71-4.24.78-3.82,1.76-.53-1.98-1.59.51-.07,1.71-1.67-.08-1.18,1.03-1.16-.19-.94,1.14-1.46-.53.31-1.94-4.44.77-1.7-1.9-5.69,2.22,2.17,1.1-3.02.53-4.13.71-2.62.13-1.59-2.96-1.25-3.53,10.25-5.97.46-1.63,1.95-.61,2.25-1.99,2.69.34ZM53.41,85.51l-.5.5.5.5.5-.5-.5-.5Z"/>
      <polygon class="cls-8" points="60.7 9.53 61.94 9.97 62.64 11.76 65.78 13.79 66.68 13.4 70.2 17.25 70.9 20.22 72.95 22.66 65 22.54 63.24 23.31 62.67 25.52 67.92 31.2 63.58 34.05 59.95 33.44 60.05 31 58.22 30.13 53.53 25.73 52.6 23.13 55.07 20.73 58.19 15.47 59.23 10.01 60.7 9.53"/>
      <path class="cls-2" d="M15.14,71.62l-1.84,2.09-3.18,5.01-2.32,1.71,1.9,3.23c-.01,1.59-1.61,4.69-3.18,6.08l-3.14,2.9,3.49-.14,14.14-6.98,2.39-1.34c-2.58-1.63-.54-1.46.11-1.5l2.64.57-1.17,2.07,7.33,2.65-6.08,2.94-5.23,1.6-7.12.88-4.87,1.11-9.03.77,2.66-3.82,5.97-5.84-4.31-.93,4.52-6.54,4.49-7.44,1.34-3.5.47,4.42Z"/>
      <polygon class="cls-15" points="27.43 43.93 27.18 45.58 26.06 51.56 25.25 56.52 29.31 57.79 30.12 61.6 30.56 62.61 32.22 66.49 32.67 69.15 29.11 69.5 26.88 67.26 24.68 66.78 22.75 62.89 20.66 59.9 21.6 57.26 20.68 53.19 22.19 47.44 22.68 46.38 23.83 47.13 27.06 43.62 27.43 43.93"/>
      <polygon class="cls-12" points="46.15 77.55 45.69 79.18 35.44 85.15 36.69 88.68 32.32 87.97 24.99 85.33 26.16 83.25 34.7 81.38 44.21 77.24 46.15 77.55"/>
      <polygon class="cls-13" points="63.82 88.65 63.35 90.4 67.59 94.92 77.16 95.03 79.1 97.63 78.22 98.59 74.33 98.14 73.05 99.66 72.46 97.23 68.89 97.84 68.48 99.46 66.02 98.29 62.01 97.29 61.93 95.95 60.39 95.17 61.41 93.66 58.87 90.55 59.81 89.41 60.96 89.61 62.14 88.57 63.82 88.65"/>
      <path class="cls-1" d="M93.05,64.68l-.17-1.92-.32-2.16.44-8.71-1.77-2.5.21-2.11-2.35-8.8-1.23-2.98,1.6-.02.76,1.66,2.31,5.72c2.43,4.51,3.57,9.88,2.69,14.77l-1.25,5.04-.92,2Z"/>
      <path class="cls-13" d="M55.79,95.36l1.91.92,1.78,2.29,1.31-1.03,1.54,2.31-2.97-.17-.99.89-2.48-.56-4.93.6-2.53-2.04-4.29-.91-1.39-2.93.66-2.17,1.8-.78c1.35,2.42,3.63,4.21,6.42,4.94l4.17-1.38Z"/>
      <polygon class="cls-16" points="45.03 90.8 45.21 91.79 43.41 92.57 42.74 94.74 44.13 97.67 48.43 98.58 50.96 100.62 50.33 101.35 48.48 100.88 45.46 99.7 39.5 98.21 36.8 99.11 34.06 96.75 40.54 95.78 42.42 94.35 40.9 91.51 45.03 90.8"/>
      <polygon class="cls-10" points="38.6 22.97 38.94 24.52 34.39 24.32 28.12 28.28 29.61 21.57 31.19 19.68 33.3 18.94 36.37 21.19 34.94 22.64 38.6 22.97"/>
      <polygon class="cls-5" points="15.14 71.62 14.67 67.2 14.74 66.39 16.06 66.04 15.93 63.2 15.78 62.76 18.04 62.8 17.57 66.16 21.09 71.78 16.22 73.49 15.14 71.62"/>
      <polygon class="cls-11" points="48.18 23.66 47.37 24.64 44.76 23.7 41.17 24.74 44.5 27.89 40.96 29.81 40.99 25.63 38.94 24.52 38.6 22.97 42.77 23.1 44.92 22.92 48.18 23.66"/>
      <polygon class="cls-2" points="60.39 95.17 61.93 95.95 62.01 97.29 60.79 97.54 59.48 98.57 57.7 96.28 55.79 95.36 57.66 94.31 60.39 95.17"/>
      <polygon class="cls-3" points="93.05 64.68 92.67 66.79 90.73 68.79 90.63 66.52 91.93 63.13 92.88 62.77 93.05 64.68"/>
      <polygon class="cls-10" points="65.78 13.79 62.64 11.76 61.94 9.97 60.7 9.53 61.26 7.93 65.4 12.03 65.78 13.79"/>
      <polygon class="cls-2" points="73.05 99.66 68.48 99.46 68.89 97.84 72.46 97.23 73.05 99.66"/>
      <polygon class="cls-5" points="26.92 41.52 25.93 41.49 28.55 38.01 28.95 41.47 26.92 41.52"/>
      <polygon class="cls-16" points="27.06 43.62 23.83 47.13 22.68 46.38 24.11 44.46 25.93 41.49 26.92 41.52 27.06 43.62"/>
      <polygon class="cls-12" points="66 88.41 63.82 88.65 63.88 86.94 65.47 86.43 66 88.41"/>
      <polygon class="cls-11" points="14.74 66.39 14.84 64.2 15.93 63.2 16.06 66.04 14.74 66.39"/>
      <polygon class="cls-10" points="77.17 24.42 72.95 22.66 70.9 20.22 70.2 17.25 70.75 18.88 74.69 22.54 77.17 24.42"/>
      <polygon class="cls-15" points="69.24 53.49 67.86 55.44 66.4 55.69 63.04 61.48 61.72 63.38 60.65 63.97 60.38 64.96 54.94 65.66 46.74 67.37 41.77 64.72 41.15 62.03 41.62 58.5 40.06 55.38 47.95 58.01 53.89 56.47 59.86 54.56 65.13 52.62 68.1 51.41 68.63 48.88 70.12 50.66 69.24 53.49"/>
      <polygon class="cls-5" points="67.86 55.44 67.73 56.99 65.38 58.96 64.49 62.48 61.72 63.38 63.04 61.48 66.4 55.69 67.86 55.44"/>
      <path class="cls-5" d="M53.89,56.47l-5.94,1.54-7.9-2.62-3.22.17-3.29.3-.24,3.02-1.71,3.41-1.05.34-.44-1-.81-3.81-4.06-1.27.8-4.97,1.12-5.98.25-1.65.5,2.96c.28,1.42,1.45,3.95,2.29,4.9l4.21,2.28,4.34-1.64,7.35-.92-1.25,1.75,2.91.77,4.96.91,1.17,1.54ZM31.43,57.51l-.5.5.5.5.5-.5-.5-.5Z"/>
      <polygon class="cls-6" points="40.06 55.38 41.62 58.5 41.15 62.03 37.87 63.4 34.32 65.4 31.61 62.27 33.31 58.86 33.55 55.85 36.84 55.55 40.06 55.38"/>
      <polygon class="cls-12" points="29.11 69.5 29.81 71.66 28.79 72.99 24.67 74.24 21.7 73.49 22.73 67.38 24.68 66.78 26.88 67.26 29.11 69.5"/>
      <polygon class="cls-17" points="32.67 69.15 35.71 69.76 37.34 72.28 35.87 74.47 33.69 75.95 29.81 71.66 29.11 69.5 32.67 69.15"/>
      <path class="cls-3" d="M35.87,74.47l1.48-2.19c2.08.94,3.63,1.91,5.88,3.78l-7.47,2.63.12-4.22Z"/>
      <rect class="cls-2" x="18.09" y="83.66" width=".71" height=".71" transform="translate(-53.99 37.62) rotate(-44.98)"/>
      <path class="cls-2" d="M46.11,8.94l-.86,6.73-3.82-3.63c1.4-1.9,2.05-2.26,4.68-3.1Z"/>
      <polygon class="cls-4" points="56.03 40.61 54.94 45.56 55.96 46.66 52.99 47.89 47.59 48.92 42.66 44.82 43.4 42.53 46.37 42.55 47.28 40.2 50.69 39.52 56.03 40.61"/>
      <path class="cls-9" d="M48.05,90.27l9.36-.25,1.46.53,2.54,3.11-1.02,1.51-2.73-.86-1.87,1.05-4.17,1.38c-2.78-.73-5.06-2.52-6.42-4.94l-.18-.99,3.02-.53Z"/>
      <polygon class="cls-12" points="57.41 90.02 48.05 90.27 45.88 89.17 51.58 86.95 53.28 88.85 57.72 88.08 57.41 90.02"/>
      <path class="cls-12" d="M58.87,90.55l.94-1.14-.94,1.14Z"/>
      <path class="cls-12" d="M60.96,89.61l1.18-1.03-1.18,1.03Z"/>
      <rect class="cls-12" x="53.06" y="85.66" width=".71" height=".71" transform="translate(-45.17 62.93) rotate(-44.98)"/>
      <rect class="cls-6" x="31.08" y="57.66" width=".71" height=".71" transform="translate(-31.81 39.19) rotate(-44.98)"/>
    </g>
  </g>
</svg>