<?xml version="1.0" encoding="UTF-8"?>
<svg id="Layer_2" data-name="Layer 2" xmlns="http://www.w3.org/2000/svg" viewBox="0 0 70.83 61.1">
  <defs>
    <style>
      .cls-1 {
        fill: #8e95a4;
      }

      .cls-2 {
        fill: #626e82;
      }

      .cls-3 {
        fill: #7e8699;
      }

      .cls-4 {
        fill: #566075;
      }

      .cls-5 {
        fill: #445063;
      }

      .cls-6 {
        fill: #eee6d9;
      }

      .cls-7 {
        fill: #6d778b;
      }
    </style>
  </defs>
  <g id="Layer_1-2" data-name="Layer 1">
    <g>
      <path class="cls-2" d="M38.87,9.67l-.33,2.65,4.78,2.09,5.72,2.17c2.08,1.06,4.46,2.69,6.35,4.41l4.67,9.12,8.46.46,2.31-.27-.97,2.25-10.93,19.08-1.33,1.85.63-4.25,1.67-3.08-.41-7.03-.26-7.28-5.87,8.25-1.54,2.69-2.16,4.76,1.21,3.44.69,8.34,2.85-.17-1.39,1.93-1.56-.4-7.09.38.09-1.8,5.41-.47-11.14-5.38-5.3-1.84-3.5-2.19-7.39-2.29-6-8.21-3.37-7.46,5.49-1.11,2.13-1.46,11.07,11-.14,1.56,3.92,4.34,3.14-2.01,5.61-6.79,8.74-9.22.07-.94,1.13-.71.98-.97-2.56-2.56-.79-1.48-1.47.06-2.55,1.19-1.18-.09-8.17,8.18.02.96-.9,1.03-1.8-.35-.54,1.19-1.71-1.36-11.22-10.75-3.62,3.45-1.95.5.51-2.68c2,.87,2.66.07.69-1.63,1.32-2.8,4.01-5.07,7.21-5.82l9.36-3.19,2.39-.84,1.82-1.26Z"/>
      <path class="cls-7" d="M17.45,25.92l1,.96-1.27,1.08,2.5.04,1.12.86-2.13,1.46-5.49,1.11,3.37,7.46,6,8.21,7.39,2.29,3.5,2.19,5.3,1.84,11.14,5.38-5.41.47-.09,1.8-26.43-.1-4.58-7.86.9-1.45-4.39-7.93-2.49-3.48-1.35-2.74-1.9-3.05-.95.89-3.18-4.52,4.41-7.76,1.62-2.36,1.44-2.55,5.46-9.53,1.94-3.19.61,2.09-1.19,1.5-6.04,10.83-1.35,2.96,4.29-.06.43,7.83,3.26-5.06,2.56.39ZM2.95,29.1l-.5.5v1l.5.5.5-.5v-1l-.5-.5Z"/>
      <path class="cls-3" d="M70.83,30.31l-2.31.27-8.46-.46-4.67-9.12c-1.88-1.72-4.26-3.35-6.35-4.41l-5.72-2.17-4.78-2.09.33-2.65,9.87-6.31,2.37-1.09.33-2.27,1.93.15,6.4,10.66,11.08,19.5Z"/>
      <path class="cls-3" d="M20.41.03l.55,2.38,6.23,4,5.55,3.36,1.91,2.01-9.36,3.19c-3.2.75-5.9,3.02-7.21,5.82,1.97,1.7,1.31,2.5-.69,1.63l-.51,2.68.57.83-2.56-.39-3.26,5.06-.43-7.83-4.29.06,1.35-2.96,6.04-10.83,1.19-1.5-.61-2.09L17.65.12l2.76-.1Z"/>
      <polygon class="cls-1" points="51.43 0 51.11 2.27 48.74 3.36 38.87 9.67 37.05 10.93 34.65 11.77 32.74 9.76 27.19 6.4 20.96 2.41 20.41 .03 51.43 0"/>
      <polygon class="cls-7" points="57.61 53.49 54.43 59.17 51.57 59.34 50.88 51 49.67 47.55 51.83 42.79 53.36 40.1 59.24 31.84 59.5 39.13 59.91 46.15 58.23 49.23 57.61 53.49"/>
      <polygon class="cls-4" points="13.38 53.12 8.17 44.35 3.18 35.37 4.13 34.48 6.04 37.53 7.39 40.27 9.88 43.74 14.27 51.67 13.38 53.12"/>
      <polygon class="cls-6" points="35.38 33.26 37.72 32.41 38.62 31.38 47.25 22.81 47.95 22.33 50.5 21.14 50.68 22.43 54.34 26.09 53.21 26.8 43.24 36.87 42.34 38.02 36.08 44.07 34.14 42.3 31.73 41.42 31.86 39.86 20.79 28.86 19.67 28 18.45 26.88 17.45 25.92 16.89 25.09 18.84 24.6 22.46 21.15 33.67 31.89 35.38 33.26"/>
      <polygon class="cls-5" points="31.73 41.42 34.14 42.3 36.08 44.07 42.34 38.02 43.24 36.87 53.21 26.8 53.14 27.74 44.4 36.96 38.79 43.75 35.65 45.76 31.73 41.42"/>
      <polygon class="cls-5" points="54.34 26.09 50.68 22.43 50.5 21.14 51.97 21.08 52.76 22.56 55.32 25.12 54.34 26.09"/>
      <polygon class="cls-5" points="37.72 32.41 35.38 33.26 35.92 32.06 37.72 32.41"/>
      <polygon class="cls-5" points="38.62 31.38 38.6 30.42 46.77 22.24 47.95 22.33 47.25 22.81 38.62 31.38"/>
      <polygon class="cls-3" points="2.95 29.1 3.45 29.6 3.45 30.6 2.95 31.1 2.45 30.6 2.45 29.6 2.95 29.1"/>
      <polygon class="cls-5" points="19.67 28 17.18 27.96 18.45 26.88 19.67 28"/>
    </g>
  </g>
</svg>