<?xml version="1.0" encoding="UTF-8"?>
<svg id="Layer_2" data-name="Layer 2" xmlns="http://www.w3.org/2000/svg" viewBox="0 0 378.99 49.09">
  <defs>
    <style>
      .cls-1 {
        fill: #babcc7;
      }

      .cls-2 {
        fill: #8e95a4;
      }

      .cls-3 {
        fill: #626e82;
      }

      .cls-4 {
        fill: #666977;
      }

      .cls-5 {
        fill: #7e8699;
      }

      .cls-6 {
        fill: #566075;
      }

      .cls-7 {
        fill: #1c232a;
      }

      .cls-8 {
        fill: #3a415f;
      }

      .cls-9 {
        fill: #84654c;
      }

      .cls-10 {
        fill: #445063;
      }

      .cls-11 {
        fill: #eee6d9;
      }

      .cls-12 {
        fill: #eeeff2;
      }

      .cls-13 {
        fill: #d2d4d9;
      }

      .cls-14 {
        fill: #705b42;
      }

      .cls-15 {
        fill: #433628;
      }

      .cls-16 {
        fill: #6d778b;
      }

      .cls-17 {
        fill: #2f3a50;
      }
    </style>
  </defs>
  <g id="Layer_1-2" data-name="Layer 1">
    <g>
      <path class="cls-7" d="M201.62,34.09l.05,2.05-6.88.06-11.62,11.29-12.19-11.6-6.32-.17-3.09.25-8.78.25v-2.04s11.8-.08,11.8-.08l7.3-.46,11.16-11.11,11.41,11.05,7.18.52ZM177.59,39.21l4.62,4.6,2.52-.57,7.33-7.13v-1.95s-7.21-6.92-7.21-6.92l-2.02-1.62-9.53,9.52,4.3,4.06Z"/>
      <polygon class="cls-4" points="301.67 36.15 301.66 34.15 366.69 34.14 367.76 35.69 365.59 36.16 301.67 36.15"/>
      <rect class="cls-3" x="11.87" y="34.15" width="60.96" height="2"/>
      <polygon class="cls-10" points="236.72 34.19 236.72 36.15 201.66 36.14 201.62 34.09 236.72 34.19"/>
      <path class="cls-6" d="M121.31,33.82l2.48.33h28.99s0,2.05,0,2.05l-18.71-.16-1.49-.1-10.49.28c-.92-.69-1.45-1.08-.85-.63l-2.52.57.14-1.87,2.44-.47Z"/>
      <polygon class="cls-17" points="5.6 39.44 4.11 39.53 0 35.74 1.54 33.16 4.97 30.68 9.24 35.32 5.6 39.44"/>
      <path class="cls-10" d="M378.68,35.71l-2.95,3.97-1.57-.45-3.98-4.03,4.62-4.59,4.11,4.05c.24-1.07-.14.65-.23,1.05Z"/>
      <polygon class="cls-1" points="177.59 39.21 179.06 38.45 183.37 42.54 190.72 34.99 185.16 29.68 184.57 28.24 184.85 27.25 192.06 34.16 192.06 36.11 184.73 43.24 182.21 43.81 177.59 39.21"/>
      <polygon class="cls-13" points="184.85 27.25 184.57 28.24 182.25 28.57 175.53 34.96 179.06 38.45 177.59 39.21 173.3 35.15 182.83 25.63 184.85 27.25"/>
      <path class="cls-5" d="M124.96,24.1l.32,1.7-1.19,3.67-2.78,4.35-2.44.47-.14,1.87-.04,1.02-8.9,4.06-1.56-1.06-1.23-1.93-1.79,3.91-2.99,1.14-.76.71-2.33-.52-.3-2.35-.45-2.17-2.94.9-3.71.3-2.93.22,1.76-1.34,2.62-.42,2.43-.89,3.24-.33,1.9-.73.29-1.12,1.01-.42,4.19-.69.59-1.47,4.35-2.85c1.83-1.97,3.26-4.99,3.81-7.79l4.03,2.02,3.63.35,2.32-.61Z"/>
      <path class="cls-1" d="M106.9,14.04l2.39.68c2.61,1.72,4.8,4.54,5.69,7.62-.55,2.8-1.98,5.82-3.81,7.79l-4.35,2.85-1.73-.57-3.24-.1-5.18-4.25-1.6-5.58,7.35-7.62,4.49-.81Z"/>
      <path class="cls-16" d="M121.82,9.01l.23,5.81.68,3.04c.07.06,1.38,1.18,1.67.64l.57,1.62-1.35,1.51,1.13,1.6.21.87-2.32.61-3.63-.35-4.03-2.02c-.88-3.08-3.07-5.9-5.69-7.62l-2.39-.68c2.66-1.49,4.69-3.96,5.75-6.94l.27-1.12,1.47.03,1.26,2.37,2.53,2.14,3.64-1.52Z"/>
      <path class="cls-17" d="M85.9,33.22l-4.46,3.14-.31.86,2.5.35s1.7,2.14.49.61l-3.83,2.9,4.54-.74,3.96.07,2.93-.22v1c-5.72,3.4-11.84,5.09-19.12,4.38l5.64-5.2-2.47-1.03,1-1.75,8.96-6.36.18,1.99Z"/>
      <path class="cls-2" d="M125.88,6.26l-1.86,2-2.21.76-3.64,1.52-2.53-2.14-1.26-2.37-1.47-.03c.98-3.79,4.52-6.42,8.72-5.93l3.77,2.17.47,4.03ZM120.3,3.15l-.5.5v1l.5.5.5-.5v-1l-.5-.5Z"/>
      <polygon class="cls-17" points="95.07 22.48 96.67 28.06 101.85 32.31 105.09 32.41 106.81 32.98 106.23 34.46 102.04 35.15 99.8 34 96.61 32.39 92.74 28.32 91.43 26.06 95.07 22.48"/>
      <polygon class="cls-14" points="102.22 43.3 103.24 45.37 106.16 46.01 108.16 44.74 108.84 43.38 114.58 45.69 117.9 46.07 114.7 47.62 112.27 46.82 107.61 47.89 103.93 48.03 100.53 47.77 98.76 46.84 99.71 45.39 101.45 44.01 102.22 43.3"/>
      <path class="cls-10" d="M89.04,33.03l-.7.98-3.02.63,3.75.35,2.09-.97,2.38,1.54-1.37,2.03,1,1.05-2.62.42-1.76,1.34-3.96-.07-4.54.74,3.83-2.9c1.21,1.53-.46-.58-.49-.61l-2.5-.35.31-.86,4.46-3.14,3.14-.19Z"/>
      <polygon class="cls-1" points="102.04 35.15 101.03 35.58 95.8 35.69 92.67 33.25 90.73 29.44 90.66 26.69 91.43 26.06 92.74 28.32 96.61 32.39 99.8 34 102.04 35.15"/>
      <polygon class="cls-17" points="90.66 26.69 90.73 29.44 92.67 33.25 95.8 35.69 101.03 35.58 100.74 36.7 98.84 37.43 95.6 37.75 93.17 38.65 92.17 37.6 93.54 35.56 91.16 34.02 89.07 35 85.32 34.64 88.34 34.01 89.04 33.03 87.1 30.55 90.66 26.69"/>
      <path class="cls-10" d="M124.4,18.5c-.29.54-1.6-.58-1.67-.64l-.68-3.04-.23-5.81,2.21-.76,1.86-2,1.28.67,1.7.69-.58,1.69-2.38-1.39-2.58,2.57-.56,2.11.86,1.21.78,4.7Z"/>
      <polygon class="cls-15" points="109.79 41.24 108.84 43.38 108.16 44.74 105.21 42.16 107 38.25 108.22 40.18 109.79 41.24"/>
      <polygon class="cls-10" points="98.82 41.14 91.73 41.18 91.71 40.18 95.43 39.88 98.37 38.98 98.82 41.14"/>
      <polygon class="cls-10" points="124.75 23.23 123.62 21.63 124.97 20.12 124.75 23.23"/>
      <polygon class="cls-11" points="105.21 42.16 108.16 44.74 106.16 46.01 103.24 45.37 102.22 43.3 105.21 42.16"/>
      <polygon class="cls-7" points="120.3 3.15 120.8 3.65 120.8 4.65 120.3 5.15 119.8 4.65 119.8 3.65 120.3 3.15"/>
      <path class="cls-8" d="M301.66,34.15l.02,2-6.15.05-1.35-.71-1.58.22-3.81.27,1.54,1.83-.12,1.18c-2.05.69-2.85.96-2.28.77l6.69,5.81-8.2-.25,1.47-1.71-3.23-2.02-2.78-.59-4.87-.66-1.58.9-6.55.61.98-2.8-2.63-2.6c-1.76.11-1.43.09-1.21.08v-.79s5.62-.15,5.62-.15l3.29-3.41.67-3.07,1.03-2.19,1.49.83,1.51,2.8-2.1,2.42,2.72.48.69-2.64,4.89,3.66,15.83-.3Z"/>
      <path class="cls-5" d="M259.8,14l-1.77,1.64-4.55,1.85-2.41-1.87-.62,1.19-4.94.26,1.99-2.74c1.64-.82,2.29-1.14,2.13-1.06l-1.82-3.7-4.05-.55-2.13-.03-1.13-.3,1.1-.98-1.05-1.31.18-1.23.5.02.6-.56-1.29-1.54,1.72-2.63,5.99-.19,4.41,3.91,2.2,6.03,2.77,2.81,2.17,1.01ZM245.21,4.15l-.5.5.5.5h1l.5-.5-.5-.5h-1ZM241.95,5.96l.48-.59-.48.59Z"/>
      <path class="cls-1" d="M271.93,22.66l-.5,2.27-2.58,4.05-3.97,3.6-4.24.66-.83.18-3.07-2.47c-2.54-2.63-4.32-6.41-4.41-10.12l1.14-.99,3.19,1.22,6.17,1.68,5.72,2.26-.06-4.63-2.44-1.76v-2.05s2.01,2.24,2.01,2.24l3.86,3.87Z"/>
      <path class="cls-5" d="M252.34,20.83c.08,3.71,1.86,7.49,4.41,10.12l-2.57,4.45-1.45,1.06-2.92-1.01-1.05.62-12.04.09v-1.96s9.89.09,9.89.09l-3.19-5.43,1.4-.37-1.32-3.58,5.07-2.98,3.77-1.1Z"/>
      <path class="cls-6" d="M253.48,17.48v2.36s-1.14.99-1.14.99l-3.77,1.1-5.07,2.98,1.32,3.58-1.4.37c-1.4-4.02-1.87-8.22-1.09-12.71l.51-3.99-1.22-3.19,2.13.03,4.05.55,1.82,3.7c.16-.08-.49.24-2.13,1.06l-1.99,2.74,4.94-.26.62-1.19,2.41,1.87Z"/>
      <path class="cls-13" d="M266.05,16.55v2.05s2.45,1.76,2.45,1.76l.06,4.63-5.72-2.26-6.17-1.68-3.19-1.22v-2.36s4.55-1.85,4.55-1.85l1.77-1.64,4.31,1.8,1.94.76ZM264.82,20.15c0-.62-.5-1.12-1.12-1.12s-1.12.5-1.12,1.12.5,1.12,1.12,1.12,1.12-.5,1.12-1.12Z"/>
      <polygon class="cls-17" points="275.89 25.94 273.91 28.45 268.96 33.32 265.68 34.1 263.64 35.08 261.55 35.05 260.83 34.55 260.64 33.24 264.88 32.58 268.85 28.98 271.43 24.93 271.93 22.66 275.89 25.94"/>
      <path class="cls-2" d="M263.64,35.08l.53,1.09,1.84.34c-.22.01-.55.03,1.21-.08l2.63,2.6-.98,2.8-3.06,1.53-2.3-1.16-1.73-.33.38-1.78-.62-5.04,2.1.03Z"/>
      <polygon class="cls-10" points="252.74 36.45 253.11 37.37 255.28 38.51 260.46 41.08 262.17 40.09 261.79 41.87 257.18 45.08 260.75 46 260.55 48.18 258.85 49.09 257.58 46.68 252.61 47.08 248.92 47.07 250.06 45.14 254.83 45.38 258.62 42.3 253.54 39.18 248.76 36.06 249.81 35.44 252.74 36.45"/>
      <polygon class="cls-13" points="276.63 26.91 275.6 29.1 274.93 32.17 271.64 35.57 266.02 35.72 265.68 34.1 268.96 33.32 273.91 28.45 275.89 25.94 276.63 26.91"/>
      <polygon class="cls-7" points="286.42 45.31 280.81 43.74 275.43 41.22 277.02 40.32 281.89 40.98 284.67 41.58 287.9 43.59 286.42 45.31"/>
      <polygon class="cls-9" points="265.63 44.21 266.35 45.3 268.42 46.49 267.65 47.94 265.41 47.29 261.73 48.74 260.55 48.18 260.75 46 262.79 45.66 263.76 43.27 265.63 44.21"/>
      <polygon class="cls-17" points="240.54 6.36 241.59 7.68 240.49 8.66 235.81 8.67 240.54 6.36"/>
      <polygon class="cls-8" points="240.72 5.13 240.53 3.05 241.82 4.59 242.43 5.37 241.95 5.96 241.21 5.15 240.72 5.13"/>
      <polygon class="cls-8" points="265.83 43.36 265.63 44.21 263.76 43.27 263.52 42.2 265.83 43.36"/>
      <polygon class="cls-3" points="265.68 34.1 266.02 35.72 266.02 36.51 264.17 36.17 263.64 35.08 265.68 34.1"/>
      <polygon class="cls-8" points="245.21 4.15 246.21 4.15 246.71 4.65 246.21 5.15 245.21 5.15 244.71 4.65 245.21 4.15"/>
      <polygon class="cls-3" points="260.64 33.24 260.83 34.55 261.55 35.05 262.17 40.09 260.46 41.08 255.28 38.51 253.11 37.37 252.74 36.45 254.18 35.4 256.75 30.95 259.82 33.42 260.64 33.24"/>
      <circle class="cls-1" cx="263.7" cy="20.15" r="1.12"/>
      <polygon class="cls-12" points="263.52 42.2 263.76 43.27 262.79 45.66 260.75 46 257.18 45.08 261.79 41.87 263.52 42.2"/>
      <polygon class="cls-8" points="184.57 28.24 185.16 29.68 190.72 34.99 183.37 42.54 179.06 38.45 175.53 34.96 182.25 28.57 184.57 28.24"/>
    </g>
  </g>
</svg>