<?xml version="1.0" encoding="UTF-8"?>
<svg id="Layer_2" data-name="Layer 2" xmlns="http://www.w3.org/2000/svg" viewBox="0 0 114.01 148.49">
  <defs>
    <style>
      .cls-1 {
        fill: #c9cad4;
      }

      .cls-2 {
        fill: #616a83;
      }

      .cls-3 {
        fill: #8c91a3;
      }

      .cls-4 {
        fill: #586278;
      }

      .cls-5 {
        fill: #4b556f;
      }

      .cls-6 {
        fill: #9da1b2;
      }

      .cls-7 {
        fill: #757c90;
      }

      .cls-8 {
        fill: #969aa9;
      }

      .cls-9 {
        fill: #d7d7dd;
      }

      .cls-10 {
        fill: #6c7387;
      }

      .cls-11 {
        fill: #81869a;
      }

      .cls-12 {
        fill: #836fa3;
      }

      .cls-13 {
        fill: #607791;
      }

      .cls-14 {
        fill: #6d839b;
      }

      .cls-15 {
        fill: #f0f1f3;
      }

      .cls-16 {
        fill: #798ea4;
      }

      .cls-17 {
        fill: #a5a9b8;
      }

      .cls-18 {
        fill: #77669c;
      }
    </style>
  </defs>
  <g id="Layer_1-2" data-name="Layer 1">
    <g>
      <path class="cls-8" d="M45.67,112.45l4.08-.06-.29-8.55-.98-3.51-.55-2.02c1.55,1.21,2.79,3.54,3.19,5.57l.67,2.5-.34,7.07-4.25,1.17-1.54-2.16Z"/>
      <polygon class="cls-11" points="49.68 129.46 48.91 131.54 46.79 129.06 46.65 126.39 47.76 123.99 47.1 121.31 45.1 115.61 42.6 114.75 43.96 114.2 48.71 119.61 48.66 129.33 49.68 129.46"/>
      <polygon class="cls-4" points="45.67 112.45 44.08 112.42 43.96 114.2 42.6 114.75 42.73 110.37 45.7 110.77 45.67 112.45"/>
      <polygon class="cls-13" points="71.41 32.07 69.03 35.61 65.85 38.61 61.38 43.2 55.55 49.19 54.72 51.11 55.33 53.46 59.29 58.12 61.42 62.77 63.25 65.13 65.71 64.19 65.74 66.4 63.22 66.9 64.97 68.58 64.24 81.32 63.66 89.42 60.47 89.63 58.99 88.35 56.51 87.51 52.14 84.94 48.88 82.89 38.77 81.33 37.46 79.85 38.56 77.64 43.23 74.94 38.04 67.93 37.31 65.43 41.39 61.17 49.95 53.53 51.57 50.33 45.19 36.94 44.48 33.58 60.75 33.39 69.04 32.41 69.66 31.25 71.41 32.07"/>
      <path class="cls-5" d="M1.15,45.1l.4,1.92,2.1.42,7.76,1.35,10.31,1.89.13,2.07-.22.77,2.11,14.07,11.73-2.24,1.84.08.73,2.5,5.18,7.01-4.66,2.7-1.1,2.21,1.31,1.47,10.11,1.56,3.26,2.05,4.38,2.56,2.47.85-3.03.76,1.63,4.92,2.95,1.88-1.87-4.43,1.81-1.86,3.18-.21,1.33.34,2.16,1.86,2.93.97-5.33-.19c.13-.19-.52.76-1.39,2.04l-2.44.97-.36-.28-3.01,8.01-2.08,1.63-6.17-12.86-1.26-2.01-2.17-2.57-2.31-.65-2.69-1.39-3.95-1.54-3.82-8.11.6-3.79-3.06-.42h-1.1s-7.74-2.16-7.74-2.16l-3.98.16-6.96-4.85-3.44-5.75-2.61-4.36-4.79-6.56.14-2.04,1.01-.76Z"/>
      <polygon class="cls-10" points="42.6 33.32 39.13 36.81 31.97 41.71 22.37 49.18 21.73 50.68 11.42 48.79 3.66 47.44 1.56 47.02 1.15 45.1 11.27 34.02 17.46 27.14 20.64 27.54 26.95 29.23 38.73 32.26 42.6 33.32"/>
      <path class="cls-18" d="M100.92,64.23l-2.23,4.12.15,8.31-1.57,2.87-5.01-5.15-2.06.3-2.05.41,1.04-1.68c.54-1.25,1.58-3.02,2.18-3.78l3.58-2.82-2.93.23-5.89,7.86-3.79,8.34-.91,2.57-2.12,2.32-5.18,2.5-2.07-.26-.37,2.19-1.63.02-2.93-.97-2.16-1.86c2.66-.88,5.25-3.15,7.21-5.79l3.86-6.2,6.24-6.59.55-1.58,1.95-3.41,3.01-2.59,4.06-6.13.8-2.17,8.26,8.94Z"/>
      <path class="cls-14" d="M90.85,103.78l-1.89,1.85-1.26-.35-1.48-1.36-5.69-2.27-5.91-3.67-2.3,11.21-1.15,8.89-8.31,2.67-.43-9.25,1.48-7.05,1.93-6.62c-1.08-1.28-1.05-1.24-.94-1.11l3.62-.88.1-1.58,2.02-.02,1.81.5,2.21-2.52,1.6-.53,3.34-2.38,5.88,4.28,6.44,6.82-1.08,3.38Z"/>
      <polygon class="cls-2" points="90.85 103.78 91.93 100.4 85.48 93.59 79.6 89.31 83.24 85.37 84.69 85.72 90.02 84.01 93.97 82.73 96.5 80.96 104.36 79.17 109.67 78.53 112.11 78.5 113.05 77.14 114.01 78.07 113.12 79.93 90.85 103.78"/>
      <path class="cls-6" d="M92.66,55.3l-.8,2.17-4.06,6.13-3.01,2.59-1.95,3.41-3.04-1.52-.6-3.67-12.53-.53-.28-1.35,2.13-.14,6.07-4.98,5.57-3.78-.05-2.49-2.55-5.79c-1.09-2.13-1.73-4.94-.78-6.99l5.93,6.08,9.96,10.86Z"/>
      <polygon class="cls-13" points="87.7 105.29 85.68 107.75 84.83 109.82 79.76 115.55 65.87 129.74 64.17 129.49 63.49 127.69 62.87 120.76 71.18 118.09 72.33 109.2 74.63 98 80.54 101.66 86.23 103.93 87.7 105.29"/>
      <path class="cls-2" d="M72.95,34.19c-1.35,2.4-1.97,5.17-2.3,8.25l-3.13,13.96-1.12,6.13.28,1.35-.97.31-2.46.94-1.84-2.36-2.13-4.65-3.96-4.65-.61-2.35.83-1.92,5.83-5.99,4.47-4.59,3.17-3,2.38-3.54,1.54,2.12Z"/>
      <polygon class="cls-7" points="42.72 3.69 43.18 14.43 43.8 28.49 43.59 30.29 41.94 30.85 36.67 25.49 29.41 17.15 29.3 14.13 30.34 13.21 32.19 13.74 32.78 11.98 31.76 11.25 42.49 0 42.72 3.69"/>
      <polygon class="cls-7" points="113.05 77.14 112.11 78.5 109.67 78.53 104.36 79.17 96.5 80.96 93.97 82.73 90.02 84.01 84.69 85.72 84.27 83.2 88.15 75.1 90.2 74.68 92.27 74.39 97.27 79.53 98.84 76.66 98.69 68.35 100.92 64.23 113.05 77.14"/>
      <path class="cls-8" d="M57.18,16.85c-1.81.72-3.67,2.56-4.89,4.1l-5.7,9.6-1.44,1.11-1.52-.07-.05-1.31.21-1.8-.62-14.06-.46-10.73,1.6-.94,6.31,6.78,5.39,5.59,1.15,1.73Z"/>
      <path class="cls-12" d="M76.77,38.35c-.95,2.06-.31,4.86.78,6.99l2.55,5.79.05,2.49-5.57,3.78-6.07,4.98-2.13.14,1.12-6.13,3.13-13.96c.33-3.09.95-5.86,2.3-8.25l3.83,4.16Z"/>
      <polygon class="cls-4" points="43.59 30.29 43.64 31.6 44.81 32.6 44.48 33.58 42.6 33.32 38.73 32.26 26.95 29.23 20.64 27.54 17.46 27.14 29.3 14.13 29.41 17.15 36.67 25.49 41.94 30.85 43.59 30.29"/>
      <polygon class="cls-5" points="63.49 127.69 64.17 129.49 65.87 129.74 64.2 132.07 57.31 139.07 48.29 148.49 47.32 146.48 49.59 145.83 49.51 143.43 49.75 141.46 49.74 134.38 50.91 130.98 49.68 129.46 50.41 126.68 53.69 126.79 63.49 127.69"/>
      <path class="cls-17" d="M57.18,16.85l3.77,4.27-.2,12.26-16.27.2.33-.98.35-.94,1.44-1.11,5.7-9.6c1.22-1.54,3.08-3.38,4.89-4.1Z"/>
      <path class="cls-15" d="M60.91,95.4l.91,1.16-.98,3.93-5.36,7.88-3.42,7.9-1.66,10.41-.73,2.78-1.01-.13.05-9.72-4.75-5.41.12-1.79,1.59.03,1.54,2.16,4.25-1.17.34-7.07-.67-2.5c-.4-2.03-1.64-4.36-3.19-5.57l-1.71-.28.29-3.4,1.49-4.74,1.26,2.01,6.17,12.86,2.08-1.63,3.01-8.01.36.28Z"/>
      <polygon class="cls-3" points="69.66 31.25 69.04 32.41 60.75 33.39 60.95 21.12 63.06 22.98 69.39 29.83 69.66 31.25"/>
      <polygon class="cls-8" points="45.85 87.32 48.02 89.89 46.53 94.63 46.24 98.02 44.97 96.03 45.78 93.28 45.74 90.78 44.44 91.25 41.36 92.55 39.73 90.54 39.31 88.03 37.49 87.81 35.02 84.87 37.62 85.52 43.88 88.33 45.85 87.32"/>
      <polygon class="cls-9" points="45.85 87.32 43.88 88.33 37.62 85.52 35.02 84.87 33.5 82.95 32.67 79.52 31.38 74.39 30.63 71.42 33.68 71.84 33.08 75.63 36.91 83.74 40.86 85.28 43.54 86.67 45.85 87.32"/>
      <polygon class="cls-8" points="49.75 141.46 49.51 143.43 49.59 145.83 47.32 146.48 47.19 138.17 47.68 134.3 48.67 132.44 48.68 141.29 49.75 141.46"/>
      <polygon class="cls-9" points="49.75 141.46 48.68 141.29 48.67 132.44 48.91 131.54 49.68 129.46 50.91 130.98 49.74 134.38 49.75 141.46"/>
      <polygon class="cls-6" points="33.5 82.95 29.92 76.01 29.53 71.42 30.63 71.42 31.38 74.39 32.67 79.52 33.5 82.95"/>
      <polygon class="cls-4" points="30.34 13.21 30.67 11.91 31.76 11.25 32.78 11.98 32.19 13.74 30.34 13.21"/>
      <polygon class="cls-2" points="84.83 109.82 85.68 107.75 87.7 105.29 88.97 105.63 84.83 109.82"/>
      <polygon class="cls-16" points="44.48 33.58 45.19 36.94 51.57 50.33 49.95 53.53 41.39 61.17 37.31 65.43 35.47 65.35 34.09 63.1 23.16 52.59 21.85 52.75 21.73 50.68 22.37 49.18 31.97 41.71 39.13 36.81 42.6 33.32 44.48 33.58"/>
      <path class="cls-12" d="M82.85,69.6l-.55,1.58-6.24,6.59-3.86,6.2c-1.96,2.65-4.54,4.92-7.21,5.79l-1.33-.34.59-8.1.73-12.75.77-2.18-.03-2.2.97-.31,12.53.53.6,3.67,3.04,1.52Z"/>
      <polygon class="cls-1" points="58.99 88.35 60.47 89.63 58.67 91.49 60.54 95.91 57.58 94.03 55.96 89.11 58.99 88.35"/>
      <polygon class="cls-2" points="65.74 66.4 64.97 68.58 63.22 66.9 65.74 66.4"/>
      <polygon class="cls-2" points="35.47 65.35 23.74 67.59 21.63 53.52 21.85 52.75 23.16 52.59 34.09 63.1 35.47 65.35"/>
      <path class="cls-1" d="M88.15,75.1l-3.88,8.1.42,2.52-1.45-.35-3.64,3.94-3.34,2.38-1.6.53-2.21,2.52-1.81-.5-2.02.02-4.6.29-2.19,2.01-.91-1.16,2.44-.97c.87-1.27,1.51-2.22,1.39-2.04l5.33.19,1.63-.02,2.43-1.93,5.18-2.5,2.12-2.32.91-2.57,3.79-8.34,5.89-7.86,2.93-.23-3.58,2.82c-.6.75-1.64,2.53-2.18,3.78l-1.04,1.68Z"/>
      <polygon class="cls-5" points="74.14 90.63 71.7 92.56 72.07 90.37 74.14 90.63"/>
      <path class="cls-2" d="M68.62,94.26l-.1,1.58-3.62.88c-.11-.13-.14-.17.94,1.11l-1.93,6.62-1.48,7.05.43,9.25.62,6.92-9.81-.89-3.28-.11,1.66-10.41,3.42-7.9,5.36-7.88.98-3.93,2.19-2.01,4.6-.29Z"/>
      <path class="cls-2" d="M72.45,94.74l-1.81-.5,1.81.5Z"/>
      <polygon class="cls-16" points="44.81 32.6 43.64 31.6 45.16 31.67 44.81 32.6"/>
    </g>
  </g>
</svg>