<?xml version="1.0" encoding="UTF-8"?>
<svg id="Layer_2" data-name="Layer 2" xmlns="http://www.w3.org/2000/svg" viewBox="0 0 42.75 67.03">
  <defs>
    <style>
      .cls-1 {
        fill: #616a83;
      }

      .cls-2 {
        fill: #586278;
      }

      .cls-3 {
        fill: #757c90;
      }

      .cls-4 {
        fill: #6c7387;
      }

      .cls-5 {
        fill: #414c65;
      }
    </style>
  </defs>
  <g id="Layer_1-2" data-name="Layer 1">
    <g>
      <path class="cls-2" d="M41.8,15.86l-1.76,1.65,1.39,2.36-.24,4.9-5.35-.84.29,9.81c-1.49,2.08-5.93,4.49-9.88,5.01l-5.04,2.44c-.75,2.7-.94,3.38-.91,3.27l-8.18-.98-2.05,1.57-2.08-1.6L1.41,30.93.1,26.01l-.1-5.2,2.66.21,4.03-2.93.17-5.04,4.37.03.62-3.79c2.32-.68,4.69-2.21,6.49-4.13l1.11-4.58,3.59-.59c3.99.99,7.8,2.45,11.35,4.59l4.23,5.29,1.33,2.06,1.84,3.92ZM28.38,14.17c-2.85-1.84-6.36-2.75-9.82-2.22-4.34,2.44-6.43,5.23-7.83,10.03.78,3.96,1.74,6.51,3.62,9.63,3.01,1.56,6.27,2.39,9.7,2.56l3.94-2.53c4.62-3.88,5.15-10.31,2-15.4l2.43-.93,7.02-1.42-4.63-7.42-2.81,2.39-3.27,3.41-.33,1.91Z"/>
      <path class="cls-5" d="M13.06,51.94l2.66-.08,1.05-1.82-2.77-3.01-3.92-.42v-1.55s2.03-1.57,2.03-1.57l8.18.98c-.03.11.16-.57.91-3.27l5.04-2.44c3.95-.52,8.39-2.93,9.88-5.01l-.29-9.81,5.35.84.24-4.9-1.39-2.36,1.76-1.65c1.55,5.24,1.2,11.33-.99,16.67l-11.07,20.29-7,12.82-1.82,1.38-.89-1.76-5.48-9.59-1.49-3.73Z"/>
      <path class="cls-4" d="M19.45.59l-1.11,4.58c-1.79,1.92-4.17,3.45-6.49,4.13l-.62,3.79-4.37-.03-.17,5.04-4.44.22.41,2.71-2.66-.21,2.79-9.28,2.74.34-1.27-2.21C7.65,4.34,13.14.95,19.45.59Z"/>
      <polygon class="cls-2" points="13.06 51.94 12.06 51.52 10.08 46.61 14 47.03 16.77 50.05 15.72 51.86 13.06 51.94"/>
      <polygon class="cls-2" points="2.79 11.53 4.27 9.66 5.53 11.87 2.79 11.53"/>
      <polygon class="cls-1" points="29.97 16.24 28.38 14.17 28.71 12.26 31.98 8.86 34.79 6.47 39.42 13.89 32.4 15.3 29.97 16.24"/>
      <polygon class="cls-3" points="6.69 18.09 2.66 21.02 2.25 18.31 6.69 18.09"/>
    </g>
  </g>
</svg>